<svg width="58" height="40" viewBox="0 0 58 40" fill="none" xmlns="http://www.w3.org/2000/svg">
<rect x="0.5" y="0.5" width="57" height="39" rx="3.5" fill="white"/>
<rect x="0.5" y="0.5" width="57" height="39" rx="3.5" stroke="#E5E7EB"/>
<path d="M10.2178 19.7391C11.9563 19.7392 13.2891 20.5182 13.2891 22.4364V27.0809H11.3838V25.9725C10.9505 26.7227 10.0396 27.2909 9.01758 27.2909C7.58454 27.2909 6.66722 26.5114 6.66699 25.2235C6.66699 23.5982 8.32116 23.0168 10.4287 22.7421C10.9936 22.6691 11.292 22.482 11.292 22.1112C11.2918 21.563 10.8417 21.2899 10.0264 21.2899C9.16774 21.2899 8.21584 21.7502 7.62695 22.2889L6.95605 20.8778C7.68999 20.2928 9.043 19.7391 10.2178 19.7391ZM23.291 16.3827C24.4505 16.3827 25.0889 16.7997 25.0889 16.7997L24.459 18.2372C24.4445 18.229 24.0502 18.0097 23.5469 18.0096C23.0819 18.0096 22.543 18.2802 22.543 19.2235V19.9481H24.3906V21.5223H22.543V27.0809H20.5049V21.5223H17.4102V27.0809H15.3721V21.5223H14.1885V19.9481H15.3721V19.4237C15.3722 17.1177 16.8548 16.3828 18.1582 16.3827C18.9766 16.3827 19.5805 16.5787 19.9561 16.7997L19.3271 18.2372C19.0332 18.071 18.6773 18.0096 18.4131 18.0096C17.9491 18.0097 17.4102 18.2802 17.4102 19.2235V19.9481H20.5049V19.4237C20.505 17.1176 21.9875 16.3827 23.291 16.3827ZM27.6445 19.9491V27.0809H25.6084V19.9491H27.6445ZM33.4043 19.7391C33.6742 19.7391 34.0043 19.7687 34.3193 19.9032L33.9473 21.7889C33.7072 21.6094 33.3441 21.5312 33.0752 21.5311C32.3855 21.5311 31.3965 22.0114 31.3965 23.6454V27.0809H29.3564V19.9481H31.2617V21.1473C31.6969 20.2042 32.3555 19.7392 33.4043 19.7391ZM43.7764 19.7391C45.0799 19.7391 46.1591 20.5481 46.1592 22.1512V27.0809H44.1201V22.7958C44.1201 21.8516 43.5516 21.4598 43.0127 21.4598C42.3384 21.4599 41.6641 22.0767 41.6641 23.41V27.0809H39.626V22.8104C39.626 21.8375 39.0898 21.46 38.5068 21.4598C37.8623 21.4598 37.1719 22.0911 37.1719 23.41V27.0809H35.1309V19.9491H37.0977V21.0272C37.4426 20.3386 38.189 19.7391 39.2676 19.7391C40.2559 19.7392 41.0817 20.1977 41.4717 20.9921C41.8915 20.3773 42.6976 19.7392 43.7764 19.7391ZM11.251 23.8485C9.60646 24.0224 8.70508 24.2984 8.70508 25.1034C8.70526 25.5383 8.97295 25.8016 9.50879 25.8016C10.523 25.8015 11.2509 24.9252 11.251 23.8485Z" fill="#060809"/>
<path fill-rule="evenodd" clip-rule="evenodd" d="M37.4896 10C31.9833 10 27.0755 13.8223 25.6826 18.7368H27.6788C28.8421 15.0769 32.7912 11.8646 37.4896 11.8646C43.2004 11.8646 48.1361 16.2123 48.1361 22.9808C48.1361 24.5005 47.9391 25.8704 47.5664 27.0807H49.503L49.5222 27.0144C49.8393 25.7656 50.0006 24.4093 50.0006 22.9808C50.0006 15.4323 44.5001 10 37.4896 10Z" fill="#0FA0EA"/>
</svg>
