<svg width="58" height="40" viewBox="0 0 58 40" fill="none" xmlns="http://www.w3.org/2000/svg">
<rect x="0.5" y="0.5" width="57" height="39" rx="3.5" fill="white"/>
<rect x="0.5" y="0.5" width="57" height="39" rx="3.5" stroke="#E5E7EB"/>
<path d="M9.03809 15.0195C9.72078 15.0195 10.6122 15.2101 11.1484 15.7529C11.7779 16.3725 11.7738 17.184 11.7695 18.0703C11.7692 18.1434 11.7686 18.217 11.7686 18.291V20.5859C11.7686 21.2041 11.987 21.512 12.2168 21.8359C12.244 21.8743 12.2716 21.9128 12.2988 21.9521C12.3882 22.0826 12.4081 22.2459 12.2988 22.3438C12.0122 22.5955 11.504 23.0599 11.2246 23.3223L11.2129 23.3203C11.1207 23.4042 10.9881 23.4182 10.8818 23.3555C10.4847 23.0081 10.3645 22.8196 10.1807 22.5312C10.1491 22.4818 10.1152 22.4297 10.0781 22.373C9.3075 23.1974 8.76219 23.4443 7.76562 23.4443C6.58535 23.4442 5.66699 22.6773 5.66699 21.1455C5.66716 19.9493 6.28762 19.1366 7.15625 18.7373C7.79785 18.4413 8.65443 18.349 9.39453 18.2695C9.53204 18.2548 9.66559 18.2407 9.79297 18.2256V18.0352C9.79297 17.9988 9.79366 17.9614 9.79395 17.9238C9.7964 17.5991 9.79878 17.2373 9.62305 16.9648C9.45173 16.6935 9.12634 16.583 8.83594 16.583C8.30095 16.583 7.82469 16.8714 7.70801 17.4678C7.69315 17.6068 7.59057 17.7183 7.45898 17.7393L6.11133 17.584C6.04406 17.5739 5.98374 17.5348 5.94434 17.4766C5.90497 17.4184 5.89041 17.3455 5.90332 17.2754C6.21502 15.5429 7.70388 15.0196 9.03809 15.0195ZM27.416 15.0146C28.0975 15.0146 28.9889 15.2052 29.5264 15.748C30.1569 16.3644 30.1523 17.1691 30.1475 18.0508C30.147 18.1285 30.1465 18.2073 30.1465 18.2861V20.582C30.1465 21.1988 30.365 21.5063 30.5947 21.8301C30.6221 21.8686 30.6494 21.9077 30.6768 21.9473C30.771 22.0829 30.7911 22.242 30.6709 22.332C30.3842 22.5838 29.875 23.0496 29.5957 23.3105C29.5029 23.3935 29.371 23.4072 29.2646 23.3447C28.8658 22.9959 28.7471 22.8107 28.5605 22.5186C28.5295 22.4699 28.4965 22.4182 28.46 22.3623C27.6904 23.1869 27.1414 23.4336 26.1484 23.4336C24.9682 23.4334 24.0498 22.6672 24.0498 21.1367C24.0498 19.9389 24.6671 19.1258 25.5459 18.7266C26.1888 18.4296 27.0499 18.3386 27.792 18.2598C27.9264 18.2455 28.057 18.2314 28.1816 18.2168V18.0303C28.1816 17.9942 28.1823 17.9571 28.1826 17.9199C28.1851 17.595 28.1878 17.2325 28.0107 16.9609C27.8444 16.6897 27.5128 16.5771 27.2236 16.5771C26.6888 16.5772 26.2147 16.8659 26.0967 17.4619C26.0815 17.6007 25.9799 17.7119 25.8486 17.7334L24.4893 17.5801C24.4216 17.5703 24.361 17.5311 24.3213 17.4727C24.2816 17.4141 24.266 17.341 24.2793 17.2705C24.5921 15.5364 26.0817 15.0147 27.416 15.0146ZM40.9658 15.0107C43.0472 15.0109 44.1728 16.8895 44.1729 19.2773C44.1729 21.5856 42.9318 23.4159 40.9658 23.416C38.9241 23.416 37.8117 21.5377 37.8115 19.1982C37.8115 16.8586 38.9376 15.0107 40.9658 15.0107ZM20.54 15.0371C21.279 14.9169 22.0222 15.2249 22.4844 15.8428C22.9299 16.4795 22.8379 17.4085 22.8379 18.2148V22.9902C22.8365 23.064 22.8075 23.1345 22.7568 23.1855C22.7061 23.2366 22.6377 23.2644 22.5674 23.2627H21.166C21.0283 23.255 20.9198 23.1362 20.918 22.9912V18.9795C20.918 18.6609 20.9437 17.8651 20.8779 17.5625C20.7736 17.0538 20.4595 16.9102 20.0537 16.9102C19.6818 16.9222 19.3521 17.1663 19.2158 17.5303C19.1079 17.8181 19.0882 18.2476 19.085 18.626V22.9902C19.0835 23.0637 19.0542 23.1336 19.0039 23.1846C18.9534 23.2357 18.8855 23.264 18.8154 23.2627H17.4102C17.2726 23.2544 17.1646 23.136 17.1621 22.9912V18.9795C17.1621 18.1352 17.2858 16.8916 16.293 16.8916C15.4242 16.8916 15.334 17.8179 15.3252 18.6377V22.9902C15.3238 23.064 15.2938 23.1345 15.2432 23.1855C15.1925 23.2364 15.1247 23.2642 15.0547 23.2627H13.6514C13.5216 23.2554 13.4162 23.1496 13.4033 23.0137V15.4453C13.408 15.2937 13.5275 15.1733 13.6719 15.1748H14.9785C15.1123 15.1826 15.2191 15.2949 15.2266 15.4355V16.4238H15.2529C15.593 15.4674 16.2347 15.0225 17.0986 15.0225C17.9625 15.0225 18.5245 15.4674 18.918 16.4238C19.1807 15.6878 19.801 15.1574 20.54 15.0371ZM48.9971 15C49.6251 15 50.2388 15.2392 50.6348 15.8916C51.0007 16.4971 51.001 17.5162 51.001 18.248V23.0098C50.9803 23.1485 50.865 23.2499 50.7314 23.2471H49.3213C49.195 23.2413 49.0907 23.1414 49.0732 23.0098V18.9004C49.0732 18.0731 49.1647 16.8623 48.1953 16.8623C47.8354 16.8798 47.5184 17.1164 47.3838 17.4678C47.1877 17.9296 47.1611 18.3919 47.1611 18.9033V22.9756C47.1557 23.129 47.0347 23.2498 46.8887 23.2471H45.4893C45.3515 23.2394 45.2431 23.1205 45.2412 22.9756V15.4072C45.256 15.2635 45.3733 15.1556 45.5107 15.1592H46.8115C46.9298 15.1632 47.0311 15.2494 47.0596 15.3701V16.5283H47.0869C47.4791 15.4936 48.029 15.0001 48.9971 15ZM36.7344 15.1465C36.8044 15.144 36.8727 15.1712 36.9229 15.2227C36.973 15.2742 37.0007 15.3452 37 15.4189V16.3467C37 16.5019 36.8763 16.7056 36.6543 17.0264L34.2656 20.6094C35.1518 20.5872 36.089 20.7269 36.8945 21.2031C37.0433 21.2865 37.1379 21.4478 37.1426 21.625V22.7832C37.1426 22.9424 36.9778 23.1265 36.8027 23.0312C35.274 22.2053 33.4595 22.2093 31.9336 23.041C31.7735 23.1311 31.6055 22.9492 31.6055 22.79V21.6875C31.5908 21.4276 31.6511 21.1693 31.7773 20.9453L34.5439 16.7695H32.1309C32.0606 16.7724 31.9918 16.7449 31.9414 16.6934C31.8911 16.6419 31.8636 16.5709 31.8643 16.4971V15.4189C31.861 15.3452 31.8876 15.2737 31.9375 15.2217C31.9874 15.1697 32.0558 15.1423 32.126 15.1465H36.7344ZM9.79883 19.4092C8.78487 19.4092 7.71401 19.6376 7.71387 20.8926C7.71387 21.532 8.02796 21.9629 8.56543 21.9629C8.96011 21.9628 9.3137 21.7069 9.53711 21.292C9.79992 20.8007 9.79932 20.3405 9.79883 19.7979V19.4092ZM28.1846 19.4023C27.1706 19.4024 26.0996 19.6303 26.0996 20.8867C26.0998 21.5246 26.4138 21.9551 26.9512 21.9551C27.3446 21.9551 27.6997 21.6988 27.9219 21.2852C28.1855 20.7912 28.1849 20.3287 28.1846 19.7793V19.4023ZM40.9795 16.5557C39.9457 16.5558 39.8799 18.0352 39.8799 18.959C39.8799 18.969 39.8799 18.9791 39.8799 18.9893C39.8797 19.9253 39.8795 21.8553 40.9658 21.8555C42.0643 21.8555 42.1055 20.2638 42.1055 19.293C42.1055 18.6562 42.0792 17.8912 41.8955 17.2871C41.7378 16.7654 41.4238 16.5557 40.9795 16.5557Z" fill="black"/>
<path fill-rule="evenodd" clip-rule="evenodd" d="M34.1688 28.0748C34.4878 27.241 35.1978 25.3724 34.8602 24.9196H34.8627C34.5266 24.4659 32.6398 24.704 31.7911 24.8111L31.7893 24.8113C31.5311 24.844 31.4914 24.6078 31.7235 24.4368C33.2304 23.3238 35.6993 23.6422 35.986 24.018C36.2728 24.3938 35.9078 26.9957 34.4965 28.238C34.2793 28.4285 34.072 28.3267 34.1688 28.0748ZM24.0289 29.3615C27.3108 29.3615 31.1327 28.2719 33.7654 26.2298V26.2337C34.2011 25.8892 33.8275 25.3829 33.3831 25.5812C30.5094 26.8555 27.4246 27.5207 24.3057 27.5386C19.9787 27.5386 15.7932 26.2911 12.407 24.2203C12.1103 24.0389 11.8894 24.3586 12.1377 24.5921C15.3976 27.6841 19.6383 29.385 24.0289 29.3615Z" fill="#FF9900"/>
</svg>
