<svg width="40" height="25" viewBox="0 0 40 25" fill="none" xmlns="http://www.w3.org/2000/svg">
<g clip-path="url(#clip0_10001_1493)">
<path d="M11.0256 6H28.9744C29.5408 6 30 6.46563 30 7.04V17.96C30 18.5344 29.5408 19 28.9744 19H11.0256C10.4592 19 10 18.5344 10 17.96V7.04C10 6.46563 10.4592 6 11.0256 6Z" fill="#2557D6"/>
<path d="M10.0128 12.1279H10.9728L11.1893 11.6206H11.6739L11.8898 12.1279H13.7787V11.7401L13.9474 12.1295H14.928L15.0966 11.7343V12.1279H19.7909L19.7887 11.2952H19.8796C19.9431 11.2974 19.9617 11.3031 19.9617 11.4051V12.1279H22.3896V11.9341C22.5855 12.036 22.8901 12.1279 23.2909 12.1279H24.3123L24.5309 11.6206H25.0155L25.2293 12.1279H27.1976V11.6461L27.4957 12.1279H29.073V8.94263H27.512V9.31879L27.2935 8.94263H25.6917V9.31879L25.491 8.94263H23.3274C22.9652 8.94263 22.6469 8.99174 22.3897 9.1286V8.94263H20.8966V9.1286C20.733 8.98753 20.51 8.94263 20.262 8.94263H14.8072L14.4412 9.76529L14.0653 8.94263H12.3472V9.31879L12.1584 8.94263H10.6932L10.0127 10.457V12.1278H10.0128L10.0128 12.1279ZM16.0728 11.6684H15.4968L15.4947 9.8798L14.68 11.6684H14.1866L13.3697 9.87821V11.6684H12.2269L12.011 11.159H10.8411L10.623 11.6684H10.0127L11.0189 9.38465H11.8538L12.8094 11.5469V9.38465H13.7265L14.4618 10.9339L15.1373 9.38465H16.0728L16.0728 11.6684ZM11.819 10.685L11.4344 9.7746L11.052 10.685H11.819ZM18.3651 11.6684H16.4881V9.38463H18.3651V9.86019H17.05V10.2719H18.3336V10.74H17.05V11.1961H18.3651L18.3651 11.6684ZM21.0103 9.99971C21.0103 10.3638 20.7601 10.5519 20.6144 10.6084C20.7373 10.6539 20.8424 10.7342 20.8923 10.8007C20.9717 10.9143 20.9854 11.0158 20.9854 11.2198V11.6684H20.4186L20.4165 11.3804C20.4165 11.243 20.43 11.0453 20.3278 10.9355C20.2457 10.8551 20.1205 10.8377 19.9182 10.8377H19.3151V11.6684H18.7532V9.38463H20.0455C20.3327 9.38463 20.5443 9.39198 20.7259 9.49401C20.9037 9.59603 21.0103 9.74496 21.0103 9.99971ZM20.3 10.3388C20.2228 10.3844 20.1315 10.3859 20.0221 10.3859H19.3395V9.8786H20.0313C20.1292 9.8786 20.2314 9.88286 20.2978 9.91978C20.3707 9.95306 20.4158 10.0239 20.4158 10.1217C20.4158 10.2215 20.3729 10.3018 20.3 10.3388ZM21.9114 11.6684H21.3381V9.38463H21.9114V11.6684ZM28.5668 11.6684H27.7706L26.7056 9.95429V11.6684H25.5613L25.3426 11.159H24.1754L23.9633 11.6684H23.3057C23.0326 11.6684 22.6868 11.6097 22.491 11.4158C22.2935 11.2219 22.1908 10.9592 22.1908 10.5439C22.1908 10.2052 22.2522 9.8956 22.4937 9.65092C22.6753 9.46866 22.9598 9.38463 23.347 9.38463H23.891V9.87397H23.3584C23.1533 9.87397 23.0375 9.90361 22.926 10.0093C22.8303 10.1054 22.7645 10.2872 22.7645 10.5266C22.7645 10.7712 22.8146 10.9477 22.919 11.0629C23.0055 11.1533 23.1627 11.1807 23.3106 11.1807H23.5629L24.3548 9.3847H25.1967L26.1481 11.5448V9.38473H27.0036L27.9913 10.9753V9.38473H28.5668V11.6684ZM25.1514 10.6851L24.7626 9.77463L24.3759 10.6851H25.1514ZM29.9986 15.3151C29.8621 15.509 29.5962 15.6073 29.2361 15.6073H28.151V15.1175H29.2317C29.3389 15.1175 29.4139 15.1038 29.4591 15.0609C29.5018 15.0226 29.5259 14.9685 29.5255 14.912C29.5255 14.8454 29.4983 14.7926 29.4569 14.7609C29.4161 14.726 29.3568 14.7102 29.2589 14.7102C28.7314 14.6928 28.0732 14.726 28.0732 14.0032C28.0732 13.6719 28.2896 13.3231 28.8793 13.3231H29.9985V12.8687H28.9586C28.6448 12.8687 28.4168 12.9417 28.2554 13.0552V12.8686H26.7173C26.4713 12.8686 26.1826 12.9279 26.046 13.0552V12.8686H23.2994V13.0552C23.0808 12.902 22.712 12.8686 22.5417 12.8686H20.73V13.0552C20.5571 12.8925 20.1725 12.8686 19.9381 12.8686H17.9104L17.4465 13.3565L17.0119 12.8686H13.9829V16.056H16.9547L17.4328 15.5604L17.8832 16.056L19.7151 16.0575V15.3078H19.8951C20.1381 15.3114 20.4248 15.3018 20.6777 15.1957V16.0559H22.1887V15.2251H22.2616C22.3546 15.2251 22.3637 15.2289 22.3637 15.3191V16.0558H26.9537C27.2451 16.0558 27.5497 15.9833 27.7185 15.8518V16.0558H29.1744C29.4773 16.0558 29.7732 16.0145 29.9983 15.9089L29.9984 15.315L29.9986 15.3151ZM20.8976 14.0891C20.8976 14.7237 20.4103 14.8547 19.9191 14.8547H19.218V15.6209H18.126L17.4341 14.8646L16.715 15.6209H14.4893V13.3365H16.7492L17.4405 14.0853L18.1553 13.3365H19.9507C20.3965 13.3365 20.8976 13.4565 20.8976 14.0891ZM16.4304 15.1404H15.0489V14.6859H16.2825V14.2198H15.0489V13.8045H16.4576L17.0722 14.4702L16.4304 15.1404ZM18.6563 15.402L17.7936 14.4714L18.6563 13.5705V15.402ZM19.9321 14.3862H19.206V13.8045H19.9386C20.1415 13.8045 20.2823 13.8849 20.2823 14.0846C20.2823 14.2822 20.148 14.3862 19.9321 14.3862ZM23.7362 13.3365H25.6115V13.809H24.2958V14.2243H25.5794V14.6903H24.2958V15.1448L25.6115 15.1469V15.6209H23.7362L23.7362 13.3365ZM23.0152 14.5593C23.1403 14.6042 23.2425 14.6845 23.2904 14.751C23.3698 14.8626 23.3813 14.9667 23.3835 15.168V15.6209H22.8194V15.3351C22.8194 15.1977 22.833 14.9942 22.7286 14.8879C22.6465 14.8061 22.5213 14.7866 22.3164 14.7866H21.7158V15.6209H21.1512V13.3366H22.4485C22.733 13.3366 22.9401 13.3488 23.1246 13.4444C23.3019 13.5485 23.4134 13.691 23.4134 13.9517C23.4134 14.3162 23.1631 14.5023 23.0152 14.5593ZM22.6976 14.2705C22.6225 14.3139 22.5295 14.3176 22.4203 14.3176H21.7376V13.8046H22.4295C22.5295 13.8046 22.6297 13.8067 22.6976 13.8458C22.7705 13.8828 22.814 13.9536 22.814 14.0513C22.814 14.149 22.7704 14.2277 22.6976 14.2705ZM27.7699 14.416C27.8794 14.526 27.938 14.6649 27.938 14.9C27.938 15.3914 27.6221 15.6208 27.0553 15.6208H25.9609V15.1309H27.0509C27.1575 15.1309 27.2331 15.1173 27.2804 15.0744C27.3191 15.0391 27.3468 14.9877 27.3468 14.9254C27.3468 14.8588 27.3168 14.806 27.2782 14.7743C27.2353 14.7395 27.176 14.7237 27.0782 14.7237C26.5527 14.7063 25.8946 14.7395 25.8946 14.0167C25.8946 13.6853 26.1089 13.3366 26.698 13.3366H27.8244V13.8228H26.7937C26.6916 13.8228 26.6251 13.8265 26.5686 13.864C26.5071 13.901 26.4843 13.9559 26.4843 14.0283C26.4843 14.1145 26.5365 14.1731 26.6072 14.1985C26.6665 14.2185 26.7302 14.2244 26.8258 14.2244L27.1283 14.2324C27.4333 14.2395 27.6427 14.2908 27.7699 14.416ZM29.9996 13.8045H28.9755C28.8733 13.8045 28.8053 13.8083 28.7482 13.8458C28.6889 13.8828 28.6661 13.9377 28.6661 14.0102C28.6661 14.0963 28.7161 14.1549 28.7889 14.1803C28.8482 14.2003 28.9118 14.2062 29.0054 14.2062L29.31 14.2141C29.6172 14.2215 29.8223 14.2728 29.9474 14.398C29.9703 14.4154 29.9839 14.4349 29.9995 14.4545V13.8045H29.9996Z" fill="white"/>
</g>
<defs>
<clipPath id="clip0_10001_1493">
<rect width="40" height="24" fill="white" transform="translate(0 0.5)"/>
</clipPath>
</defs>
</svg>
