<svg width="58" height="40" viewBox="0 0 58 40" fill="none" xmlns="http://www.w3.org/2000/svg">
<rect width="58" height="40" rx="4" fill="#1F72CD"/>
<path fill-rule="evenodd" clip-rule="evenodd" d="M10.1593 14.1667L4.85742 26.2446H11.2045L11.9913 24.3189H13.7899L14.5767 26.2446H21.5631V24.7748L22.1856 26.2446H25.7995L26.422 24.7438V26.2446H40.9517L42.7184 24.3689L44.3727 26.2446L51.8355 26.2601L46.5169 20.2394L51.8355 14.1667H44.4885L42.7686 16.0077L41.1664 14.1667H25.3601L24.0028 17.2841L22.6136 14.1667H16.2798V15.5864L15.5752 14.1667H10.1593ZM11.387 15.8818H14.4808L17.9975 24.0719V15.8818H21.3867L24.103 21.754L26.6063 15.8818H29.9786V24.5485H27.9266L27.9099 17.7573L24.9184 24.5485H23.0828L20.0745 17.7573V24.5485H15.8532L15.0529 22.6055H10.7293L9.93068 24.5468H7.66895L11.387 15.8818ZM40.2 15.8818H31.8563V24.5433H40.0708L42.7184 21.6728L45.2703 24.5433H47.938L44.0606 20.2377L47.938 15.8818H45.3861L42.7519 18.7194L40.2 15.8818ZM12.8924 17.3481L11.468 20.8093H14.3153L12.8924 17.3481ZM33.9168 19.2583V17.6762V17.6747H39.1229L41.3946 20.2049L39.0223 22.7489H33.9168V21.0217H38.4686V19.2583H33.9168Z" fill="white"/>
</svg>
