<svg width="58" height="40" viewBox="0 0 58 40" fill="none" xmlns="http://www.w3.org/2000/svg">
<rect x="0.5" y="0.5" width="57" height="39" rx="3.5" fill="white"/>
<rect x="0.5" y="0.5" width="57" height="39" rx="3.5" stroke="#E5E7EB"/>
<path fill-rule="evenodd" clip-rule="evenodd" d="M16.0077 13.9053C15.5155 14.4918 14.7279 14.9543 13.9403 14.8883C13.8418 14.0953 14.2274 13.2527 14.6787 12.7323C15.1709 12.1293 16.0323 11.6997 16.7297 11.6667C16.8117 12.4927 16.4918 13.3022 16.0077 13.9053ZM16.7209 15.0452C16.0271 15.005 15.394 15.2553 14.8826 15.4575C14.5535 15.5876 14.2748 15.6978 14.0628 15.6978C13.8249 15.6978 13.5347 15.5817 13.2089 15.4514C12.782 15.2806 12.2939 15.0854 11.7821 15.0948C10.6089 15.1113 9.51778 15.7804 8.91889 16.846C7.68828 18.9772 8.59893 22.1327 9.78852 23.8674C10.371 24.7265 11.0683 25.6682 11.9872 25.6352C12.3914 25.6198 12.6822 25.4956 12.9832 25.367C13.3296 25.219 13.6895 25.0652 14.2515 25.0652C14.794 25.0652 15.1382 25.215 15.4686 25.3587C15.7827 25.4954 16.0844 25.6267 16.5322 25.6186C17.4839 25.6021 18.0828 24.7596 18.6653 23.9005C19.2939 22.9784 19.5701 22.0786 19.612 21.942L19.617 21.9262C19.616 21.9252 19.6082 21.9216 19.5945 21.9153C19.3844 21.8184 17.7783 21.0781 17.7629 19.0928C17.7474 17.4265 19.0368 16.5823 19.2397 16.4494C19.2521 16.4413 19.2604 16.4358 19.2642 16.433C18.4438 15.2104 17.164 15.0782 16.7209 15.0452ZM23.3086 25.5278V12.6497H28.108C30.5856 12.6497 32.3166 14.3678 32.3166 16.879C32.3166 19.3902 30.5528 21.1249 28.0423 21.1249H25.294V25.5278H23.3086ZM25.2941 14.3348H27.583C29.3058 14.3348 30.2903 15.26 30.2903 16.8873C30.2903 18.5146 29.3058 19.448 27.5748 19.448H25.2941V14.3348ZM38.8724 23.9831C38.3473 24.9908 37.1905 25.6269 35.9435 25.6269C34.0976 25.6269 32.8096 24.52 32.8096 22.8514C32.8096 21.1993 34.0566 20.2493 36.3619 20.1089L38.8396 19.9602V19.2498C38.8396 18.2007 38.1586 17.6308 36.9444 17.6308C35.9435 17.6308 35.2134 18.1512 35.0657 18.9442H33.2772C33.3346 17.2755 34.8934 16.0613 37.0018 16.0613C39.2744 16.0613 40.7511 17.259 40.7511 19.1176V25.5278H38.9134V23.9831H38.8724ZM36.4763 24.0987C35.418 24.0987 34.7452 23.5866 34.7452 22.8018C34.7452 21.9923 35.3934 21.5214 36.6322 21.4471L38.8391 21.3067V22.0336C38.8391 23.2396 37.8218 24.0987 36.4763 24.0987ZM46.8459 26.0317C46.0501 28.2868 45.1395 29.0302 43.2033 29.0302C43.0556 29.0302 42.5634 29.0137 42.4485 28.9807V27.436C42.5716 27.4525 42.8752 27.469 43.031 27.469C43.9089 27.469 44.4011 27.0973 44.7047 26.1308L44.8851 25.5608L41.5215 16.1852H43.5971L45.9353 23.7931H45.9763L48.3144 16.1852H50.3326L46.8459 26.0317Z" fill="black"/>
</svg>
