<svg width="58" height="40" viewBox="0 0 58 40" fill="none" xmlns="http://www.w3.org/2000/svg">
<rect x="0.5" y="0.5" width="57" height="39" rx="3.5" fill="white"/>
<rect x="0.5" y="0.5" width="57" height="39" rx="3.5" stroke="#E5E7EB"/>
<path d="M42.4852 12.3967H31.1989L30.051 13.7286L26.3262 18.0506V18.0507L25.1784 19.3825H14.0413L15.1714 18.0338L15.7063 17.3954L16.8363 16.0466H11.7047C10.7671 16.0466 10 16.8573 10 17.8481V21.6492C10 22.6401 10.7671 23.4508 11.7047 23.4508H31.351C32.2886 23.4508 33.5692 22.8487 34.197 22.1128L37.1688 18.6291L42.4852 12.3967Z" fill="#005697"/>
<path d="M44.7532 8.33331C45.6907 8.33331 46.4578 9.14403 46.4578 10.1349V13.9359C46.4578 14.9267 45.6907 15.7376 44.7532 15.7376H39.6382L40.779 14.3989H40.7791L41.3447 13.7352L42.4855 12.3967H31.1993L25.1789 19.3876H13.9727L22.0092 10.0222L22.3133 9.66781C22.9432 8.93381 24.2257 8.33331 25.1632 8.33331H44.7532V8.33331Z" fill="#FBD500"/>
<path fill-rule="evenodd" clip-rule="evenodd" d="M13.8416 29.9125C13.8416 29.6644 13.7848 29.4496 13.6714 29.2682C13.5579 29.0868 13.4086 28.9484 13.2234 28.8529C13.4086 28.7575 13.5521 28.6165 13.6541 28.4304C13.7559 28.2443 13.8069 28.0343 13.8069 27.8005V27.6716C13.8069 27.3851 13.7536 27.1466 13.6472 26.9556C13.5406 26.7647 13.3911 26.6118 13.199 26.4973C13.0068 26.3827 12.7763 26.3005 12.5079 26.2503C12.2391 26.2001 11.9405 26.1752 11.6116 26.1752C11.5005 26.1752 11.3847 26.1775 11.2644 26.1823C11.1438 26.1871 11.0269 26.193 10.9136 26.2001C10.8 26.2073 10.6957 26.2158 10.601 26.2253C10.5059 26.2349 10.4283 26.2445 10.3681 26.2538C10.2338 26.2779 10.1389 26.3207 10.0834 26.3827C10.0278 26.4449 10 26.5571 10 26.7193V31.0725C10 31.2348 10.0289 31.3469 10.0868 31.4089C10.1447 31.4711 10.2431 31.5139 10.3821 31.5378C10.4515 31.5521 10.5349 31.564 10.6321 31.5737C10.7293 31.5832 10.8347 31.5915 10.9482 31.5986C11.0617 31.6058 11.1786 31.6117 11.299 31.6166C11.4195 31.6212 11.5375 31.6238 11.6533 31.6238C11.9544 31.6238 12.238 31.5998 12.5044 31.5521C12.7705 31.5045 13.0021 31.4196 13.199 31.2979C13.3959 31.1763 13.5521 31.0115 13.6679 30.804C13.7836 30.5963 13.8416 30.3349 13.8416 30.0199V29.9125ZM12.6604 27.8577C12.6604 27.9341 12.6488 28.0069 12.6256 28.0761C12.6024 28.1452 12.5643 28.2048 12.5111 28.2552C12.4577 28.3052 12.386 28.3458 12.2957 28.3767C12.2054 28.4078 12.0907 28.4232 11.9518 28.4232H11.1738V27.1846C11.1969 27.1846 11.2328 27.1836 11.2814 27.1811C11.3301 27.1787 11.381 27.1775 11.4342 27.1775H11.7017C12.0582 27.1775 12.3072 27.224 12.4485 27.3171C12.5897 27.4102 12.6604 27.5545 12.6604 27.7502V27.8577ZM12.4832 30.4566C12.6198 30.3469 12.6882 30.1917 12.6882 29.9913V29.9125C12.6882 29.7406 12.6348 29.5915 12.5284 29.465C12.4218 29.3386 12.2296 29.2753 11.9518 29.2753H11.1738V30.6141H11.2953C11.3485 30.6141 11.4041 30.6156 11.462 30.6178C11.5199 30.6202 11.5754 30.6215 11.6288 30.6215H11.7433C12.0999 30.6215 12.3466 30.5665 12.4832 30.4566ZM17.649 28.86C17.649 28.5976 17.6107 28.3743 17.5343 28.1906C17.458 28.007 17.3502 27.8565 17.2113 27.7395C17.0724 27.6226 16.9022 27.5368 16.7006 27.4818C16.4993 27.427 16.2735 27.3995 16.0234 27.3995C15.7917 27.3995 15.5659 27.4163 15.3461 27.4497C15.126 27.483 14.9511 27.5165 14.8216 27.5498C14.7336 27.5739 14.6896 27.6262 14.6896 27.7072V28.2872C14.6896 28.3351 14.7011 28.3685 14.7244 28.3874C14.7474 28.4066 14.7774 28.4163 14.8147 28.4163H14.8493C14.905 28.4113 14.9743 28.4054 15.0577 28.3983C15.1411 28.3911 15.2349 28.3853 15.3392 28.3803C15.4433 28.3757 15.5521 28.3721 15.6656 28.3696C15.779 28.3672 15.8914 28.366 16.0026 28.366C16.1646 28.366 16.292 28.3971 16.3846 28.4591C16.4772 28.5212 16.5235 28.6549 16.5235 28.86V29.1178H16.1484C15.5509 29.1178 15.1167 29.2145 14.8458 29.4078C14.5749 29.601 14.4395 29.9077 14.4395 30.3278V30.3924C14.4395 30.6261 14.4731 30.8218 14.5401 30.9792C14.6072 31.1368 14.6965 31.2634 14.8076 31.359C14.9188 31.4543 15.0449 31.5223 15.1863 31.5628C15.3275 31.6034 15.4746 31.6237 15.6274 31.6237C15.8358 31.6237 16.0153 31.595 16.1657 31.5378C16.3162 31.4806 16.4586 31.4018 16.593 31.3016V31.416C16.593 31.4543 16.6069 31.4877 16.6347 31.5163C16.6626 31.5449 16.6949 31.5592 16.7319 31.5592H17.51C17.547 31.5592 17.5794 31.5449 17.6073 31.5163C17.6351 31.4877 17.649 31.4543 17.649 31.416V28.86ZM16.277 30.7035C16.3718 30.6726 16.4611 30.6356 16.5444 30.5926V29.8051H16.1485C16.028 29.8051 15.9285 29.8158 15.8497 29.8372C15.7709 29.8588 15.7083 29.891 15.6622 29.934C15.6159 29.9768 15.5834 30.0318 15.565 30.0986C15.5463 30.1655 15.5371 30.2418 15.5371 30.3277V30.3924C15.5371 30.5449 15.5729 30.6427 15.6447 30.6857C15.7166 30.7287 15.8265 30.7501 15.9748 30.7501C16.0812 30.7501 16.1819 30.7348 16.277 30.7035ZM21.9001 31.4089V29.0246C21.9001 28.8005 21.8828 28.5891 21.848 28.3911C21.8132 28.1932 21.7508 28.0212 21.6605 27.8755C21.5702 27.7299 21.4451 27.6141 21.2853 27.5283C21.1256 27.4424 20.9206 27.3994 20.6705 27.3994C20.4482 27.3994 20.2513 27.4271 20.08 27.4824C19.9086 27.5377 19.728 27.6351 19.5382 27.7746V27.601C19.5382 27.5627 19.5242 27.5289 19.4965 27.5001C19.4687 27.4713 19.4362 27.4567 19.3991 27.4567H18.6212C18.584 27.4567 18.5517 27.471 18.524 27.4997C18.4961 27.5283 18.4823 27.5618 18.4823 27.5999V31.4089C18.4823 31.4471 18.4971 31.4817 18.5274 31.5127C18.5574 31.5437 18.591 31.5592 18.6281 31.5592H19.4687C19.5057 31.5592 19.5382 31.5437 19.5659 31.5128C19.5937 31.4819 19.6076 31.4474 19.6076 31.4092V28.5945C19.728 28.5279 19.8414 28.4732 19.948 28.4303C20.0545 28.3874 20.1586 28.366 20.2606 28.366C20.3671 28.366 20.4539 28.3767 20.5212 28.3982C20.5882 28.4196 20.6403 28.4565 20.6774 28.5091C20.7145 28.5613 20.74 28.6303 20.7538 28.716C20.7677 28.8017 20.7748 28.9066 20.7748 29.0304V31.4092C20.7748 31.4474 20.7886 31.4819 20.8164 31.5128C20.8441 31.5437 20.8764 31.5592 20.9137 31.5592H21.7542C21.7912 31.5592 21.8248 31.5437 21.8549 31.5127C21.8851 31.4817 21.9001 31.4471 21.9001 31.4089ZM25.3183 30.7146V31.3517C25.3183 31.4042 25.3067 31.4412 25.2836 31.4626C25.2604 31.4841 25.2233 31.502 25.1724 31.5163C25.0751 31.5402 24.9489 31.564 24.7938 31.5881C24.6386 31.6117 24.4569 31.6237 24.2484 31.6237C23.7575 31.6237 23.365 31.4687 23.071 31.1582C22.7769 30.8481 22.6299 30.3994 22.6299 29.8123V29.2109C22.6299 28.6238 22.7769 28.1751 23.071 27.865C23.365 27.5545 23.7575 27.3995 24.2484 27.3995C24.4569 27.3995 24.6386 27.4114 24.7938 27.4352C24.9489 27.4592 25.0751 27.483 25.1724 27.5068C25.2233 27.5211 25.2604 27.5391 25.2836 27.5605C25.3067 27.582 25.3183 27.6191 25.3183 27.6715V28.3088C25.3183 28.347 25.3055 28.3767 25.2801 28.3983C25.2546 28.4197 25.2233 28.4304 25.1864 28.4304H25.1724C25.0427 28.4163 24.9189 28.4042 24.8008 28.3947C24.6826 28.3853 24.5239 28.3803 24.3249 28.3803C24.2461 28.3803 24.1721 28.3935 24.1026 28.4197C24.033 28.446 23.9729 28.4913 23.922 28.5557C23.8709 28.6202 23.8305 28.706 23.8004 28.8135C23.7702 28.9209 23.7552 29.0533 23.7552 29.2109V29.8123C23.7552 29.9697 23.7702 30.1022 23.8004 30.2097C23.8305 30.317 23.8709 30.403 23.922 30.4674C23.9729 30.5319 24.033 30.5772 24.1026 30.6034C24.1721 30.6297 24.2461 30.6428 24.3249 30.6428C24.5239 30.6428 24.6826 30.638 24.8008 30.6285C24.9189 30.619 25.0427 30.607 25.1724 30.5927H25.1864C25.2233 30.5927 25.2546 30.6034 25.2801 30.625C25.3055 30.6465 25.3183 30.6762 25.3183 30.7146ZM29.174 29.261C29.174 28.9745 29.1356 28.7169 29.059 28.4878C28.9824 28.2587 28.8711 28.0642 28.7249 27.9042C28.5788 27.7444 28.3978 27.6203 28.1821 27.5319C27.9663 27.4438 27.7168 27.3995 27.4337 27.3995C27.1507 27.3995 26.9013 27.4438 26.6855 27.5319C26.4697 27.6203 26.2875 27.7444 26.139 27.9042C25.9905 28.0642 25.8779 28.2587 25.8015 28.4878C25.7248 28.7169 25.6865 28.9745 25.6865 29.261V29.7622C25.6865 30.0485 25.7248 30.3063 25.8015 30.5354C25.8779 30.7646 25.9905 30.959 26.139 31.119C26.2875 31.279 26.4697 31.403 26.6855 31.4913C26.9013 31.5794 27.1507 31.6237 27.4337 31.6237C27.7168 31.6237 27.9663 31.5794 28.1821 31.4913C28.3978 31.403 28.5788 31.279 28.7249 31.119C28.8711 30.959 28.9824 30.7646 29.059 30.5354C29.1356 30.3063 29.174 30.0485 29.174 29.7622V29.261ZM27.4334 30.6428C27.8432 30.6428 28.0482 30.3493 28.0482 29.7622V29.261C28.0482 28.6786 27.8432 28.3874 27.4334 28.3874C27.2307 28.3874 27.0765 28.4602 26.9706 28.6058C26.8646 28.7515 26.8117 28.9699 26.8117 29.261V29.7622C26.8117 30.0533 26.8646 30.2729 26.9706 30.4208C27.0765 30.5689 27.2307 30.6428 27.4334 30.6428ZM33.3068 31.4089V29.0246C33.3068 28.8005 33.2892 28.5891 33.2547 28.3911C33.22 28.1932 33.1574 28.0212 33.0669 27.8755C32.9766 27.7299 32.8517 27.6141 32.692 27.5283C32.5322 27.4424 32.3272 27.3994 32.0772 27.3994C31.8549 27.3994 31.658 27.4271 31.4866 27.4824C31.3152 27.5377 31.1346 27.6351 30.9448 27.7746V27.601C30.9448 27.5627 30.9309 27.5289 30.903 27.5001C30.8754 27.4713 30.8428 27.4567 30.8059 27.4567H30.0278C29.9907 27.4567 29.9584 27.471 29.9305 27.4997C29.9028 27.5283 29.8889 27.5618 29.8889 27.5999V31.4089C29.8889 31.4471 29.9039 31.4817 29.934 31.5127C29.9642 31.5437 29.9976 31.5592 30.0348 31.5592H30.8754C30.9123 31.5592 30.9448 31.5437 30.9726 31.5128C31.0003 31.4819 31.0143 31.4474 31.0143 31.4092V28.5945C31.1346 28.5279 31.2482 28.4732 31.3546 28.4303C31.4612 28.3874 31.5654 28.366 31.6674 28.366C31.7738 28.366 31.8607 28.3767 31.9277 28.3982C31.9948 28.4196 32.047 28.4565 32.0841 28.5091C32.1212 28.5613 32.1466 28.6303 32.1606 28.716C32.1744 28.8017 32.1813 28.9066 32.1813 29.0304V31.4092C32.1813 31.4474 32.1952 31.4819 32.223 31.5128C32.2509 31.5437 32.2832 31.5592 32.3203 31.5592H33.1608C33.1979 31.5592 33.2315 31.5437 33.2617 31.5127C33.2917 31.4817 33.3068 31.4471 33.3068 31.4089ZM36.3356 30.8708V31.4249C36.3356 31.5054 36.2916 31.5528 36.2036 31.5668C36.097 31.5858 36.0044 31.5999 35.9258 31.6094C35.847 31.6189 35.7566 31.6237 35.6549 31.6237C35.4659 31.6237 35.299 31.6081 35.154 31.5772C35.009 31.5461 34.888 31.4853 34.7914 31.3946C34.6948 31.3039 34.6211 31.1786 34.5705 31.0186C34.52 30.8588 34.4946 30.6526 34.4946 30.3994V28.3231L33.939 28.2299C33.9017 28.2204 33.8683 28.2026 33.8381 28.1763C33.808 28.1501 33.793 28.1178 33.793 28.0796V27.607C33.793 27.5689 33.808 27.5343 33.8381 27.5032C33.8683 27.4723 33.9017 27.4567 33.939 27.4567H34.4946V26.8696C34.4946 26.8314 34.5085 26.8004 34.536 26.7765C34.5634 26.7527 34.5959 26.7361 34.6328 26.7264L35.4751 26.5762H35.4957C35.5325 26.5762 35.5625 26.5868 35.5856 26.6082C35.6086 26.6298 35.6201 26.6596 35.6201 26.6977V27.4567H36.1898C36.2267 27.4567 36.2591 27.4711 36.287 27.4999C36.3148 27.5288 36.3287 27.5627 36.3287 27.601V28.1858C36.3287 28.2244 36.3148 28.258 36.287 28.2869C36.2591 28.3157 36.2267 28.3301 36.1898 28.3301H35.6201V30.4137C35.6201 30.5568 35.6316 30.6489 35.6549 30.6893C35.6779 30.7299 35.7427 30.7501 35.8492 30.7501H36.1898C36.287 30.7501 36.3356 30.7904 36.3356 30.8708ZM40.0454 28.86C40.0454 28.5976 40.0073 28.3743 39.9307 28.1905C39.8544 28.0069 39.7468 27.8565 39.6078 27.7395C39.4689 27.6226 39.2987 27.5368 39.0972 27.4818C38.8958 27.427 38.67 27.3994 38.4199 27.3994C38.1881 27.3994 37.9625 27.4162 37.7426 27.4497C37.5225 27.483 37.3477 27.5165 37.2181 27.5498C37.1298 27.5738 37.0861 27.6262 37.0861 27.7072V28.2872C37.0861 28.3351 37.0975 28.3685 37.1207 28.3874C37.144 28.4066 37.174 28.4162 37.2111 28.4162H37.2458C37.3015 28.4113 37.3709 28.4054 37.4543 28.3982C37.5376 28.3911 37.6314 28.3853 37.7356 28.3802C37.8399 28.3756 37.9486 28.3721 38.0622 28.3695C38.1755 28.3672 38.2879 28.366 38.399 28.366C38.5611 28.366 38.6885 28.397 38.7811 28.459C38.8737 28.5212 38.92 28.6548 38.92 28.86V29.1178H38.545C37.9473 29.1178 37.5133 29.2145 37.2424 29.4077C36.9714 29.601 36.836 29.9077 36.836 30.3277V30.3924C36.836 30.6261 36.8695 30.8218 36.9367 30.9792C37.0036 31.1368 37.0931 31.2633 37.2041 31.3589C37.3153 31.4542 37.4414 31.5223 37.5828 31.5628C37.724 31.6033 37.871 31.6237 38.0239 31.6237C38.2324 31.6237 38.4117 31.595 38.5623 31.5378C38.7127 31.4805 38.855 31.4017 38.9896 31.3015V31.416C38.9896 31.4542 39.0034 31.4877 39.0313 31.5162C39.059 31.5449 39.0914 31.5592 39.1285 31.5592H39.9066C39.9435 31.5592 39.976 31.5449 40.0038 31.5162C40.0315 31.4877 40.0454 31.4542 40.0454 31.416V28.86ZM38.6735 30.7036C38.7683 30.6726 38.8576 30.6356 38.9409 30.5926V29.8051H38.545C38.4245 29.8051 38.325 29.8158 38.2462 29.8372C38.1674 29.8588 38.1048 29.8911 38.0587 29.934C38.0122 29.9768 37.9798 30.0319 37.9615 30.0986C37.9428 30.1655 37.9336 30.2418 37.9336 30.3277V30.3924C37.9336 30.5449 37.9694 30.6427 38.0412 30.6857C38.1131 30.7287 38.223 30.7501 38.3713 30.7501C38.4777 30.7501 38.5783 30.7348 38.6735 30.7036ZM43.4629 31.3517V30.7146C43.4629 30.6762 43.45 30.6465 43.4246 30.625C43.3991 30.6034 43.368 30.5927 43.3309 30.5927H43.317C43.1874 30.607 43.0634 30.619 42.9453 30.6285C42.8273 30.638 42.6686 30.6428 42.4695 30.6428C42.3906 30.6428 42.3165 30.6297 42.2472 30.6034C42.1777 30.5772 42.1174 30.5319 42.0665 30.4674C42.0156 30.403 41.975 30.317 41.945 30.2097C41.9147 30.1022 41.8999 29.9697 41.8999 29.8123V29.2109C41.8999 29.0533 41.9147 28.9209 41.945 28.8135C41.975 28.706 42.0156 28.6202 42.0665 28.5557C42.1174 28.4913 42.1777 28.446 42.2472 28.4197C42.3165 28.3935 42.3906 28.3803 42.4695 28.3803C42.6686 28.3803 42.8273 28.3853 42.9453 28.3947C43.0634 28.4042 43.1874 28.4163 43.317 28.4304H43.3309C43.368 28.4304 43.3991 28.4197 43.4246 28.3983C43.45 28.3767 43.4629 28.347 43.4629 28.3088V27.6715C43.4629 27.6191 43.4513 27.582 43.4281 27.5605C43.4047 27.5391 43.368 27.5211 43.317 27.5068C43.2198 27.483 43.0934 27.4592 42.9384 27.4352C42.7831 27.4114 42.6015 27.3995 42.3931 27.3995C41.9019 27.3995 41.5097 27.5545 41.2155 27.865C40.9214 28.1751 40.7744 28.6238 40.7744 29.2109V29.8123C40.7744 30.3994 40.9214 30.8481 41.2155 31.1582C41.5097 31.4687 41.9019 31.6237 42.3931 31.6237C42.6015 31.6237 42.7831 31.6117 42.9384 31.5881C43.0934 31.564 43.2198 31.5402 43.317 31.5163C43.368 31.502 43.4047 31.4841 43.4281 31.4626C43.4513 31.4412 43.4629 31.4042 43.4629 31.3517ZM46.4577 30.8708V31.4249C46.4577 31.5054 46.4135 31.5528 46.3257 31.5668C46.2191 31.5858 46.1265 31.5999 46.0478 31.6094C45.9689 31.6189 45.8786 31.6237 45.7769 31.6237C45.588 31.6237 45.4211 31.6081 45.2761 31.5772C45.131 31.5461 45.0101 31.4853 44.9136 31.3946C44.8169 31.3039 44.7432 31.1786 44.6926 31.0186C44.6421 30.8588 44.6167 30.6526 44.6167 30.3994V28.3231L44.061 28.2299C44.0238 28.2204 43.9903 28.2026 43.9602 28.1763C43.93 28.1501 43.915 28.1178 43.915 28.0796V27.607C43.915 27.5689 43.93 27.5343 43.9602 27.5032C43.9903 27.4723 44.0238 27.4567 44.061 27.4567H44.6167V26.8696C44.6167 26.8314 44.6305 26.8004 44.6581 26.7765C44.6855 26.7527 44.7178 26.7361 44.7547 26.7264L45.597 26.5762H45.6178C45.6546 26.5762 45.6846 26.5868 45.7074 26.6082C45.7306 26.6298 45.7422 26.6596 45.7422 26.6977V27.4567H46.3118C46.3487 27.4567 46.3812 27.4711 46.409 27.4999C46.4367 27.5288 46.4507 27.5627 46.4507 27.601V28.1858C46.4507 28.2244 46.4367 28.258 46.409 28.2869C46.3812 28.3157 46.3487 28.3301 46.3118 28.3301H45.7422V30.4137C45.7422 30.5568 45.7537 30.6489 45.7769 30.6893C45.8 30.7299 45.8648 30.7501 45.9714 30.7501H46.3118C46.409 30.7501 46.4577 30.7904 46.4577 30.8708Z" fill="#005697"/>
</svg>
