<svg width="58" height="40" viewBox="0 0 58 40" fill="none" xmlns="http://www.w3.org/2000/svg">
<rect x="0.5" y="0.5" width="57" height="39" rx="3.5" fill="white"/>
<rect x="0.5" y="0.5" width="57" height="39" rx="3.5" stroke="#E5E7EB"/>
<path d="M21.8277 7.82651C28.36 4.13906 36.6448 6.44574 40.3325 12.9784C44.02 19.5109 41.7142 27.7961 35.182 31.4835C28.6498 35.1709 20.3648 32.8641 16.6771 26.3317C12.9895 19.7991 15.2954 11.514 21.8277 7.82651ZM24.7068 14.8081L21.7118 15.6431L22.1487 17.2255C22.1686 17.2196 23.2397 16.9008 23.2277 16.9259C23.8295 16.7598 24.1213 17.0526 24.2607 17.3375L26.0965 24.0064C26.1216 24.2019 26.0928 24.5344 25.6724 24.6518C25.6962 24.6627 24.5926 24.9518 24.5926 24.9518L24.7845 26.8037L27.781 25.9813L28.4597 28.4432L29.9446 28.0322L29.2737 25.5962C29.6832 25.4909 30.0797 25.3854 30.4646 25.2783L31.131 27.7023L32.6167 27.2909L31.9417 24.8336C34.4007 23.9974 35.977 22.8851 35.5497 20.4857C35.1344 18.885 34.0855 17.9593 32.5738 18.013C33.3159 17.3366 33.6432 16.4165 33.164 15.1668C32.5113 13.459 30.8294 13.2924 28.8651 13.6562L28.1947 11.221L26.709 11.6324L27.3621 14.0033C26.9719 14.1115 26.5738 14.2297 26.1787 14.3484L25.5226 11.9623L24.0377 12.3733L24.7068 14.8081ZM27.9201 20.5323C28.928 20.2531 32.0059 19.0891 32.5342 21.0082C33.0407 22.8476 29.8243 23.5141 28.8171 23.794L27.9201 20.5323ZM26.6944 16.0803C27.5342 15.8481 30.0958 14.8523 30.5768 16.5969C31.0366 18.2698 28.3483 18.8061 27.5092 19.0396L26.6944 16.0803Z" fill="#8FC258"/>
</svg>
