<svg width="58" height="40" viewBox="0 0 58 40" fill="none" xmlns="http://www.w3.org/2000/svg">
<rect x="0.5" y="0.5" width="57" height="39" rx="3.5" fill="white"/>
<rect x="0.5" y="0.5" width="57" height="39" rx="3.5" stroke="#E5E7EB"/>
<path d="M28.2246 6.66669C35.5284 6.66669 41.45 12.5875 41.4502 19.8913C41.4502 27.1953 35.5286 33.1169 28.2246 33.1169C20.9208 33.1167 15 27.1951 15 19.8913C15.0002 12.5876 20.921 6.6669 28.2246 6.66669ZM27.3242 13.9645L24.3857 13.239L23.998 14.7897C24.0162 14.7939 25.063 15.0327 25.0566 15.0515C25.6467 15.1987 25.7536 15.5878 25.7354 15.8962L24.0996 22.4294C24.0273 22.6072 23.8439 22.8748 23.4316 22.7731C23.4466 22.7938 22.3721 22.5104 22.3721 22.5104L21.6484 24.1725L24.583 24.9099L23.9805 27.322L25.4355 27.6843L26.0332 25.2975C26.4306 25.4041 26.8168 25.504 27.1943 25.5974L26.5996 27.9724L28.0566 28.3347L28.6602 25.9274C31.1455 26.3954 33.0145 26.2072 33.8008 23.9684C34.2148 22.4125 33.7684 21.125 32.4609 20.447C33.4139 20.2287 34.1314 19.6051 34.3232 18.3161C34.5871 16.5559 33.2418 15.6099 31.4023 14.9782L31.999 12.5925L30.542 12.2302L29.9609 14.5534C29.5784 14.4584 29.1847 14.3684 28.793 14.28L29.3779 11.9421L27.9219 11.5798L27.3242 13.9645ZM27.3076 20.3561C28.2956 20.6017 31.4634 21.0875 30.9932 22.9675C30.542 24.7693 27.4957 23.7952 26.5078 23.5505L27.3076 20.3561ZM28.3994 15.9948C29.2222 16.1999 31.8706 16.581 31.4434 18.2907C31.0321 19.9288 28.4966 19.0977 27.6738 18.8942L28.3994 15.9948Z" fill="#F7931A"/>
</svg>
