<svg width="58" height="40" viewBox="0 0 58 40" fill="none" xmlns="http://www.w3.org/2000/svg">
<rect x="0.5" y="0.5" width="57" height="39" rx="3.5" fill="white"/>
<rect x="0.5" y="0.5" width="57" height="39" rx="3.5" stroke="#E5E7EB"/>
<path d="M45.5469 16.5211L45.1006 18.4742L44.4248 21.4176C44.3633 21.6631 44.325 21.8929 44.3096 22.1061C44.2942 22.3195 44.3191 22.5034 44.3857 22.6578C44.4523 22.8126 44.5675 22.9329 44.7314 23.0182C44.8952 23.1037 45.1212 23.1461 45.4082 23.1461C45.654 23.1461 45.8926 23.1218 46.123 23.0739C46.2457 23.0483 46.3691 23.0154 46.4932 22.9791L46.6709 22.1989H46.6689L47.9639 16.526H50.1904L49.8975 17.8112C49.8993 17.812 49.9014 17.8131 49.9033 17.8141L48.3623 24.5573C48.2127 25.2321 48.0157 25.816 47.7715 26.3092C47.5271 26.8018 47.2231 27.2118 46.8594 27.5387C46.4953 27.8658 46.0584 28.1101 45.5498 28.2711C45.0413 28.4319 44.4474 28.5123 43.7695 28.5123C43.4069 28.5123 43.0785 28.4917 42.7822 28.4518L43.2207 26.5328C43.4449 26.5651 43.6926 26.5817 43.9648 26.5817C44.6028 26.5816 45.084 26.4333 45.4082 26.1373C45.732 25.8416 45.9335 25.4628 46.0332 24.9957L46.0342 24.9918C46.0202 24.9954 46.0065 24.9992 45.9922 25.0026C45.6336 25.0879 45.2084 25.1305 44.7168 25.1305C44.0101 25.1305 43.4615 25.0206 43.0723 24.8024C42.6827 24.5838 42.406 24.2847 42.2422 23.9059C42.0782 23.5275 42.0056 23.0928 42.0264 22.6022C42.0468 22.1117 42.1193 21.5943 42.2422 21.0504L43.2715 16.5211H45.5469ZM30.0684 16.527C30.6312 16.527 31.1163 16.6158 31.5234 16.7936C31.9306 16.9716 32.2648 17.2146 32.5264 17.5231C32.7876 17.8319 32.9806 18.1938 33.1064 18.6071C33.2319 19.0207 33.2949 19.4624 33.2949 19.9332C33.2949 20.6973 33.1748 21.396 32.9336 22.0289C32.6924 22.6623 32.3578 23.2093 31.9307 23.6696C31.5032 24.1302 30.9905 24.4884 30.3926 24.7448C29.7944 25.001 29.1431 25.1295 28.4395 25.1295C28.0977 25.1295 27.7556 25.0986 27.4141 25.0358L26.7354 27.8766H24.5039L27.0947 16.527C27.4722 16.5267 29.4653 16.527 30.0684 16.527ZM17.7158 25.1315H15.4893L17.4551 16.5211H19.6816L17.7158 25.1315ZM23.2734 16.524H25.8242L25.3633 18.4762H22.8271L22.1514 21.4196C22.0899 21.6651 22.0515 21.8948 22.0361 22.108C22.0209 22.3213 22.0456 22.5054 22.1123 22.6598C22.1788 22.8145 22.2948 22.9349 22.459 23.0201C22.6226 23.1055 22.8481 23.1481 23.1348 23.1481C23.3806 23.1481 23.6191 23.1238 23.8496 23.0758C24.0003 23.0445 24.1569 23.0071 24.3125 22.9518L23.8486 24.9713C23.8122 24.9805 23.7558 24.9947 23.7188 25.0035C23.3601 25.0888 22.935 25.1315 22.4434 25.1315C21.7365 25.1315 21.188 25.0227 20.7988 24.8043C20.4093 24.5858 20.1325 24.2866 19.9688 23.9078C19.8048 23.5294 19.7332 23.0948 19.7539 22.6041C19.7743 22.1137 19.8458 21.5954 19.9688 21.0514L21.4746 14.4274L23.8574 14.0436L23.2734 16.524ZM11.2861 16.819C11.4859 16.7253 11.6749 16.6583 11.875 16.6061C12.0747 16.5541 12.2896 16.528 12.5195 16.528C12.9995 16.528 13.4145 16.6167 13.7646 16.7936C14.1143 16.9705 14.4038 17.2097 14.6338 17.5114C14.8636 17.8133 15.0344 18.1669 15.1445 18.5729C15.2544 18.9788 15.3096 19.4161 15.3096 19.8844C15.3096 20.6025 15.1817 21.2815 14.9268 21.9215C14.6718 22.5616 14.3245 23.1188 13.8848 23.5924C13.4448 24.066 12.925 24.4408 12.3252 24.7164C11.7254 24.9921 11.0747 25.1305 10.375 25.1305C10.285 25.1305 10.1278 25.1277 9.90332 25.1227C9.67843 25.1173 9.42061 25.0939 9.13086 25.0524C8.84088 25.0106 8.53277 24.9481 8.20801 24.8649C7.88304 24.7817 7.5759 24.6669 7.28613 24.5211L9.88086 13.1715L12.2051 12.7965L11.2861 16.819ZM40.8506 21.3717C40.7106 21.9644 40.6705 22.5601 40.7305 23.1578C40.7906 23.7559 41.0095 24.672 41.2236 25.1305H39.0693C38.8061 24.6669 38.8174 24.4491 38.7676 24.3033C38.488 24.5425 38.179 24.7403 37.8398 24.8961C37.5003 25.052 37.1205 25.1305 36.7012 25.1305C36.2019 25.1305 35.7742 25.0388 35.4199 24.8571C35.0656 24.6753 34.7763 24.4311 34.5518 24.1246C34.327 23.8181 34.164 23.4592 34.0645 23.0485C33.9645 22.638 33.9151 22.1987 33.915 21.7311C33.915 21.0138 34.0373 20.3378 34.2822 19.7037C34.5268 19.0696 34.8664 18.5157 35.3008 18.0426C35.7352 17.5695 36.7838 16.527 38.5039 16.527C39.2473 16.527 40.2464 16.526 41.958 16.526L40.8506 21.3717ZM27.8213 23.152C27.9922 23.194 28.2036 23.2145 28.4551 23.2145C28.847 23.2144 29.2036 23.1386 29.5254 22.9869C29.847 22.8353 30.1214 22.6235 30.3477 22.3512C30.5739 22.0791 30.7492 21.7519 30.875 21.3698C31.0005 20.9878 31.0635 20.5667 31.0635 20.1061C31.0635 19.6562 30.9682 19.2735 30.7773 18.9596C30.5862 18.6457 30.2507 18.4792 29.7783 18.4772C29.448 18.4759 28.8994 18.4762 28.8994 18.4762L27.8213 23.152ZM11.9277 18.4762C11.7877 18.4762 11.6427 18.4897 11.418 18.5416C11.193 18.5939 10.9982 18.7024 10.8184 18.8688L9.84082 23.151C10.13 23.2037 10.2307 23.2096 10.3008 23.2096H10.5703C10.9199 23.2096 11.2498 23.1218 11.5596 22.9449C11.8694 22.7681 12.1373 22.5306 12.3623 22.234C12.5871 21.9373 12.7645 21.6018 12.8945 21.2272C13.0243 20.8525 13.0898 20.4623 13.0898 20.0563C13.0898 19.5567 13.0094 19.1663 12.8496 18.8854C12.6896 18.6043 12.3573 18.4762 11.9277 18.4762ZM39.2695 18.4762C38.2313 18.4762 38.0328 18.476 37.6074 18.7057C37.3055 18.8686 37.0554 19.1133 36.8359 19.399C36.6162 19.6849 36.444 20.0152 36.3193 20.3893C36.1943 20.7637 36.1318 21.1538 36.1318 21.5592C36.1318 22.0581 36.2112 22.4538 36.3711 22.7448C36.5306 23.0357 36.8257 23.1812 37.2549 23.1813C37.4845 23.1813 37.6921 23.1343 37.877 23.0406C38.0616 22.9471 38.2591 22.7911 38.4688 22.5729C38.4887 22.3134 38.5205 22.0404 38.5654 21.7545C38.6103 21.4688 38.6677 21.2029 38.7178 20.9635L39.2695 18.4762ZM19.9121 15.526H17.6855L18.0273 14.0299H20.2539L19.9121 15.526Z" fill="#002855"/>
</svg>
