<svg width="58" height="40" viewBox="0 0 58 40" fill="none" xmlns="http://www.w3.org/2000/svg">
<rect x="0.5" y="0.5" width="57" height="39" rx="3.5" fill="white"/>
<rect x="0.5" y="0.5" width="57" height="39" rx="3.5" stroke="#E5E7EB"/>
<path d="M30.7241 8.0018C37.4781 7.89673 42.9661 13.3597 43.0718 20.0838V20.1893C42.8606 26.8084 37.4781 32.1668 30.7241 32.1668H26.398C19.855 32.0618 14.5787 26.7033 14.5786 20.1893C14.3676 13.6754 19.4324 8.21217 25.8696 8.0018H30.7241ZM26.7134 10.1024C21.2259 10.1025 16.6881 14.6205 16.688 20.0838C16.688 25.5472 21.2258 30.0652 26.7134 30.0653C32.2011 30.0653 36.7388 25.5473 36.7388 20.0838C36.7387 14.6205 32.201 10.1024 26.7134 10.1024ZM25.1304 26.8084C21.4369 25.8628 19.2208 22.0804 20.1704 18.4032C20.8036 15.9867 22.7032 14.0951 25.1304 13.4647V26.8084ZM28.2964 13.4647C31.99 14.4103 34.3116 18.0882 33.3618 21.7655C32.7285 24.2869 30.829 26.1781 28.2964 26.8084V13.4647Z" fill="#0079BE"/>
</svg>
