<svg width="40" height="25" viewBox="0 0 40 25" fill="none" xmlns="http://www.w3.org/2000/svg">
<g clip-path="url(#clip0_10001_1498)">
<path d="M29.1539 12.5609C29.1539 8.385 25.5357 5.49874 21.5713 5.5H18.1597C14.1481 5.49861 10.8462 8.38588 10.8462 12.5609C10.8462 16.3803 14.1482 19.5184 18.1597 19.4999H21.5713C25.5354 19.5183 29.1539 16.3793 29.1539 12.5609Z" fill="#0079BE"/>
<path d="M18.1854 6.09155C14.5197 6.09264 11.5494 8.96076 11.5481 12.5005C11.549 16.0397 14.5194 18.9074 18.1854 18.9086C21.8519 18.9076 24.8231 16.0397 24.8235 12.5005C24.823 8.96067 21.852 6.09281 18.1854 6.09155Z" fill="white"/>
<path d="M13.989 12.483C13.9925 10.7533 15.1117 9.27826 16.6898 8.69214V16.273C15.1117 15.6872 13.9925 14.2129 13.989 12.483ZM19.701 16.2749V8.69235C21.2798 9.27709 22.4007 10.7529 22.4035 12.4835C22.4007 14.2145 21.2798 15.6893 19.701 16.2751V16.2749Z" fill="#0079BE"/>
</g>
<defs>
<clipPath id="clip0_10001_1498">
<rect width="40" height="24" fill="white" transform="translate(0 0.5)"/>
</clipPath>
</defs>
</svg>
