<svg width="58" height="40" viewBox="0 0 58 40" fill="none" xmlns="http://www.w3.org/2000/svg">
<rect x="0.5" y="0.5" width="57" height="39" rx="3.5" fill="white"/>
<rect x="0.5" y="0.5" width="57" height="39" rx="3.5" stroke="#E5E7EB"/>
<path d="M37 39L56 33.25V36C56 37.6569 54.6569 39 53 39H37Z" fill="#FD6020"/>
<path d="M23.6406 15.1844C24.2504 15.1844 24.9471 15.2744 25.4697 15.6326V17.4236C25.0342 16.8863 24.3375 16.5281 23.6406 16.5281C22.247 16.6177 21.1151 17.8709 21.2021 19.3035V19.4822C21.2021 20.9148 22.334 21.9899 23.7275 21.99C24.4243 21.99 25.0342 21.6317 25.4697 21.0945V22.8855C24.8601 23.1541 24.2504 23.3328 23.5537 23.3328C21.376 23.3328 19.6338 21.4523 19.6338 19.2137C19.634 16.8857 21.376 15.0054 23.6406 15.1844ZM37.3164 20.5574L39.4072 15.1844H40.9746L37.752 23.3328H36.9678L33.7451 15.1844H35.3135L37.3164 20.5574ZM16.6719 15.0056C17.4558 15.0056 18.2399 15.3639 18.8496 15.9012L18.0654 16.9754C17.7171 16.6174 17.282 16.3486 16.8467 16.3484C16.3241 16.2589 15.8879 16.7067 15.8008 17.2439C15.8008 17.6917 16.0625 17.8711 16.9336 18.2293C18.6755 18.9456 19.1111 19.4829 19.1982 20.5574V20.826C19.1111 22.2586 17.9786 23.3334 16.585 23.2439C15.5397 23.2439 14.4943 22.7064 13.9717 21.7215L14.9297 20.7361C15.191 21.3629 15.8012 21.8113 16.498 21.8113H16.585C17.1075 21.8113 17.6296 21.2738 17.6299 20.6472C17.6299 20.2891 17.4557 20.0197 17.1943 19.8406C16.8461 19.6616 16.4977 19.4829 16.1494 19.3933C14.7557 18.9456 14.3203 18.3185 14.3203 17.2439V17.1541C14.4076 15.9007 15.4526 14.9162 16.6719 15.0056ZM7.61328 15.1844C9.70372 15.2739 11.3584 17.0648 11.2715 19.2137C11.2715 20.3777 10.749 21.4527 9.87793 22.2586C9.094 22.8853 8.13584 23.2436 7.17773 23.1541H5V15.1844H7.61328ZM13.3623 23.1541H11.8818V15.1844H13.3623V23.1541ZM45.8545 16.5281H43.1533V18.3181H45.7666V19.6619H43.1533V21.8113H45.8545V23.1541H41.6729V15.1844H45.8545V16.5281ZM48.9893 15.1844C50.7313 15.1844 51.6894 15.9904 51.6895 17.5125C51.7766 18.6766 50.9926 19.6615 49.9473 19.8406L52.2988 23.1541H50.4697L48.4668 19.9305H48.292V23.1541H46.8115V15.1844H48.9893ZM8.91992 17.1541C8.39729 16.7064 7.61282 16.4376 6.91602 16.5271H6.48047V21.8103H6.91602C7.61288 21.8999 8.39727 21.6311 8.91992 21.1834C9.44211 20.6463 9.70302 19.9302 9.70312 19.1248C9.70308 18.4085 9.44246 17.6913 8.91992 17.1541ZM48.292 18.8553H48.7275C49.6856 18.8553 50.121 18.4081 50.1211 17.6023C50.121 16.8861 49.6856 16.4383 48.7275 16.4383H48.292V18.8553Z" fill="black"/>
<path fill-rule="evenodd" clip-rule="evenodd" d="M29.9132 15C27.7355 15 25.9062 16.7909 25.9062 19.1191C25.9062 21.3577 27.6484 23.2381 29.9132 23.3277C32.178 23.4172 33.9202 21.5368 34.0073 19.2086C33.9202 16.8804 32.178 15 29.9132 15V15Z" fill="#FD6020"/>
</svg>
