<svg width="58" height="40" viewBox="0 0 58 40" fill="none" xmlns="http://www.w3.org/2000/svg">
<rect x="0.5" y="0.5" width="57" height="39" rx="3.5" fill="white"/>
<rect x="0.5" y="0.5" width="57" height="39" rx="3.5" stroke="#E5E7EB"/>
<path d="M13.0401 15.8262C13.5196 15.669 14.0325 15.5837 14.5662 15.5837C16.8955 15.5837 18.8384 17.2068 19.2842 19.3629L22.5849 18.7027C21.8275 15.0382 18.5256 12.2797 14.5662 12.2797C13.6597 12.2797 12.7872 12.4245 11.9727 12.6914L13.0401 15.8262Z" fill="#FECA2F"/>
<path d="M9.11244 26.4462L11.0888 23.8944C10.2066 23.0021 9.64979 21.6994 9.64979 20.2473C9.64979 18.7964 10.2061 17.4937 11.088 16.602L9.11062 14.0505C7.61162 15.5665 6.66699 17.7809 6.66699 20.2473C6.66699 22.715 7.613 24.9302 9.11244 26.4462Z" fill="#1BA7DE"/>
<path d="M19.2852 21.1337C18.8379 23.2895 16.8962 24.9106 14.569 24.9106C14.0351 24.9106 13.5211 24.825 13.0416 24.6673L11.9727 27.8038C12.7884 28.0719 13.6613 28.217 14.569 28.217C18.5248 28.217 21.8245 25.4604 22.5849 21.7972L19.2852 21.1337Z" fill="#EC412A"/>
<path fill-rule="evenodd" clip-rule="evenodd" d="M38.4664 14.0505V23.1193L40.0938 23.7716L39.3239 25.5603L37.7145 24.9134C37.3527 24.7616 37.1078 24.5304 36.9217 24.2693C36.743 24.0022 36.6106 23.637 36.6106 23.1442V14.0505H38.4664ZM26.1236 20.7907C26.1641 18.1973 28.3726 16.1271 31.0526 16.1669C33.3272 16.2014 35.2118 17.742 35.7068 19.791L26.9095 23.427C26.3984 22.6715 26.108 21.7627 26.1236 20.7907ZM28.1362 21.1543C28.1242 21.0455 28.1156 20.9339 28.1189 20.8213C28.1441 19.2934 29.4444 18.0742 31.0233 18.0995C31.8827 18.1106 32.6459 18.4912 33.1617 19.0802L28.1362 21.1543ZM32.9765 22.838C32.4463 23.3367 31.7272 23.6406 30.9334 23.6296C30.3892 23.6208 29.885 23.4633 29.4563 23.2008L28.3936 24.8383C29.1214 25.2832 29.9796 25.5464 30.9048 25.5603C32.2516 25.5796 33.479 25.068 34.3716 24.2233L32.9765 22.838ZM45.2396 18.0994C44.9226 18.0994 44.6179 18.1489 44.3333 18.2413L43.7001 16.4064C44.1834 16.2503 44.701 16.1656 45.2396 16.1656C47.5901 16.1656 49.5509 17.7801 50.0006 19.9249L48.0403 20.3113C47.7762 19.0491 46.6226 18.0994 45.2396 18.0994ZM42.0214 24.3817L43.346 22.9333C42.7544 22.4269 42.3819 21.6872 42.3819 20.8628C42.3819 20.0392 42.7544 19.2999 43.3454 18.7938L42.0199 17.3454C41.015 18.206 40.3818 19.4634 40.3818 20.8628C40.3818 22.2638 41.0155 23.5208 42.0214 24.3817ZM45.2392 23.6271C46.621 23.6271 47.7744 22.6783 48.04 21.4179L49.9997 21.806C49.5479 23.9484 47.5876 25.5608 45.2392 25.5608C44.7002 25.5608 44.1819 25.4757 43.6973 25.3189L44.332 23.4846C44.6172 23.5767 44.922 23.6271 45.2392 23.6271Z" fill="black"/>
</svg>
