<svg width="58" height="40" viewBox="0 0 58 40" fill="none" xmlns="http://www.w3.org/2000/svg">
<rect x="0.5" y="0.5" width="57" height="39" rx="3.5" fill="white"/>
<rect x="0.5" y="0.5" width="57" height="39" rx="3.5" stroke="#E5E7EB"/>
<path d="M33.8154 8.90366C37.6922 9.93612 39.3715 12.516 39.7725 17.8167C39.8973 19.4632 39.8828 20.5609 39.8828 20.5609C39.8831 20.587 39.8958 21.6776 39.7725 23.304C39.2267 30.5199 36.3176 32.6999 28.7109 32.7874C28.5932 32.7882 27.9311 32.7882 27.8145 32.7874C26.4951 32.772 25.3213 32.6915 24.2725 32.5355C24.3094 32.5351 24.3456 32.5351 24.3828 32.5326C25.7591 32.4534 27.6751 31.3923 28.8154 28.9232C29.3136 27.8433 29.4473 25.9154 29.4473 25.9154V21.8148H33.8164V17.7601H29.4482L29.4473 17.7591C29.4472 17.7589 29.4458 17.7547 29.4443 17.7474C29.444 17.7461 29.4437 17.743 29.4434 17.7415C29.441 17.7342 29.4394 17.7262 29.4355 17.7142C29.4352 17.7109 29.434 17.7057 29.4336 17.7015C29.4305 17.6898 29.428 17.678 29.4258 17.6624C29.424 17.656 29.4233 17.6475 29.4219 17.64C29.419 17.6248 29.4164 17.6092 29.4141 17.5912C29.4119 17.5824 29.4119 17.5707 29.4111 17.5609C29.4082 17.5417 29.4057 17.5232 29.4033 17.5013C29.4026 17.4905 29.4024 17.4781 29.4014 17.4671C29.3999 17.4436 29.3978 17.4201 29.3975 17.3939V17.2699C29.3975 17.2574 29.399 17.2432 29.3994 17.2298C29.4001 17.1974 29.4018 17.1651 29.4053 17.1292C29.406 17.1184 29.4075 17.1056 29.4082 17.0941C29.4117 17.0548 29.4158 17.0152 29.4219 16.973C29.4226 16.9651 29.425 16.9563 29.4258 16.9486C29.4331 16.901 29.4417 16.8529 29.4521 16.8021C29.4521 16.801 29.4518 16.7989 29.4521 16.7972C29.5259 16.4428 29.685 16.0063 30.002 15.5121C30.8546 14.1861 33.2751 14.2482 33.7393 14.2728C33.7859 14.2756 33.8128 14.2775 33.8154 14.2777V8.90366ZM24.3525 24.6615C24.3584 24.8875 24.3009 25.6574 23.6387 26.4847C22.7825 27.5555 21.5497 27.4828 21.5332 27.4818V31.8333C18.4847 30.6026 17.1103 28.0359 16.752 23.304C16.7086 22.734 16.6831 22.2329 16.667 21.8177L24.3818 21.8148C24.3811 21.9099 24.35 24.5934 24.3525 24.6615ZM28.71 8.33432C29.6708 8.34533 30.5562 8.38949 31.3721 8.47299C31.3124 8.475 31.2541 8.4776 31.1885 8.48471C30.5205 8.55097 28.0073 8.43682 25.7275 11.1908C24.5047 12.6695 24.3822 17.7465 24.3818 17.7601H16.7568C17.3143 10.5902 20.2267 8.42152 27.8135 8.33432C27.9302 8.33359 28.0439 8.33334 28.1592 8.33334H28.3643C28.4798 8.33334 28.593 8.33359 28.71 8.33432Z" fill="#659AD2"/>
</svg>
