<svg width="58" height="40" viewBox="0 0 58 40" fill="none" xmlns="http://www.w3.org/2000/svg">
<rect x="0.5" y="0.5" width="57" height="39" rx="3.5" fill="white"/>
<rect x="0.5" y="0.5" width="57" height="39" rx="3.5" stroke="#E5E7EB"/>
<path d="M46.5352 11.6667C48.2902 11.6671 49.7123 12.9632 49.7129 14.5632V25.571C49.7123 27.1704 48.2902 28.4667 46.5352 28.4675H10.3018C8.54646 28.4668 7.12462 27.1705 7.12402 25.571V14.5632C7.12462 12.9631 8.54646 11.667 10.3018 11.6667H46.5352ZM10.3018 12.905C9.61103 12.9061 9.0113 13.2566 8.70312 13.7731C8.64707 13.8671 8.59999 13.9662 8.56445 14.07C8.5112 14.2256 8.48279 14.3916 8.48242 14.5632V25.571C8.48438 26.4862 9.29711 27.2273 10.3018 27.2292H29.2334V12.905H10.3018Z" fill="#0F3365"/>
<path d="M44.376 20.6233H44.3936L45.3389 17.887H46.9287L45.2412 21.7913C44.7911 22.8449 44.4467 23.8674 42.9893 23.8674C42.6536 23.8674 42.327 23.8353 42 23.7708L42.1064 22.6673C42.318 22.7322 42.5129 22.7561 42.7344 22.7561C43.1221 22.7559 43.422 22.5469 43.5361 22.177L41.6738 17.887H43.3867L44.376 20.6233ZM33.9404 17.7903C35.2121 17.7904 35.909 18.8928 35.9092 19.9065C35.9092 21.1461 35.1764 22.177 33.8076 22.177C33.2515 22.177 32.6511 21.9921 32.3506 21.4934H32.333V23.7708H30.7432V17.887H32.209V18.6438H32.2266C32.5444 18.0562 33.2162 17.7903 33.9404 17.7903ZM39.1289 17.927C40.3034 17.9271 41.3184 18.3856 41.3184 19.6653V21.2268C41.3184 21.557 41.3367 21.8872 41.4072 22.2171H39.9502C39.9416 21.9923 39.9141 21.7742 39.9141 21.5569H39.8965C39.5346 22.0798 39.0929 22.3137 38.4395 22.3137C37.5299 22.3136 36.7178 21.9031 36.7178 20.9934C36.7178 19.7138 38.2458 19.5608 39.0938 19.5608C39.3498 19.5608 39.6319 19.585 39.835 19.6174C39.8262 19.0459 39.3583 18.8929 38.7842 18.8928C38.2723 18.8928 37.7594 18.9812 37.3174 19.2063L37.292 18.2249C37.857 18.0153 38.4487 17.927 39.1289 17.927ZM39.1641 20.3333C38.6252 20.3333 38.2012 20.4865 38.2012 20.8889C38.2012 21.1783 38.4838 21.3479 38.8545 21.3479C39.4555 21.3479 39.8349 20.8484 39.835 20.3577C39.632 20.3497 39.4025 20.3333 39.1641 20.3333ZM33.3037 18.9007C32.7208 18.9009 32.3321 19.368 32.332 19.9954C32.332 20.6072 32.7738 21.0654 33.3037 21.0657C33.9038 21.0657 34.2665 20.6077 34.2666 19.9397C34.2666 19.3841 33.9216 18.9007 33.3037 18.9007Z" fill="#FFFFFE"/>
<path d="M12.8105 17.7905C13.4904 17.7905 14.0383 18.1282 14.374 18.6431H14.3916V17.8872H15.8311V21.5893C15.8311 23.3115 14.9122 23.8677 13.0576 23.8677C12.2986 23.8676 11.6718 23.7223 11.3008 23.602L11.3799 22.4585C11.8655 22.6758 12.2722 22.8052 12.9346 22.8052C13.853 22.8051 14.3477 22.4103 14.3477 21.5893V21.3638H14.3291C13.9497 21.8552 13.4199 22.0796 12.7842 22.0796C11.5213 22.0795 10.7354 21.2111 10.7354 19.9712C10.7354 18.7236 11.3802 17.7906 12.8105 17.7905ZM25.6807 17.7905C27.1993 17.7905 28.3564 18.595 28.3564 19.9878C28.3564 21.3722 27.1992 22.1772 25.6807 22.1772C24.1618 22.1772 23.0049 21.3721 23.0049 19.9878C23.0049 18.595 24.1618 17.7905 25.6807 17.7905ZM18.5176 22.0796H16.9277V17.8872H18.5176V22.0796ZM22.4053 17.7905C22.5903 17.7905 22.7844 17.8147 22.9434 17.8384L22.8643 19.0454C22.6879 18.9973 22.5104 18.9975 22.3252 18.9975C21.5837 18.9977 21.1689 19.489 21.1689 20.31V22.0796H19.5791V17.8872H21.0273V18.6597H21.0449C21.3188 18.1287 21.7164 17.7905 22.4053 17.7905ZM25.6807 18.8042C24.9477 18.8042 24.6475 19.3599 24.6475 19.9878C24.6475 20.6075 24.9477 21.1625 25.6807 21.1626C26.4136 21.1626 26.7138 20.6076 26.7139 19.9878C26.7139 19.3599 26.4136 18.8042 25.6807 18.8042ZM13.2793 18.9009C12.6877 18.9009 12.3781 19.3757 12.3779 19.9468C12.3779 20.5985 12.8024 20.9692 13.2793 20.9692C13.844 20.969 14.2948 20.535 14.2949 19.8911C14.2949 19.4241 13.9942 18.9011 13.2793 18.9009ZM18.5176 17.2026H16.9277V16.1401H18.5176V17.2026Z" fill="#D8232A"/>
</svg>
