<svg width="58" height="40" viewBox="0 0 58 40" fill="none" xmlns="http://www.w3.org/2000/svg">
<rect x="0.5" y="0.5" width="57" height="39" rx="3.5" fill="white"/>
<rect x="0.5" y="0.5" width="57" height="39" rx="3.5" stroke="#E5E7EB"/>
<path d="M44.5195 23.5498H44.5479L46.9111 17.6191H48.5713L43.4658 29.5097H41.8906L43.7891 25.3505L40.4385 17.6191H42.0996L44.5195 23.5498ZM36.5283 17.3496C37.6576 17.3496 38.5503 17.6571 39.2051 18.2636C39.8599 18.8702 40.1826 19.7183 40.1826 20.7871V25.8798H38.7207V24.7343H38.6543C38.0185 25.6778 37.1832 26.1494 36.1299 26.1494C35.2379 26.1493 34.4787 25.8799 33.8809 25.3408C33.2926 24.8402 32.9606 24.099 32.9795 23.3193C32.9795 22.4624 33.3017 21.7876 33.9375 21.2773C34.5732 20.7671 35.4276 20.5176 36.4902 20.5175C37.4013 20.5175 38.1421 20.6902 38.7305 21.0175V20.6611C38.7303 20.1319 38.5027 19.6316 38.1045 19.2851C37.6964 18.9192 37.1737 18.7167 36.6328 18.7167C35.7788 18.7168 35.1048 19.0827 34.6113 19.8144L33.2637 18.957C33.9849 17.8884 35.0765 17.3496 36.5283 17.3496ZM29.2881 13.8066C30.2654 13.7875 31.2146 14.1623 31.9072 14.8554C33.2927 16.1647 33.3779 18.3698 32.0781 19.7851L31.9072 19.9589C31.1956 20.6424 30.3223 20.9891 29.2881 20.9892H26.7637V25.8798H25.2354V13.8066H29.2881ZM36.7285 21.7685C36.1116 21.7685 35.5895 21.9232 35.1719 22.2216C34.7639 22.52 34.5547 22.8952 34.5547 23.3476C34.5547 23.7518 34.7446 24.1272 35.0576 24.3583C35.3993 24.6279 35.8171 24.7722 36.2441 24.7626C36.8895 24.7626 37.5063 24.503 37.9619 24.041C38.465 23.5596 38.7217 22.9916 38.7217 22.3369C38.2471 21.9517 37.5827 21.7589 36.7285 21.7685ZM26.7637 19.5058H29.3262C29.8957 19.5251 30.4458 19.2938 30.835 18.8798C31.6322 18.0422 31.6139 16.6944 30.7881 15.8857C30.3989 15.5006 29.8767 15.289 29.3262 15.289H26.7637V19.5058Z" fill="#3C4043"/>
<path d="M21.4884 19.9298C21.4884 19.458 21.4504 18.9863 21.3745 18.5241H14.9307V21.1911H18.6223C18.4705 22.048 17.977 22.8183 17.2557 23.2997V25.0327H19.4575C20.7481 23.8292 21.4884 22.048 21.4884 19.9298Z" fill="#4285F4"/>
<path d="M14.9313 26.708C16.7724 26.708 18.3287 26.0918 19.4581 25.0328L17.2563 23.2997C16.6395 23.7233 15.8518 23.964 14.9313 23.964C13.1471 23.964 11.6382 22.7413 11.0972 21.1045H8.8291V22.8953C9.9869 25.2349 12.3499 26.708 14.9313 26.708Z" fill="#34A853"/>
<path d="M11.0974 21.1045C10.8127 20.2476 10.8127 19.3137 11.0974 18.4471V16.6659H8.82893C7.85129 18.6204 7.85129 20.9312 8.82893 22.8857L11.0974 21.1045Z" fill="#FBBC04"/>
<path d="M14.9313 15.5876C15.9087 15.5683 16.8483 15.9438 17.5505 16.6274L19.5055 14.644C18.2623 13.4694 16.63 12.8243 14.9313 12.8435C12.3499 12.8435 9.9869 14.3263 8.8291 16.6659L11.0972 18.4567C11.6382 16.8103 13.1471 15.5876 14.9313 15.5876Z" fill="#EA4335"/>
</svg>
