<svg width="58" height="40" viewBox="0 0 58 40" fill="none" xmlns="http://www.w3.org/2000/svg">
<rect x="0.5" y="0.5" width="57" height="39" rx="3.5" fill="white"/>
<rect x="0.5" y="0.5" width="57" height="39" rx="3.5" stroke="#E5E7EB"/>
<path d="M28.8867 8.25989C38.0498 8.25989 41.5713 13.415 41.5713 19.9308C41.5712 27.7249 36.6493 31.6427 28.8867 31.6427H15.4023V8.25989H28.8867ZM16.6826 30.3234H28.8867C36.2492 30.3234 40.251 26.7763 40.251 19.9718C40.251 12.9612 35.9291 9.66223 28.8867 9.66223H16.6826V30.3234ZM22.2441 28.5909H18.3232V21.4152H22.2441V28.5909ZM20.2832 15.3116C21.6312 15.3116 22.7245 16.438 22.7246 17.8273C22.7246 19.2166 21.6312 20.3429 20.2832 20.3429C18.9354 20.3427 17.8428 19.2164 17.8428 17.8273C17.8428 16.4381 18.9354 15.3119 20.2832 15.3116Z" fill="black"/>
<path fill-rule="evenodd" clip-rule="evenodd" d="M35.809 15.518H36.9293V18.9821H38.5699C38.1297 12.6725 33.2881 11.2703 28.8867 11.2703H24.2051V15.518H24.8853C26.1657 15.518 26.926 16.384 26.926 17.8274C26.926 19.2708 26.1657 20.1368 24.9253 20.1368H24.2051V28.5908H28.8867C36.0491 28.5908 38.4899 25.168 38.6099 20.1368H35.809V15.518ZM30.4072 18.9821V20.1368H27.6062V15.518H30.3271V16.6727H28.7266V17.2088H30.2471V18.3635H28.7666V18.9821H30.4072ZM30.8867 20.1368L32.2472 15.518H33.8477L35.2082 20.1368H34.0478L33.8077 19.2708H32.3272L32.0871 20.1368H30.8867ZM32.66 18.0748H32.6475V18.1161L32.66 18.0748ZM32.66 18.0748H33.4477L33.0876 16.7964H33.0476L32.66 18.0748ZM24.2051 18.9821V16.6727H24.8853C25.3255 16.6727 25.8056 16.7964 25.8056 17.8274C25.8056 18.8584 25.3655 18.9821 24.8853 18.9821H24.2051Z" fill="#D50072"/>
</svg>
