<svg width="58" height="40" viewBox="0 0 58 40" fill="none" xmlns="http://www.w3.org/2000/svg">
<rect x="0.5" y="0.5" width="57" height="39" rx="3.5" fill="white"/>
<rect x="0.5" y="0.5" width="57" height="39" rx="3.5" stroke="#E5E7EB"/>
<path d="M36.6363 19.9238C37.5218 19.9431 38.4122 19.8847 39.2941 19.9541C40.1872 20.1208 40.4025 21.4728 39.609 21.9156C39.0676 22.2073 38.4245 22.0243 37.8376 22.0757H36.6363V19.9238ZM39.8061 17.4882C40.0028 18.1825 39.3334 18.806 38.6647 18.7104H36.6363C36.6506 18.0555 36.6085 17.3448 36.6569 16.7245C37.4695 16.7474 38.2896 16.6778 39.0974 16.7608C39.4445 16.8481 39.735 17.1334 39.8061 17.4882ZM44.6876 7.19091C44.7254 8.51697 44.6931 9.91313 44.7039 11.2661C44.7014 16.7668 44.7092 22.2673 44.6996 27.7682C44.664 29.8297 42.837 31.621 40.7898 31.6622C38.7405 31.6705 36.691 31.6635 34.6415 31.6657V23.3499C36.8745 23.3384 39.1087 23.3733 41.3408 23.3325C42.3763 23.2674 43.5105 22.5842 43.5587 21.4447C43.6806 20.3003 42.6017 19.5087 41.5772 19.3837C41.1835 19.3734 41.195 19.2689 41.5772 19.2232C42.5543 19.0121 43.3216 18.0008 43.0341 16.9881C42.7891 15.9229 41.6118 15.5106 40.6325 15.5127C38.6358 15.4991 36.6387 15.5108 34.642 15.5068C34.6548 13.9544 34.6151 12.4002 34.6634 10.8489C34.8216 8.8246 36.6946 7.15522 38.713 7.19144C40.7048 7.19113 42.6963 7.19113 44.6876 7.19106V7.19091Z" fill="url(#paint0_linear_10001_8726)"/>
<path d="M12.0775 11.0584C12.1285 9.00014 13.9633 7.22354 16.0079 7.19346C18.0496 7.18717 20.0915 7.19255 22.1332 7.19073C22.1275 14.0772 22.1442 20.9644 22.1247 27.8504C22.0461 29.8837 20.2313 31.6264 18.209 31.6624C16.1635 31.6698 14.1177 31.6634 12.0721 31.6655V23.0693C14.0591 23.5387 16.1427 23.7385 18.1697 23.4271C19.3814 23.2322 20.7071 22.6372 21.1173 21.3801C21.4192 20.3049 21.2492 19.1732 21.2941 18.0696V15.5067H17.7862C17.7704 17.2017 17.8185 18.8998 17.7608 20.5928C17.6662 21.6334 16.6357 22.2946 15.6542 22.2593C14.437 22.2722 12.025 21.3772 12.025 21.3772C12.019 18.2013 12.0603 14.224 12.0775 11.0587V11.0584Z" fill="url(#paint1_linear_10001_8726)"/>
<path d="M23.4416 16.5406C23.257 16.5798 23.4045 15.9117 23.3573 15.6582C23.3699 14.0557 23.331 12.4514 23.3787 10.8499C23.5365 8.81708 25.4239 7.14353 27.4505 7.19111H33.4188C33.4132 14.0776 33.4298 20.9647 33.4104 27.8508C33.3316 29.884 31.5167 31.6267 29.4943 31.6628C27.4487 31.6705 25.4029 31.664 23.3572 31.6659V22.2476C24.7543 23.394 26.6532 23.5724 28.3938 23.5755C29.706 23.5751 31.0106 23.3727 32.2849 23.0701V21.3447C30.8488 22.0604 29.1606 22.515 27.5687 22.1038C26.4582 21.8274 25.6521 20.7542 25.67 19.6081C25.5414 18.4163 26.24 17.1581 27.4112 16.8038C28.8653 16.3486 30.4501 16.6967 31.8131 17.2886C32.1051 17.4415 32.4015 17.6311 32.2848 17.143V15.7868C30.0052 15.2444 27.5791 15.0448 25.2889 15.6349C24.626 15.8219 23.9801 16.1055 23.4416 16.5408V16.5406Z" fill="url(#paint2_linear_10001_8726)"/>
<defs>
<linearGradient id="paint0_linear_10001_8726" x1="34.5728" y1="18.905" x2="44.6404" y2="18.905" gradientUnits="userSpaceOnUse">
<stop stop-color="#58B03A"/>
<stop offset="1" stop-color="#55B330"/>
</linearGradient>
<linearGradient id="paint1_linear_10001_8726" x1="11.8581" y1="19.6625" x2="21.9682" y2="19.6625" gradientUnits="userSpaceOnUse">
<stop stop-color="#0F6EB6"/>
<stop offset="1" stop-color="#006DBA"/>
</linearGradient>
<linearGradient id="paint2_linear_10001_8726" x1="23.3425" y1="19.1423" x2="33.4169" y2="19.1423" gradientUnits="userSpaceOnUse">
<stop stop-color="#DE0D3D"/>
<stop offset="1" stop-color="#E30138"/>
</linearGradient>
</defs>
</svg>
