<svg width="58" height="40" viewBox="0 0 58 40" fill="none" xmlns="http://www.w3.org/2000/svg">
<rect width="58" height="40" rx="4" fill="#FEB4C7"/>
<path d="M22.7334 18.0752C23.4983 18.0752 24.2083 18.3238 24.7959 18.748V18.2783H26.875V25.6299H24.7959V25.1602C24.2083 25.5842 23.4983 25.833 22.7334 25.833C20.7092 25.8328 19.0684 24.0964 19.0684 21.9541C19.0684 19.8118 20.7092 18.0754 22.7334 18.0752ZM44.6758 18.0752C45.4408 18.0752 46.1507 18.3238 46.7383 18.748V18.2783H48.8174V25.6299H46.7383V25.1602C46.1507 25.5842 45.4408 25.833 44.6758 25.833C42.6516 25.8328 41.0107 24.0964 41.0107 21.9541C41.0108 19.8118 42.6516 18.0754 44.6758 18.0752ZM51.0244 23.0225C51.7451 23.0225 52.3299 23.6405 52.3301 24.4033C52.3301 25.166 51.7452 25.7852 51.0244 25.7852C50.3038 25.7849 49.7197 25.1659 49.7197 24.4033C49.7199 23.6407 50.3039 23.0227 51.0244 23.0225ZM8.78223 15V25.6328H6.47656V15H8.78223ZM14.5391 15C14.5391 17.3019 13.6919 19.4435 12.1816 21.0352L15.3672 25.6328H12.5205L9.05762 20.6357L9.95117 19.9277C11.4333 18.7528 12.2832 16.9567 12.2832 15H14.5391ZM18.2168 25.6299H16.0391V15.002H18.2168V25.6299ZM30.0928 19.2354C30.5097 18.6611 31.2873 18.2783 32.1318 18.2783V20.418C32.1234 20.4179 32.1149 20.417 32.1064 20.417C31.2836 20.4171 30.0978 21.0395 30.0977 22.1973V25.6299H27.9639V18.2783H30.0928V19.2354ZM37.3145 18.0801C38.9898 18.0802 40.2754 19.2443 40.2754 20.9551V25.6299H38.1973V21.751C38.1972 20.6789 37.6718 20.1016 36.7578 20.1016C35.9051 20.1017 35.1973 20.6488 35.1973 21.7666V25.6299H33.1006V18.2783H35.1719V19.1064C35.6976 18.3535 36.4837 18.0801 37.3145 18.0801ZM22.9043 20.0625C21.8636 20.0625 21.0196 20.9095 21.0195 21.9541C21.0195 22.9987 21.8635 23.8457 22.9043 23.8457C23.945 23.8456 24.7891 22.9987 24.7891 21.9541C24.789 20.9096 23.945 20.0626 22.9043 20.0625ZM44.8477 20.0625C43.8068 20.0625 42.9629 20.9095 42.9629 21.9541C42.9629 22.9987 43.8068 23.8457 44.8477 23.8457C45.8884 23.8456 46.7324 22.9987 46.7324 21.9541C46.7324 20.9096 45.8884 20.0626 44.8477 20.0625Z" fill="#17120F"/>
</svg>
