<svg width="58" height="40" viewBox="0 0 58 40" fill="none" xmlns="http://www.w3.org/2000/svg">
<rect x="0.5" y="0.5" width="57" height="39" rx="3.5" fill="white"/>
<rect x="0.5" y="0.5" width="57" height="39" rx="3.5" stroke="#E5E7EB"/>
<path d="M28.333 6.66667C35.6967 6.66667 41.6668 12.636 41.667 19.9997C41.667 27.3635 35.6968 33.3337 28.333 33.3337C20.9694 33.3335 15 27.3634 15 19.9997C15.0002 12.6361 20.9695 6.66685 28.333 6.66667ZM24.7139 20.9899L23.1465 21.6169L22.6768 23.3395L24.2432 22.7135L23.1465 26.943H33.957L34.584 24.4372H27.8467L28.7861 20.9899L30.667 20.363L31.1367 18.6403L29.2568 19.4235L30.667 13.9401H26.5928L24.7139 20.9899Z" fill="#A5A8A9"/>
</svg>
