<svg width="58" height="40" viewBox="0 0 58 40" fill="none" xmlns="http://www.w3.org/2000/svg">
<rect x="0.5" y="0.5" width="57" height="39" rx="3.5" fill="white"/>
<rect x="0.5" y="0.5" width="57" height="39" rx="3.5" stroke="#E5E7EB"/>
<path d="M21.0479 8.33333C27.1493 8.33333 32.0954 13.3369 32.0957 19.5091C32.0957 25.6816 27.1495 30.6859 21.0479 30.6859C14.9463 30.6858 10 25.6815 10 19.5091C10.0003 13.3369 14.9464 8.33341 21.0479 8.33333Z" fill="#ED0006"/>
<path d="M35.3809 8.33333C41.4823 8.33333 46.4285 13.3369 46.4287 19.5091C46.4287 25.6816 41.4825 30.6859 35.3809 30.6859C29.2793 30.6858 24.333 25.6815 24.333 19.5091C24.3333 13.3369 29.2794 8.33342 35.3809 8.33333Z" fill="#0099DF"/>
<path d="M28.2139 11.0062C30.5886 13.0561 32.0957 16.1045 32.0957 19.5101C32.0956 22.9152 30.5882 25.9622 28.2139 28.012C25.8399 25.9622 24.3331 22.9149 24.333 19.5101C24.333 16.1048 25.8395 13.0561 28.2139 11.0062Z" fill="#6C6BBD"/>
</svg>
