<svg width="58" height="40" viewBox="0 0 58 40" fill="none" xmlns="http://www.w3.org/2000/svg">
<rect x="0.5" y="0.5" width="57" height="39" rx="3.5" fill="white"/>
<rect x="0.5" y="0.5" width="57" height="39" rx="3.5" stroke="#E5E7EB"/>
<path d="M35.9619 8.38329C42.2034 8.38329 47.2637 13.3831 47.2637 19.5503C47.2635 25.7173 42.2033 30.7163 35.9619 30.7163C33.1635 30.7162 30.6046 29.7092 28.6309 28.0444C26.6572 29.7087 24.0989 30.7163 21.3008 30.7163C15.0596 30.7161 10.0002 25.7172 10 19.5503C10 13.3832 15.0595 8.38348 21.3008 8.38329C24.0986 8.38329 26.6573 9.39018 28.6309 11.0542C30.6045 9.38976 33.1638 8.38333 35.9619 8.38329Z" fill="#ED0006"/>
<path d="M35.9619 8.38329C42.2034 8.38329 47.2637 13.3831 47.2637 19.5503C47.2635 25.7173 42.2033 30.7163 35.9619 30.7163C33.164 30.7162 30.6054 29.7096 28.6318 28.0454C31.0606 25.9973 32.6024 22.9526 32.6025 19.5503C32.6025 16.1478 31.0608 13.1023 28.6318 11.0542C30.6054 9.39003 33.1641 8.38338 35.9619 8.38329Z" fill="#F9A000"/>
<path d="M28.6309 11.0538C31.0602 13.102 32.6025 16.1471 32.6025 19.5499C32.6025 22.9525 31.0599 25.9969 28.6309 28.045C26.2024 25.9969 24.6611 22.952 24.6611 19.5499C24.6611 16.1476 26.2021 13.102 28.6309 11.0538Z" fill="#FF5E00"/>
</svg>
