<svg width="40" height="25" viewBox="0 0 40 25" fill="none" xmlns="http://www.w3.org/2000/svg">
<g clip-path="url(#clip0_10001_1487)">
<path d="M22.6423 17.2168H17.3696V7.78247H22.6424L22.6423 17.2168Z" fill="#FF5F00"/>
<path d="M17.698 12.5C17.698 10.5863 18.598 8.88148 19.9994 7.78286C18.9386 6.95003 17.6265 6.49802 16.2756 6.50001C12.9477 6.50001 10.25 9.18625 10.25 12.5C10.25 15.8137 12.9477 18.5 16.2756 18.5C17.6265 18.502 18.9387 18.05 19.9995 17.2171C18.5982 16.1187 17.698 14.4138 17.698 12.5Z" fill="#EB001B"/>
<path d="M29.75 12.5C29.75 15.8137 27.0524 18.5 23.7245 18.5C22.3733 18.502 21.0611 18.05 20 17.2171C21.4019 16.1185 22.3019 14.4138 22.3019 12.5C22.3019 10.5862 21.4019 8.88148 20 7.78286C21.061 6.95005 22.3733 6.49805 23.7244 6.50001C27.0523 6.50001 29.7499 9.18625 29.7499 12.5" fill="#F79E1B"/>
</g>
<defs>
<clipPath id="clip0_10001_1487">
<rect width="40" height="24" fill="white" transform="translate(0 0.5)"/>
</clipPath>
</defs>
</svg>
