<svg width="58" height="40" viewBox="0 0 58 40" fill="none" xmlns="http://www.w3.org/2000/svg">
<rect x="0.5" y="0.5" width="57" height="39" rx="3.5" fill="white"/>
<rect x="0.5" y="0.5" width="57" height="39" rx="3.5" stroke="#E5E7EB"/>
<path d="M41.6855 19.4798C42.4934 18.6222 43.4845 18.3166 44.6279 18.6321C45.3256 18.8268 45.6982 19.3321 45.7402 20.0423C45.7822 20.7369 45.4673 21.2586 44.8115 21.5638C44.1507 21.8688 43.4477 21.9161 42.7344 21.9319C42.5927 21.9267 42.4454 21.9261 42.2881 21.9261C42.2409 22.4418 42.6086 22.8368 43.1699 22.9104C43.6945 22.9736 44.1983 22.895 44.6914 22.7161C44.7753 22.6846 44.8538 22.6527 44.9639 22.6106C44.9953 22.9525 45.038 23.2732 45.0537 23.594C45.0589 23.657 44.9854 23.7568 44.9277 23.7835C44.036 24.1518 43.1177 24.2785 42.1787 24.0208C41.3341 23.7893 40.893 23.1733 40.7881 22.3313C40.657 21.2527 40.9354 20.2796 41.6855 19.4798ZM16.5557 18.511C17.0016 18.5373 17.4427 18.6432 17.8887 18.7063C18.0668 18.7327 18.0929 18.8322 18.0615 18.9847C17.8622 20.0266 17.6523 21.0639 17.4844 22.1058C17.3953 22.658 17.3687 23.226 17.332 23.7835C17.3215 23.9519 17.2796 24.0212 17.1064 24.0159C16.7813 24.0054 16.456 24.0054 16.1309 24.0159C15.9632 24.0211 15.9052 23.9573 15.9209 23.7942C15.9419 23.5418 15.953 23.279 15.9688 23.0003C15.7065 23.2739 15.496 23.5519 15.2285 23.7571C14.6778 24.1833 14.0487 24.2782 13.4141 23.9837C12.7845 23.6943 12.5272 23.1311 12.501 22.4681C12.4434 21.0738 12.9308 19.9212 14.1006 19.1214C14.8349 18.6163 15.6797 18.4637 16.5557 18.511ZM36.7275 19.2112C37.5092 18.543 38.4271 18.3322 39.4238 18.6321C40.0901 18.8321 40.4626 19.3324 40.5098 20.0218C40.5569 20.7004 40.2632 21.2217 39.6338 21.5374C39.1407 21.7847 38.6106 21.874 38.0703 21.9056C37.7346 21.9213 37.3931 21.9056 37.0469 21.9056C37.0103 22.4527 37.3834 22.842 37.9395 22.9104C38.4797 22.9735 38.9994 22.8893 39.5029 22.6946C39.5552 22.6737 39.6124 22.6521 39.6699 22.6311C39.6804 22.6259 39.6965 22.6311 39.7383 22.6311C39.7697 22.952 39.8065 23.2732 39.8223 23.594C39.8275 23.6571 39.7543 23.757 39.6914 23.7835C38.8153 24.1413 37.9076 24.2683 36.9844 24.0315C36.124 23.8105 35.652 23.1888 35.5576 22.3206C35.4213 21.0947 35.7781 20.0215 36.7275 19.2112ZM26.4551 18.5325C27.1266 18.4588 27.7568 18.543 28.3076 18.9534C28.8321 19.3428 29.0893 19.8902 29.126 20.5374C29.1679 21.2109 29.052 21.8526 28.7373 22.4524C28.1445 23.568 27.195 24.1097 26.2402 24.136C24.8501 24.136 24.0581 23.6207 23.7695 22.6946C23.2922 21.1687 24.2101 18.7854 26.4551 18.5325ZM33.8682 18.5374C34.4348 18.6321 34.8286 19.048 34.8916 19.6321C34.965 20.2845 34.8286 20.9158 34.708 21.5472C34.5611 22.3102 34.4197 23.0736 34.2676 23.8313C34.2518 23.8997 34.1726 23.9999 34.1201 24.0052C33.669 24.0157 33.2177 24.0104 32.7666 24.0052C32.7457 24.0051 32.7245 23.9891 32.6826 23.9681C32.7665 23.5314 32.851 23.0896 32.9297 22.6477C33.0503 21.9691 33.1656 21.2952 33.2705 20.6165C33.2915 20.5008 33.2804 20.3796 33.2646 20.264C33.2227 19.8589 32.9242 19.6743 32.5361 19.7952C32.1584 19.9162 31.9326 20.2111 31.749 20.5374C31.4763 21.0162 31.3815 21.548 31.2871 22.0794C31.1822 22.6633 31.0822 23.2425 30.9668 23.8265C30.9508 23.8949 30.8726 23.9999 30.8203 24.0052C30.3587 24.021 29.8919 24.0149 29.3779 24.0149C29.7241 22.205 30.0488 20.4318 30.374 18.6429H31.707C31.686 18.927 31.6649 19.2009 31.6387 19.4798C31.7908 19.3377 31.9277 19.2004 32.0693 19.0794C32.5886 18.6271 33.1812 18.427 33.8682 18.5374ZM8.19922 16.68C9.18014 16.5327 10.1665 16.4278 11.1475 16.6751C12.0023 16.8856 12.6004 17.4903 12.7002 18.2005C12.9048 19.616 12.0808 20.7475 10.8584 21.1526C10.2133 21.363 9.55772 21.4159 8.8916 21.3528C8.73426 21.337 8.68639 21.379 8.66016 21.5315C8.51851 22.3051 8.37187 23.0738 8.21973 23.8421C8.20912 23.9051 8.15191 24.0046 8.11523 24.0052C7.63783 24.0157 7.17062 24.0101 6.66699 24.0101C6.74043 23.6154 6.79863 23.252 6.87207 22.889C7.24977 20.8948 7.63207 18.9056 8.00977 16.9114C8.03599 16.7852 8.07336 16.701 8.19922 16.68ZM50.001 18.5169C49.9013 19.0167 49.8174 19.4801 49.7178 19.9378C49.7069 19.9746 49.6385 20.0214 49.5967 20.0267C48.5633 20.1635 48.1281 20.5321 47.8711 21.595C47.6928 22.3316 47.572 23.0891 47.4199 23.8362C47.4094 23.8994 47.3512 23.9993 47.3145 23.9993C46.8319 24.0151 46.3493 24.0101 45.8301 24.0101C45.8983 23.6207 45.9611 23.2682 46.0293 22.9104C46.3021 21.5476 46.5799 20.1847 46.6953 18.7903C46.7005 18.7326 46.7792 18.6378 46.8213 18.6321C47.2199 18.6216 47.6188 18.6272 48.0488 18.6272C48.0174 19.0008 47.9911 19.3533 47.9648 19.7005C48.4475 18.9901 49.0042 18.4116 50.001 18.5169ZM27.4941 20.5218C27.4417 19.9166 26.9848 19.5957 26.4287 19.722C26.1561 19.7852 25.9516 19.9532 25.7891 20.1741C25.4271 20.674 25.2804 21.237 25.2646 21.8421C25.2646 21.921 25.2594 22.0053 25.2646 22.0843C25.3066 22.6366 25.6995 22.9889 26.2188 22.9417C26.5071 22.9154 26.7328 22.7631 26.9111 22.5423C27.378 21.9478 27.557 21.2636 27.4941 20.5218ZM16.3359 19.7474C15.8271 19.6053 15.4017 19.7062 15.0449 20.0061C14.3737 20.5744 14.0693 21.3111 14.127 22.1897C14.1428 22.458 14.2481 22.7156 14.5312 22.8313C14.8145 22.947 15.0717 22.8625 15.292 22.6731C15.423 22.5574 15.5492 22.4258 15.6436 22.2786C16.1417 21.5157 16.1524 20.6207 16.3359 19.7474ZM43.8994 19.6692C43.2804 19.5008 42.5086 20.0693 42.4404 20.806C42.7761 20.7849 43.091 20.7796 43.4004 20.7376C43.6101 20.7113 43.82 20.6473 44.0088 20.5579C44.2133 20.4685 44.3136 20.2795 44.2822 20.0481C44.2508 19.8273 44.1038 19.7219 43.8994 19.6692ZM38.6475 19.6692C38.0233 19.5167 37.2834 20.0633 37.1992 20.763C37.6031 20.8472 38.4318 20.7477 38.752 20.5794C38.9723 20.4636 39.0826 20.2789 39.0459 20.0579C39.0091 19.832 38.8571 19.7218 38.6475 19.6692ZM10.5908 17.8694C10.2185 17.738 9.83588 17.7641 9.45312 17.8167C9.40601 17.8219 9.34272 17.8953 9.33203 17.9427C9.20088 18.632 9.06974 19.3273 8.92285 20.1009C9.24287 20.1009 9.53152 20.1266 9.80957 20.095C10.3551 20.0371 10.7906 19.7897 11.0371 19.2688C11.315 18.6795 11.1154 18.0536 10.5908 17.8694Z" fill="black"/>
<path d="M31.9796 12.2548C32.1212 12.2864 32.2628 12.3334 32.4044 12.3544C32.9919 12.4491 33.4644 12.765 33.8683 13.1806C33.9679 13.2805 34.0673 13.4806 34.0255 13.5859C33.9783 13.7016 33.7892 13.8129 33.6476 13.8339C32.3257 14.0286 31.0404 14.3753 29.8077 14.8857C29.0944 15.1803 28.3968 15.5383 27.715 15.9013C26.2303 16.7011 25.0477 17.7603 23.8673 18.9443C22.6188 20.1966 21.4299 21.6164 20.4122 23.0634C19.7774 23.9632 19.3294 24.6963 18.7628 25.6435C18.4796 26.117 18.1508 26.8465 17.92 27.3515C17.8834 27.4249 17.8049 27.5563 17.7784 27.5468C17.6788 27.5152 17.5312 27.4568 17.505 27.3779C17.4421 27.1833 17.3795 26.9572 17.4161 26.7626C17.6155 25.7051 18.0562 24.7315 18.5441 23.7792C19.4936 21.9375 20.6851 20.2584 22.0753 18.7324C22.8674 17.8642 23.6858 17.0173 24.5304 16.207C25.7999 14.981 27.2161 13.9443 28.795 13.1445C29.5241 12.7762 30.2796 12.4973 31.0821 12.3447C31.2185 12.3184 31.3504 12.286 31.4816 12.2597C31.6546 12.2545 31.8171 12.2548 31.9796 12.2548ZM18.3712 13.4443C18.3607 13.2865 18.4497 13.2072 18.5861 13.2597C18.7225 13.3071 18.8594 13.3863 18.9591 13.4863C19.7931 14.3755 20.3174 15.4121 20.4591 16.6328C20.4906 16.8696 20.5006 17.1069 20.5216 17.3437C20.5058 18.0802 20.3808 18.7906 20.129 19.4746C20.1028 19.5482 20.0496 19.6116 19.9972 19.6747C19.8819 19.8269 19.7562 19.8426 19.6671 19.6747C19.5517 19.4537 19.4572 19.2162 19.3995 18.9794C19.2317 18.2376 19.0744 17.4906 18.9327 16.7382C18.7491 15.7805 18.586 14.817 18.4181 13.8593C18.3919 13.7227 18.3817 13.5809 18.3712 13.4443Z" fill="#FC461E"/>
</svg>
