<svg width="58" height="40" viewBox="0 0 58 40" fill="none" xmlns="http://www.w3.org/2000/svg">
<rect x="0.5" y="0.5" width="57" height="39" rx="3.5" fill="white"/>
<rect x="0.5" y="0.5" width="57" height="39" rx="3.5" stroke="#E5E7EB"/>
<path d="M48.7594 17.4572C49.4448 17.4572 50.0003 16.9016 50.0003 16.2163C50.0003 15.531 49.4448 14.9754 48.7594 14.9754C48.0741 14.9754 47.5186 15.531 47.5186 16.2163C47.5186 16.9016 48.0741 17.4572 48.7594 17.4572Z" fill="#7887E6"/>
<path d="M48.7594 21.3419C49.4448 21.3419 50.0003 20.7864 50.0003 20.1011C50.0003 19.4157 49.4448 18.8602 48.7594 18.8602C48.0741 18.8602 47.5186 19.4157 47.5186 20.1011C47.5186 20.7864 48.0741 21.3419 48.7594 21.3419Z" fill="#FF5073"/>
<path d="M14.9863 28.248L15.7021 25.7412H16.7568C16.1995 27.3523 15.6559 28.9652 15.1055 30.5634H14.1104V30.5625L14.668 29.124H14.3496C13.9912 27.9964 13.6398 26.8687 13.2754 25.7412H14.3496L14.9863 28.248ZM11.8164 25.6631C12.5988 25.6632 13.0827 26.0079 13.083 26.7705V29.125H12.1143V29.124L12.0547 28.7861C11.8686 28.9919 11.6167 29.204 11.1924 29.2041C10.6685 29.204 10.1379 28.8658 10.1377 28.1894C10.1379 27.46 10.6088 26.9755 12.0205 27.0019V26.7763C12.02 26.5181 11.8016 26.4317 11.5566 26.4316C11.2122 26.4317 10.8074 26.5843 10.6152 26.6709L10.3242 26.0674C10.6424 25.8685 11.16 25.6631 11.8164 25.6631ZM23.4824 25.6631C24.2647 25.6633 24.7487 26.008 24.749 26.7705V29.125H23.7803V29.124L23.7207 28.7861C23.5346 28.9919 23.2828 29.204 22.8584 29.2041C22.3345 29.204 21.8039 28.8658 21.8037 28.1894C21.8039 27.46 22.2747 26.9754 23.6865 27.0019V26.7763C23.686 26.5181 23.4676 26.4317 23.2227 26.4316C22.8782 26.4317 22.4734 26.5843 22.2812 26.6709L21.9902 26.0674C22.3085 25.8685 22.826 25.6631 23.4824 25.6631ZM29.2715 25.6621C29.9942 25.6622 30.7108 26.0538 30.7109 27.247V27.6445H28.709C28.7622 28.2019 29.0997 28.4277 29.5508 28.4277C29.8892 28.4276 30.2732 28.2887 30.3994 28.209L30.6982 28.872C30.4865 29.0315 29.935 29.2039 29.3916 29.2041C28.2905 29.2041 27.6006 28.5198 27.6006 27.4521C27.601 26.4116 28.3304 25.6623 29.2715 25.6621ZM26.6797 25.7422H27.3291V26.4658H26.6797V27.9648C26.6798 28.3092 26.8058 28.416 27.0381 28.416H27.3291V29.1259H26.5732V29.124C26.2551 29.124 25.6241 29.0844 25.624 28.2021V26.4648H25.1074V25.7412H25.624V25.0986L26.6797 24.7343V25.7422ZM8.43262 24.5478C9.48003 24.5479 9.97816 25.1577 9.97852 25.9668C9.97852 26.9014 9.31494 27.452 8.43262 27.4521H7.7627V29.124H6.67578V24.5478H8.43262ZM19.7617 28.3349H21.5059V29.124H18.6738V24.5478H19.7617V28.3349ZM33.2305 26.6494C33.1704 26.6366 33.0319 26.6367 32.9658 26.6367C32.6873 26.6367 32.3883 26.7496 32.2021 26.9355V29.124H31.1416V25.7412H32.1504V26.3584C32.3691 25.941 32.7736 25.6621 33.2305 25.6621V26.6494ZM11.7832 27.6513C11.3592 27.6514 11.1604 27.8377 11.1602 28.1152C11.1602 28.3605 11.3395 28.5136 11.6045 28.5136C11.7696 28.5135 11.9221 28.4535 12.0215 28.3808V27.6709C11.9351 27.664 11.8687 27.6514 11.7832 27.6513ZM23.4492 27.6513C23.0252 27.6514 22.8265 27.8377 22.8262 28.1152C22.8262 28.3605 23.0055 28.5136 23.2705 28.5136C23.4356 28.5135 23.5881 28.4535 23.6875 28.3808V27.6709C23.6011 27.664 23.5348 27.6514 23.4492 27.6513ZM29.2588 26.4043C28.9675 26.4044 28.7494 26.6374 28.709 27.0879H29.7363C29.7361 26.6305 29.5373 26.4044 29.2588 26.4043ZM7.76367 26.6562H8.31445C8.67875 26.6561 8.92376 26.4242 8.92383 26.0068C8.92366 25.6161 8.70521 25.3438 8.31445 25.3437H7.76367V26.6562ZM34.292 24.4707H33.9668V25.2715H33.6494V24.4707H33.3057V24.2461H34.2568L34.292 24.4707ZM35.0107 24.9746C35.069 24.7313 35.1258 24.4904 35.1875 24.247H35.5869L35.668 25.2715H35.3857L35.3477 24.5293C35.2817 24.7768 35.2159 25.0239 35.1465 25.2715H34.8682L34.667 24.5293L34.6289 25.2715H34.3447C34.3756 24.9313 34.4031 24.5872 34.4297 24.247H34.8281L35.0107 24.9746ZM20.0693 15.1191L21.5752 18.7519L22.8867 15.1191H24.7822L21.7012 22.9052H19.8857L20.6885 20.9131L18.1162 15.1191H20.0693ZM43.3389 14.9756C45.0317 14.9756 46.2783 16.2826 46.2783 18.0654V18.542H42.3252C42.3552 18.8541 42.4346 19.1091 42.5547 19.3115C42.5555 19.3123 42.556 19.3127 42.5566 19.3134C42.5763 19.345 42.5968 19.3762 42.6182 19.4052C42.631 19.4233 42.6445 19.4398 42.6582 19.457C42.6667 19.4673 42.6752 19.479 42.6846 19.4892C42.7075 19.5164 42.7323 19.5427 42.7578 19.5674C42.7587 19.5682 42.7599 19.5694 42.7607 19.5703C42.8242 19.6312 42.8957 19.6863 42.9746 19.7343C42.9759 19.7349 42.9768 19.7348 42.9775 19.7353C43.0126 19.7567 43.0504 19.777 43.0889 19.7959C43.0964 19.7992 43.1036 19.8023 43.1104 19.8056C43.1335 19.8168 43.1587 19.8275 43.1836 19.8369C43.2058 19.8454 43.2278 19.8536 43.25 19.8613C43.2662 19.8664 43.2838 19.8708 43.3008 19.8759C43.3325 19.8845 43.3649 19.8936 43.3975 19.9013C43.4085 19.9039 43.4196 19.9056 43.4307 19.9082C43.4623 19.915 43.4939 19.9206 43.5264 19.9258C43.5357 19.9274 43.5444 19.9288 43.5537 19.9297C43.594 19.9348 43.6356 19.9388 43.6768 19.9414C43.687 19.9422 43.6968 19.9425 43.707 19.9433C43.7507 19.9459 43.7945 19.9472 43.8398 19.9472C44.3577 19.9472 44.9357 19.8017 45.5059 19.4785L46.0371 20.6601C45.1959 21.2431 44.1041 21.3427 43.5527 21.3427C41.5738 21.3426 40.334 20.1134 40.334 18.1943C40.3342 16.3225 41.6462 14.9756 43.3389 14.9756ZM33.1406 14.9756C34.5479 14.9756 35.4188 15.5954 35.418 16.9658V21.1992H33.5098V20.9297C33.1291 21.1689 32.6306 21.3417 32.1719 21.3418C31.009 21.3418 30.125 20.4655 30.125 19.4218C30.125 18.3533 30.8815 17.1968 33.5107 17.3838V16.9775C33.5106 16.513 33.1165 16.3574 32.6758 16.3574C32.056 16.3574 31.3291 16.6318 30.9834 16.7871L30.458 15.7031C31.03 15.3455 31.9607 14.9756 33.1406 14.9756ZM15.7207 14.9746C17.1279 14.9746 17.999 15.5946 17.999 16.9658V21.1992H16.0898V20.9287C15.7091 21.1679 15.2107 21.3408 14.752 21.3408C13.5892 21.3407 12.7051 20.4645 12.7051 19.4209C12.7052 18.3524 13.4617 17.1958 16.0908 17.3828V16.9765C16.0906 16.5121 15.6965 16.3574 15.2559 16.3574C14.6359 16.3575 13.909 16.6319 13.5635 16.7871L13.0391 15.7021C13.611 15.3446 14.541 14.9747 15.7207 14.9746ZM27.4131 14.9736C28.1883 14.9736 28.9513 15.2125 29.4521 15.4629L28.915 16.7148C28.5335 16.5485 28.0085 16.3691 27.5078 16.3691C27.0313 16.3692 26.7451 16.5476 26.7451 16.834C26.7456 17.6441 29.5582 17.3108 29.5586 19.3134C29.5586 20.6255 28.3666 21.3408 26.9834 21.3408C26.2082 21.3408 25.3734 21.1628 24.6582 20.7812L25.2666 19.5527C25.6954 19.768 26.2444 19.959 26.8164 19.959C27.3771 19.9589 27.7109 19.7915 27.7109 19.458C27.7109 18.5644 24.849 18.9339 24.8496 16.9052C24.8496 15.618 25.9938 14.9736 27.4131 14.9736ZM9.82617 12.9726C11.7102 12.9726 12.6045 14.069 12.6045 15.5234C12.6045 17.2042 11.4118 18.1943 9.82617 18.1943H8.62207V21.1992H6.66699V12.9726H9.82617ZM39.3271 12.4834C39.6735 12.4834 39.971 12.5314 40.2334 12.6025V13.9609C40.0791 13.9138 39.853 13.8779 39.6738 13.8779C39.0891 13.8779 38.8741 14.2592 38.874 14.7959V15.1181H40.1855V16.4179H38.874V21.1992H36.9785V16.4179H35.9648V15.1181H36.9785V14.8672C36.9786 13.4249 37.7888 12.4834 39.3271 12.4834ZM16.1611 18.5879C15.006 18.3966 14.6113 18.8859 14.6113 19.3867C14.6113 19.8275 14.9343 20.1015 15.4111 20.1015C15.7094 20.1014 15.9837 19.9944 16.1611 19.8633V18.5879ZM33.5098 18.5879C32.3547 18.3966 31.96 18.8859 31.96 19.3867C31.96 19.8274 32.2822 20.1014 32.7588 20.1015C33.0572 20.1015 33.3315 19.9945 33.5107 19.8633H33.5098V18.5879ZM43.3389 16.3105C42.814 16.3105 42.3972 16.7278 42.3252 17.539H44.3525C44.2805 16.7287 43.8637 16.3105 43.3389 16.3105ZM8.62207 14.4023V16.7627H9.6123C10.2964 16.7625 10.7464 16.3096 10.7061 15.4951C10.6752 14.8786 10.1505 14.4024 9.5332 14.4023H8.62207Z" fill="#2D2341"/>
</svg>
