<svg width="58" height="40" viewBox="0 0 58 40" fill="none" xmlns="http://www.w3.org/2000/svg">
<rect x="0.5" y="0.5" width="57" height="39" rx="3.5" fill="white"/>
<rect x="0.5" y="0.5" width="57" height="39" rx="3.5" stroke="#E5E7EB"/>
<path d="M13.627 26.0931C13.8162 26.0932 13.9726 26.1795 14.0957 26.3509V26.1322H14.4727V27.5511C14.4726 27.7375 14.4576 27.877 14.4277 27.9691C14.398 28.0612 14.3565 28.1334 14.3027 28.1859C14.2488 28.2384 14.1769 28.2802 14.0869 28.3099C13.9969 28.3396 13.8826 28.3548 13.7451 28.3548C13.4855 28.3548 13.3012 28.3083 13.1924 28.2162C13.0836 28.1239 13.0293 28.0064 13.0293 27.8646C13.0293 27.8507 13.0303 27.8337 13.0312 27.8138L13.4922 27.8656C13.4999 27.924 13.5173 27.9644 13.5449 27.9867C13.5835 28.0182 13.6447 28.0345 13.7275 28.0345C13.8337 28.0345 13.9137 28.0183 13.9668 27.9857C14.0022 27.9638 14.0295 27.9286 14.0479 27.8802C14.0603 27.8454 14.0664 27.7811 14.0664 27.6878L14.0674 27.4574C13.9476 27.6256 13.7957 27.7101 13.6113 27.7103C13.4054 27.7103 13.2423 27.6204 13.1221 27.4408C13.0278 27.2988 12.9805 27.1219 12.9805 26.9105C12.9805 26.6456 13.0425 26.443 13.166 26.3031C13.2895 26.1634 13.4434 26.0931 13.627 26.0931ZM30.8848 27.2523L31.2432 26.1322H31.6621L31.0244 27.9281C30.9888 28.0204 30.955 28.0913 30.9229 28.14C30.8907 28.1885 30.8533 28.228 30.8115 28.2581C30.7696 28.2884 30.7182 28.3117 30.6572 28.3285C30.5961 28.3455 30.5262 28.3548 30.4492 28.3548C30.3714 28.3548 30.2946 28.3463 30.2197 28.3294L30.1816 28.0023C30.2453 28.0154 30.3034 28.0218 30.3545 28.0218C30.4493 28.0218 30.519 27.9924 30.5645 27.9349C30.6099 27.8771 30.6448 27.8033 30.6689 27.7142L30.0859 26.1322H30.5176L30.8848 27.2523ZM8.95703 25.4925C9.22196 25.4926 9.4217 25.5532 9.55566 25.6732C9.68937 25.7933 9.75984 25.9534 9.7666 26.1537L9.33887 26.1712C9.32063 26.0592 9.28175 25.9783 9.22168 25.929C9.16171 25.8799 9.07124 25.8558 8.95117 25.8558C8.82724 25.8558 8.73031 25.8823 8.66016 25.9349C8.6151 25.9685 8.59279 26.0134 8.59277 26.0697C8.59277 26.1213 8.61399 26.1657 8.65625 26.2025C8.71013 26.2489 8.84091 26.2969 9.04785 26.347C9.255 26.3974 9.40844 26.45 9.50781 26.5042C9.60695 26.5583 9.68505 26.6322 9.74121 26.7259C9.79718 26.8199 9.82513 26.9358 9.8252 27.0736C9.8252 27.1989 9.79098 27.3168 9.72363 27.4261C9.6563 27.5352 9.56133 27.6162 9.43848 27.6693C9.31547 27.7224 9.16214 27.7494 8.97852 27.7494C8.71145 27.7493 8.50653 27.6849 8.36328 27.557C8.22023 27.429 8.1344 27.2426 8.10645 26.9974L8.52148 26.9535C8.54642 27.0976 8.59661 27.204 8.67285 27.2718C8.74931 27.3395 8.85272 27.3734 8.98242 27.3734C9.11979 27.3734 9.22321 27.3426 9.29297 27.2826C9.36246 27.2224 9.39746 27.1521 9.39746 27.0716C9.39737 27.0202 9.38254 26.9761 9.35352 26.9398C9.32422 26.9037 9.2728 26.8729 9.2002 26.846C9.15021 26.8285 9.03707 26.7966 8.86035 26.7513C8.63223 26.6932 8.47192 26.6215 8.37988 26.5365C8.25057 26.417 8.18556 26.271 8.18555 26.099C8.18555 25.9884 8.21631 25.8847 8.27734 25.7884C8.33823 25.6921 8.4264 25.619 8.54102 25.5687C8.65585 25.5183 8.79471 25.4925 8.95703 25.4925ZM16.4551 26.0931C16.6833 26.0932 16.8632 26.1717 16.9951 26.3275C17.1271 26.4836 17.1903 26.7224 17.1846 27.0443H16.166C16.1688 27.1684 16.2017 27.2652 16.2646 27.3343C16.3277 27.4032 16.4068 27.4378 16.501 27.4378C16.5647 27.4378 16.6186 27.4205 16.6621 27.3851C16.7057 27.3497 16.7394 27.2921 16.7617 27.2132L17.1641 27.2826C17.112 27.4345 17.0293 27.5507 16.917 27.6302C16.8049 27.7097 16.6644 27.7493 16.4961 27.7494C16.229 27.7494 16.0314 27.6588 15.9033 27.4789C15.802 27.3347 15.751 27.1529 15.751 26.933C15.751 26.6709 15.8173 26.4654 15.9502 26.3167C16.0831 26.168 16.2518 26.0931 16.4551 26.0931ZM20.9619 26.8578C20.9619 27.0796 20.9694 27.2159 20.9844 27.266C20.9992 27.3162 21.0261 27.3558 21.0654 27.3851C21.1049 27.4143 21.1552 27.429 21.2158 27.429C21.2848 27.429 21.3468 27.4096 21.4014 27.3705C21.4561 27.3314 21.4934 27.2829 21.5137 27.2249C21.5338 27.167 21.5439 27.0249 21.5439 26.7992V26.1322H21.9512V27.7103H21.5732V27.474C21.5173 27.5581 21.4445 27.6255 21.3535 27.6751C21.2626 27.7246 21.1664 27.7493 21.0654 27.7494C20.9623 27.7494 20.8691 27.7257 20.7871 27.679C20.7055 27.6324 20.6459 27.5669 20.6094 27.4828C20.5728 27.3984 20.5547 27.2818 20.5547 27.1331V26.1322H20.9619V26.8578ZM24.3848 26.0931C24.6162 26.0932 24.8061 26.1711 24.9541 26.3265C25.1021 26.4821 25.1758 26.6797 25.1758 26.9173C25.1757 27.1567 25.1015 27.3556 24.9521 27.513C24.8028 27.6705 24.6144 27.7493 24.3877 27.7494C24.2474 27.7494 24.1127 27.7162 23.9854 27.6507C23.8582 27.5851 23.7615 27.4892 23.6953 27.3626C23.6289 27.2358 23.5957 27.081 23.5957 26.8988C23.5957 26.7597 23.6289 26.6247 23.6953 26.4945C23.7616 26.3644 23.8559 26.2652 23.9775 26.1966C24.099 26.1281 24.2349 26.0931 24.3848 26.0931ZM29.1494 26.0931C29.3301 26.0931 29.4653 26.1155 29.5537 26.1595C29.642 26.2039 29.7043 26.2606 29.7402 26.3285C29.7762 26.3965 29.7939 26.5212 29.7939 26.7025L29.79 27.1908C29.79 27.3296 29.7967 27.4325 29.8096 27.4984C29.8226 27.5643 29.8464 27.635 29.8818 27.7103H29.4795C29.4688 27.6831 29.4558 27.6427 29.4404 27.5892C29.4337 27.5648 29.4294 27.5483 29.4268 27.5404C29.3577 27.6098 29.2836 27.6618 29.2051 27.6966C29.1264 27.7313 29.0423 27.7493 28.9531 27.7494C28.7956 27.7494 28.6708 27.7048 28.5801 27.6165C28.4896 27.5282 28.4444 27.4165 28.4443 27.2816C28.4443 27.1924 28.4647 27.1123 28.5059 27.0423C28.5472 26.9725 28.6055 26.9194 28.6797 26.8822C28.7542 26.8451 28.8619 26.8123 29.002 26.7845C29.1912 26.7479 29.3234 26.7128 29.3965 26.681V26.639C29.3964 26.5578 29.3765 26.4999 29.3379 26.4652C29.2991 26.4307 29.2263 26.4134 29.1191 26.4134C29.0467 26.4134 28.9899 26.428 28.9492 26.4574C28.9086 26.4869 28.8765 26.539 28.8516 26.6126L28.4863 26.5433C28.5276 26.3905 28.5984 26.2769 28.6992 26.2035C28.8002 26.13 28.9505 26.0931 29.1494 26.0931ZM35.3076 26.0931C35.536 26.0931 35.7157 26.1717 35.8477 26.3275C35.9796 26.4836 36.0428 26.7224 36.0371 27.0443H35.0186C35.0215 27.1685 35.0551 27.2652 35.1182 27.3343C35.181 27.4031 35.2593 27.4378 35.3535 27.4378C35.4173 27.4378 35.4711 27.4204 35.5146 27.3851C35.5585 27.3497 35.592 27.2921 35.6143 27.2132L36.0166 27.2826C35.9644 27.4345 35.8818 27.5507 35.7695 27.6302C35.6573 27.7096 35.517 27.7493 35.3486 27.7494C35.0817 27.7494 34.8841 27.6588 34.7559 27.4789C34.6546 27.3347 34.6035 27.1528 34.6035 26.933C34.6036 26.671 34.6702 26.4654 34.8027 26.3167C34.9358 26.168 35.1042 26.0931 35.3076 26.0931ZM38.7695 26.1322H39.0469V26.4652H38.7695V27.1039C38.7695 27.2327 38.7721 27.308 38.7773 27.3294C38.7824 27.3507 38.7943 27.3682 38.8125 27.3822C38.831 27.396 38.8535 27.4036 38.8799 27.4037C38.9169 27.4037 38.9702 27.3902 39.04 27.3636L39.0762 27.6869C38.9825 27.7285 38.8761 27.7493 38.7578 27.7494C38.685 27.7494 38.6189 27.7366 38.5605 27.7113C38.5025 27.6861 38.4599 27.6528 38.4326 27.6126C38.4054 27.5725 38.3864 27.518 38.376 27.4496C38.3673 27.4008 38.3633 27.3022 38.3633 27.1546V26.4652H38.1787V26.1322H38.3633V25.8167L38.7695 25.5706V26.1322ZM39.9736 26.0931C40.1842 26.0931 40.3409 26.1287 40.4434 26.1986C40.5454 26.2685 40.6155 26.3717 40.6543 26.5081L40.2734 26.5824C40.2569 26.5211 40.2249 26.4734 40.1787 26.4408C40.1324 26.4081 40.0667 26.3919 39.9814 26.3919C39.8739 26.3919 39.7966 26.4069 39.75 26.4378C39.7187 26.4597 39.7031 26.4889 39.7031 26.5238C39.7033 26.5535 39.7163 26.579 39.7432 26.5999C39.7798 26.6277 39.9074 26.6672 40.124 26.7181C40.3401 26.7689 40.4912 26.8311 40.5771 26.9046C40.6619 26.9793 40.7051 27.0837 40.7051 27.2171C40.7051 27.3625 40.6463 27.4876 40.5293 27.5921C40.4119 27.6968 40.2384 27.7494 40.0088 27.7494C39.8005 27.7494 39.6352 27.7052 39.5137 27.6185C39.3923 27.5315 39.3128 27.414 39.2754 27.265L39.6816 27.2005C39.699 27.2811 39.7344 27.3423 39.7871 27.3841C39.84 27.426 39.9139 27.4466 40.0088 27.4466C40.1135 27.4466 40.1924 27.4269 40.2451 27.3871C40.2806 27.359 40.2988 27.3217 40.2988 27.2747C40.2988 27.2431 40.2887 27.2164 40.2695 27.1956C40.2491 27.1756 40.2034 27.157 40.1328 27.14C39.8045 27.0652 39.5966 26.9964 39.5088 26.9349C39.387 26.8496 39.3262 26.7312 39.3262 26.5794C39.3262 26.4423 39.3782 26.327 39.4834 26.2337C39.5888 26.1404 39.7524 26.0931 39.9736 26.0931ZM46.0957 26.0931C46.3238 26.0932 46.5037 26.1717 46.6357 26.3275C46.7676 26.4836 46.8309 26.7224 46.8252 27.0443H45.8066C45.8096 27.1684 45.8425 27.2652 45.9053 27.3343C45.9685 27.4032 46.0476 27.4378 46.1416 27.4378C46.2054 27.4378 46.2591 27.4204 46.3027 27.3851C46.3463 27.3497 46.3799 27.2921 46.4023 27.2132L46.8047 27.2826C46.7526 27.4345 46.6699 27.5507 46.5576 27.6302C46.4455 27.7097 46.305 27.7493 46.1367 27.7494C45.8696 27.7494 45.6711 27.6588 45.543 27.4789C45.4419 27.3348 45.3916 27.1527 45.3916 26.933C45.3916 26.671 45.458 26.4654 45.5908 26.3167C45.7236 26.168 45.8925 26.0931 46.0957 26.0931ZM47.8389 26.0931C48.0193 26.0931 48.1538 26.1157 48.2422 26.1595C48.3306 26.2039 48.3937 26.2605 48.4297 26.3285C48.4656 26.3965 48.4834 26.5213 48.4834 26.7025L48.4795 27.1908C48.4795 27.3296 48.4861 27.4325 48.499 27.4984C48.5121 27.5643 48.5359 27.635 48.5713 27.7103H48.1689C48.1582 27.6831 48.1454 27.6427 48.1299 27.5892C48.1233 27.5649 48.1189 27.5483 48.1162 27.5404C48.0471 27.6098 47.9731 27.6618 47.8945 27.6966C47.8158 27.7313 47.7309 27.7494 47.6416 27.7494C47.4843 27.7493 47.3601 27.7047 47.2695 27.6165C47.1791 27.5282 47.1338 27.4165 47.1338 27.2816C47.1338 27.1924 47.154 27.1123 47.1953 27.0423C47.2366 26.9725 47.2949 26.9194 47.3691 26.8822C47.4437 26.8451 47.5513 26.8123 47.6914 26.7845C47.8806 26.7479 48.0118 26.7128 48.085 26.681V26.639C48.0849 26.5578 48.0659 26.4999 48.0273 26.4652C47.9887 26.4306 47.9158 26.4134 47.8086 26.4134C47.7362 26.4134 47.6793 26.428 47.6387 26.4574C47.5982 26.4868 47.565 26.539 47.54 26.6126L47.1758 26.5433C47.2171 26.3905 47.2878 26.2769 47.3887 26.2035C47.4897 26.13 47.6399 26.0931 47.8389 26.0931ZM10.6748 27.7103H10.2686V26.1322H10.6748V27.7103ZM12.0586 26.0931C12.1477 26.0932 12.229 26.1108 12.3027 26.1439C12.3766 26.1771 12.4327 26.2193 12.4707 26.2708C12.5087 26.3224 12.5359 26.3811 12.5508 26.4466C12.5656 26.512 12.5723 26.606 12.5723 26.7279V27.7103H12.166V26.9037C12.166 26.733 12.1578 26.6217 12.1406 26.5716C12.1234 26.5219 12.0951 26.4832 12.0566 26.4554C12.0179 26.4277 11.9705 26.4134 11.916 26.4134C11.8463 26.4135 11.7839 26.4334 11.7285 26.473C11.673 26.5127 11.6348 26.5656 11.6143 26.6312C11.5937 26.6967 11.583 26.818 11.583 26.9945V27.7103H11.1768V26.1322H11.5537V26.3646C11.6872 26.1841 11.856 26.0931 12.0586 26.0931ZM15.3652 27.7103H14.959V25.5316H15.3652V27.7103ZM20.0781 25.8988H18.9424V26.3831H19.999V26.7503H18.9424V27.3431H20.1201V27.7103H18.5146V25.5316H20.0781V25.8988ZM23.1641 26.0931C23.2562 26.0931 23.3452 26.1197 23.4307 26.1722L23.3076 26.5384C23.2392 26.4929 23.175 26.4701 23.1162 26.4701C23.0593 26.4701 23.0112 26.4859 22.9717 26.5179C22.9321 26.5503 22.9006 26.6085 22.8779 26.6927C22.8553 26.7769 22.8438 26.9535 22.8438 27.222V27.7103H22.4375V26.1322H22.8145V26.3568C22.8788 26.2511 22.9369 26.1808 22.9883 26.1458C23.0398 26.1111 23.0986 26.0931 23.1641 26.0931ZM27.1846 25.5316C27.4435 25.5316 27.6126 25.5421 27.6914 25.5638C27.8123 25.5964 27.9134 25.6682 27.9951 25.7777C28.0768 25.8871 28.1182 26.029 28.1182 26.2025C28.1181 26.3359 28.0948 26.4481 28.0479 26.5394C28.0009 26.6304 27.9406 26.7022 27.8682 26.7542C27.7958 26.8063 27.7223 26.8409 27.6475 26.8578C27.5456 26.8786 27.3979 26.889 27.2051 26.889H26.9277V27.7103H26.5V25.5316H27.1846ZM33.7324 26.0931C33.8451 26.0931 33.9406 26.1171 34.0186 26.1644C34.0964 26.2113 34.1549 26.281 34.1934 26.3724C34.221 26.4398 34.2344 26.549 34.2344 26.6996V27.7103H33.8281V26.807C33.8281 26.6503 33.8138 26.549 33.7861 26.5033C33.7486 26.4435 33.691 26.4134 33.6133 26.4134C33.5568 26.4135 33.5038 26.4315 33.4541 26.4671C33.4042 26.503 33.3677 26.5553 33.3457 26.6244C33.3236 26.6932 33.3125 26.802 33.3125 26.9505V27.7103H32.9062V26.8441C32.9062 26.6905 32.8992 26.5913 32.8848 26.5462C32.8704 26.5017 32.8476 26.4685 32.8174 26.4466C32.7871 26.4249 32.7462 26.4134 32.6943 26.4134C32.632 26.4134 32.5753 26.4305 32.5254 26.4652C32.4756 26.4999 32.4397 26.5502 32.418 26.6156C32.3964 26.6811 32.3857 26.7899 32.3857 26.9417V27.7103H31.9795V26.1322H32.3525V26.348C32.4865 26.1784 32.646 26.0932 32.8311 26.0931C32.9291 26.0931 33.0147 26.1141 33.0869 26.1556C33.1592 26.1974 33.2185 26.2608 33.2646 26.3451C33.3319 26.2609 33.4047 26.1974 33.4824 26.1556C33.5605 26.114 33.6439 26.0931 33.7324 26.0931ZM37.333 26.0931C37.4221 26.0932 37.5035 26.1108 37.5771 26.1439C37.651 26.1771 37.7072 26.2193 37.7451 26.2708C37.7831 26.3224 37.8093 26.3811 37.8242 26.4466C37.8392 26.5121 37.8467 26.6059 37.8467 26.7279V27.7103H37.4404V26.9037C37.4404 26.733 37.4321 26.6217 37.415 26.5716C37.3978 26.5219 37.3695 26.4831 37.3311 26.4554C37.2923 26.4277 37.2449 26.4134 37.1904 26.4134C37.1208 26.4135 37.0582 26.4334 37.0029 26.473C36.9474 26.5127 36.9093 26.5656 36.8887 26.6312C36.8682 26.6967 36.8574 26.818 36.8574 26.9945V27.7103H36.4512V26.1322H36.8281V26.3646C36.9617 26.1841 37.1304 26.0931 37.333 26.0931ZM43.9639 27.7103H43.5039L43.3203 27.2171H42.4688L42.2949 27.7103H41.8428L42.6611 25.5316H43.1104L43.9639 27.7103ZM44.9814 26.0931C45.0736 26.0931 45.1625 26.1197 45.248 26.1722L45.125 26.5384C45.0564 26.4929 44.9924 26.4701 44.9336 26.4701C44.8766 26.4701 44.8286 26.4859 44.7891 26.5179C44.7495 26.5503 44.7178 26.6085 44.6953 26.6927C44.6725 26.7769 44.6611 26.9535 44.6611 27.222V27.7103H44.2549V26.1322H44.6318V26.3568C44.6962 26.2511 44.7541 26.1808 44.8057 26.1458C44.857 26.1111 44.9158 26.0931 44.9814 26.0931ZM29.1494 27.0179C29.0373 27.0427 28.964 27.0674 28.9297 27.0912C28.8769 27.13 28.8506 27.1791 28.8506 27.2386C28.8506 27.2974 28.8719 27.3481 28.9141 27.391C28.9563 27.4336 29.0099 27.4554 29.0752 27.4554C29.1478 27.4553 29.2171 27.4306 29.2832 27.3812C29.332 27.3433 29.3646 27.2963 29.3799 27.2415C29.3903 27.2057 29.3955 27.1376 29.3955 27.0374V26.9535C29.3436 26.9714 29.2616 26.993 29.1494 27.0179ZM47.8389 27.0179C47.7267 27.0427 47.6536 27.0674 47.6191 27.0912C47.5663 27.13 47.5401 27.1791 47.54 27.2386C47.54 27.2974 47.5613 27.3481 47.6035 27.391C47.6456 27.4337 47.6994 27.4554 47.7646 27.4554C47.8373 27.4553 47.9066 27.4306 47.9727 27.3812C48.0215 27.3433 48.054 27.2963 48.0693 27.2415C48.0797 27.2057 48.085 27.1376 48.085 27.0374V26.9535C48.0332 26.9714 47.951 26.993 47.8389 27.0179ZM24.3867 26.4349C24.2806 26.4349 24.1914 26.4773 24.1191 26.5609C24.047 26.6443 24.0108 26.7644 24.0107 26.9212C24.0107 27.0785 24.0468 27.199 24.1191 27.2826C24.1914 27.366 24.2807 27.4076 24.3867 27.4076C24.4926 27.4075 24.5816 27.366 24.6533 27.2826C24.7251 27.199 24.7607 27.0774 24.7607 26.9183C24.7607 26.7635 24.7249 26.6443 24.6533 26.5609C24.5816 26.4774 24.4927 26.4349 24.3867 26.4349ZM13.7275 26.4134C13.6312 26.4134 13.5516 26.4527 13.4893 26.5306C13.4268 26.6087 13.3955 26.7273 13.3955 26.8871C13.3955 27.055 13.4267 27.1783 13.4893 27.2562C13.5515 27.3341 13.6283 27.3733 13.7197 27.3734C13.8178 27.3734 13.901 27.3332 13.9688 27.2533C14.0363 27.1733 14.0703 27.0547 14.0703 26.8978C14.0703 26.734 14.0375 26.6121 13.9727 26.5326C13.9078 26.4534 13.8264 26.4135 13.7275 26.4134ZM42.5986 26.8499H43.1797L42.8838 26.0414L42.5986 26.8499ZM16.4785 26.4134C16.3897 26.4135 16.3167 26.4477 16.2588 26.515C16.2007 26.5823 16.1719 26.6737 16.1729 26.7894H16.7822C16.7794 26.6666 16.7485 26.5732 16.6904 26.5091C16.6325 26.4453 16.5616 26.4134 16.4785 26.4134ZM35.3311 26.4134C35.2424 26.4135 35.1691 26.4477 35.1113 26.515C35.0533 26.5823 35.0245 26.6737 35.0254 26.7894H35.6348C35.6318 26.6666 35.6012 26.5732 35.543 26.5091C35.4852 26.4454 35.4141 26.4134 35.3311 26.4134ZM46.1191 26.4134C46.0302 26.4135 45.9573 26.4477 45.8994 26.515C45.8414 26.5823 45.8124 26.6737 45.8135 26.7894H46.4229C46.4199 26.6666 46.389 26.5732 46.3311 26.5091C46.273 26.4453 46.2021 26.4134 46.1191 26.4134ZM26.9277 26.5218H27.1602C27.3278 26.5218 27.4405 26.5106 27.4971 26.4876C27.5535 26.4647 27.5979 26.4282 27.6299 26.3792C27.6619 26.3305 27.6777 26.2731 27.6777 26.2083C27.6776 26.1287 27.6553 26.0629 27.6104 26.0111C27.5654 25.9593 27.5082 25.9274 27.4395 25.9144C27.3886 25.9044 27.2863 25.8988 27.1328 25.8988H26.9277V26.5218ZM10.6748 25.9164H10.2686V25.5316H10.6748V25.9164ZM12.8213 13.3939C13.9833 13.3939 14.812 13.4624 15.3057 13.599C16.5103 13.9328 17.1123 14.8683 17.1123 16.4046C17.1123 16.5307 17.1038 16.7194 17.0859 16.971H14.3174C14.3174 16.5025 14.2635 16.1877 14.1572 16.0277C13.9925 15.7909 13.538 15.6722 12.7939 15.6722C12.0711 15.6722 11.5912 15.7408 11.3574 15.8773C11.1241 16.0143 11.0069 16.3118 11.0068 16.7699C11.0068 17.185 11.1107 17.4592 11.3184 17.5902C11.4671 17.6831 11.6642 17.7369 11.9092 17.7533L12.4668 17.7943C13.6632 17.8762 14.4108 17.9343 14.709 17.9671C15.6553 18.0655 16.3419 18.3249 16.7676 18.7455C17.1023 19.0735 17.3015 19.5023 17.3652 20.0316C17.4025 20.3483 17.4219 20.7067 17.4219 21.1048C17.4219 22.0228 17.3361 22.6954 17.166 23.1214C16.8577 23.903 16.1653 24.3965 15.0879 24.6039C14.6365 24.6915 13.9461 24.7357 13.0176 24.7357C11.4674 24.7357 10.3866 24.6408 9.77637 24.4496C9.02754 24.2152 8.53384 23.7396 8.29492 23.0247C8.16192 22.6267 8.0957 21.964 8.0957 21.0365H10.8643V21.2738C10.8643 21.7689 11.0029 22.0871 11.2783 22.2289C11.4692 22.3266 11.6998 22.378 11.9707 22.3841H12.9883C13.5076 22.3841 13.8394 22.3571 13.9824 22.3021C14.2366 22.1989 14.4036 22.0327 14.4834 21.8031C14.5258 21.6616 14.5469 21.4782 14.5469 21.2542C14.5469 20.7524 14.3692 20.4469 14.0146 20.3372C13.882 20.294 13.264 20.2331 12.1621 20.1566C11.2774 20.0914 10.6626 20.0288 10.3184 19.9681C9.41209 19.7933 8.80827 19.4338 8.50684 18.888C8.24189 18.4242 8.10938 17.7223 8.10938 16.7835C8.10939 16.0689 8.18115 15.4959 8.32422 15.0648C8.46749 14.6335 8.69799 14.3053 9.0166 14.0814C9.48329 13.7377 10.0807 13.5362 10.8076 13.4759C11.4124 13.4216 12.0833 13.3939 12.8213 13.3939ZM34.8057 13.3333C35.5659 13.3334 36.1463 13.3978 36.5449 13.5257C37.4567 13.8204 38.0685 14.4237 38.3818 15.3353C38.5435 15.8137 38.625 16.5339 38.625 17.4955C38.625 18.652 38.5349 19.4836 38.3574 19.9896C38.0018 20.9903 37.2695 21.5668 36.1641 21.7162C36.0337 21.7386 35.4806 21.7587 34.5049 21.7747L34.0107 21.7914H32.2363V24.7357H29.2607V13.3333H34.8057ZM48.5596 24.7357H45.5449L44.9775 22.765H40.998L40.4639 24.7357H37.3848L40.707 13.3333H45.1963L48.5596 24.7357ZM41.6387 20.5433H44.3867L42.9922 15.6009L41.6387 20.5433ZM32.2373 19.1468H34.0928C34.6805 19.125 35.038 19.0782 35.167 19.0052C35.3428 18.9055 35.4608 18.7059 35.5195 18.4066C35.5571 18.2073 35.5762 17.9106 35.5762 17.5169C35.5762 17.0347 35.5389 16.6772 35.4639 16.4437C35.3568 16.1168 35.1003 15.9174 34.6943 15.8451C34.614 15.8342 34.4214 15.8285 34.1172 15.8285H32.2373V19.1468Z" fill="#10298E"/>
<path fill-rule="evenodd" clip-rule="evenodd" d="M25.153 14.9375C26.3804 14.9375 27.4759 15.5206 28.196 16.4339L28.8375 15.0156C27.8342 14.0377 26.4687 13.4348 24.9626 13.4348C22.6176 13.4348 20.6117 14.8952 19.7884 16.9624H18.5375L17.7988 18.5953H19.4081C19.396 18.7468 19.3882 18.8984 19.3882 19.053C19.3882 19.2402 19.3976 19.4251 19.4156 19.6079H18.6068L17.8683 21.2413H19.8268C20.6735 23.2562 22.6544 24.6708 24.9626 24.6708C26.1258 24.6708 27.2052 24.3114 28.0989 23.6975V21.6957C27.3792 22.5406 26.3265 23.0746 25.153 23.0746C23.7811 23.0746 22.5744 22.3452 21.8718 21.2413H25.9729L26.7114 19.6079H21.2684C21.2403 19.4113 21.2253 19.2104 21.2253 19.0058C21.2253 18.8675 21.2323 18.7306 21.2452 18.5953H27.1691L27.9076 16.9624H21.7575C22.4376 15.752 23.7033 14.9375 25.153 14.9375Z" fill="#FFBE00"/>
</svg>
