<svg width="58" height="40" viewBox="0 0 58 40" fill="none" xmlns="http://www.w3.org/2000/svg">
<rect x="0.5" y="0.5" width="57" height="39" rx="3.5" fill="white"/>
<rect x="0.5" y="0.5" width="57" height="39" rx="3.5" stroke="#E5E7EB"/>
<path d="M20.3672 16.4551C21.6626 16.4551 22.3613 16.6625 22.9629 16.8779L22.9932 16.8867V18.6533L22.9707 18.6475C22.7293 18.5428 22.4453 18.4395 22.4453 18.4395C21.9358 18.2832 21.2227 18.1172 20.6719 18.1172C20.3585 18.1172 19.5248 18.1175 19.5244 18.7617C19.5244 19.2962 20.1051 19.335 20.3555 19.3516C22.1912 19.4777 23.285 20.3984 23.2852 21.8145C23.2852 23.0641 22.3069 24.3242 20.124 24.3242C19.112 24.3242 18.2483 24.2229 17.4824 24.0166V22.1973C17.9939 22.4127 18.837 22.6387 19.7051 22.6387C20.497 22.6386 20.9678 22.3702 20.9678 21.9141C20.9675 21.3621 20.3921 21.3281 20.1748 21.3145C17.6181 21.136 17.3428 19.5863 17.3428 18.9287C17.343 17.7868 18.1343 16.4552 20.3672 16.4551ZM25.8281 20.5225C26.5955 19.5719 26.9121 18.6544 26.9561 18.54H29.2939C29.227 18.7589 28.8101 20.0738 27.8594 21.3086C27.8594 21.3086 28.919 23.2099 29.1611 24.2412H26.7119C26.7104 24.2342 26.4187 22.8693 25.8281 21.9619V24.2412H23.7832V16.8691L25.8281 16.4551V20.5225ZM32.3311 18.4629C32.3441 18.4624 32.6653 18.4505 32.8564 18.4922V20.1572C31.6963 20.1982 31.5684 20.6271 31.5684 21.6279V24.2412H29.5703V21.0371C29.5705 19.3647 30.5008 18.5233 32.3311 18.4629ZM35.4297 24.2412H33.4482V18.5459H35.4297V24.2412ZM38.25 24.2412H36.2695V16.8184L38.25 16.4551V24.2412ZM41.1426 24.2412H39.1611V16.8184L41.1426 16.4551V24.2412ZM34.4385 16C34.978 16 35.4148 16.4479 35.415 17C35.415 17.5527 34.9781 18 34.4385 18C33.8997 18 33.4619 17.5527 33.4619 17C33.4621 16.4478 33.8999 16 34.4385 16Z" fill="#862165"/>
</svg>
