<svg width="58" height="40" viewBox="0 0 58 40" fill="none" xmlns="http://www.w3.org/2000/svg">
<rect width="58" height="40" rx="4" fill="#F884A1"/>
<path d="M18.3525 27.6378C19.0725 27.6379 19.739 27.9845 20.0352 28.6563L19.0859 29.2735C18.9042 28.9687 18.6549 28.7677 18.3184 28.7677C17.9214 28.7678 17.6729 29.0452 17.6729 29.3985C17.6731 29.8209 18.0366 29.9529 18.6152 30.1261C19.5237 30.4032 20.2637 30.8677 20.2637 31.9415C20.2634 33.0984 19.3882 33.8878 18.2441 33.8878C17.4434 33.8876 16.757 33.5138 16.333 32.9181L17.1201 32.1075C17.3557 32.4193 17.7464 32.7588 18.2578 32.7589C18.7357 32.7589 19.0654 32.4674 19.0654 31.9962C19.0653 31.4975 18.6749 31.3726 18.0625 31.1925C16.9389 30.853 16.4816 30.2505 16.4814 29.4679C16.4814 28.484 17.2083 27.6378 18.3525 27.6378ZM22.8682 29.4679C24.0797 29.4679 25.0625 30.4653 25.0625 31.6778C25.0625 32.8903 24.0797 33.8878 22.8682 33.8878C21.6566 33.8878 20.6739 32.8904 20.6738 31.6778C20.6738 30.4653 21.6566 29.4679 22.8682 29.4679ZM30.3936 29.4679C31.6051 29.4679 32.5879 30.4653 32.5879 31.6778C32.5879 32.8904 31.6051 33.8878 30.3936 33.8878C29.1821 33.8877 28.1993 32.8903 28.1992 31.6778C28.1992 30.4653 29.182 29.4679 30.3936 29.4679ZM39.71 32.2667C40.1339 32.2668 40.4766 32.6272 40.4766 33.0567C40.4765 33.4931 40.1271 33.8466 39.71 33.8468C39.2859 33.8468 38.9424 33.4932 38.9424 33.0567C38.9424 32.6202 39.2859 32.2667 39.71 32.2667ZM37.2393 28.8995C37.2394 29.4676 37.6904 29.8974 38.3096 29.9112V31.0265C37.8519 31.0265 37.495 30.8876 37.2393 30.6104V31.6358C37.2393 32.3702 37.7034 32.6966 38.3428 32.6759V33.7843H38.1748C36.7748 33.7843 36.0947 32.8277 36.0947 31.7052V28.2413H37.2393V28.8995ZM27.8965 28.8233C27.257 28.7956 26.793 29.1279 26.793 29.8624V30.3126C27.0487 30.0356 27.4125 29.8966 27.8633 29.8966V31.0196C27.2306 31.0335 26.793 31.4493 26.793 32.0313V33.7774H25.6484V29.7931C25.6485 28.6706 26.3352 27.7149 27.7285 27.7149H27.8965V28.8233ZM35.4346 30.7843C34.7483 30.7844 34.3516 31.1726 34.3516 31.8653V33.7774H33.207V29.5851H34.3174V30.0636C34.5462 29.6826 34.9165 29.5028 35.4346 29.5235V30.7843ZM22.8682 30.5763C22.2759 30.5763 21.8184 31.0543 21.8184 31.6778C21.8184 32.3083 22.2826 32.7794 22.8682 32.7794C23.4537 32.7794 23.9179 32.3014 23.918 31.6778C23.918 31.0542 23.4538 30.5763 22.8682 30.5763ZM30.3936 30.5763C29.808 30.5763 29.3438 31.0542 29.3438 31.6778C29.3438 32.3083 29.808 32.7794 30.3936 32.7794C30.9859 32.7794 31.4433 32.3014 31.4434 31.6778C31.4434 31.0542 30.9791 30.5763 30.3936 30.5763ZM31.1484 6.9415C31.3975 5.9577 32.3736 5.37579 33.3428 5.62509C34.2111 5.88839 34.7295 6.7966 34.541 7.69736L32.9736 15.7257L33.6455 15.8868C33.8407 15.9146 34.0966 16.0396 34.3389 16.3028C34.7762 16.7809 34.9848 17.5776 34.8906 18.7413C34.5924 22.4258 32.8515 24.8525 28.8906 24.8927C28.8594 24.9016 28.827 24.9083 28.793 24.9083C25.87 24.9083 23.3916 22.7112 23.3164 19.5743L22.6533 18.8936C21.839 18.0553 21.7114 16.8843 22.3643 16.1915L22.4316 16.1153C22.7118 15.82 23.0802 15.6581 23.457 15.6368C23.0024 14.7139 23.1443 13.7011 23.8516 13.2052L23.9531 13.1358C24.7294 12.6731 25.3982 12.8556 25.9717 13.4444L25.3125 7.86337C25.0904 6.89333 25.6691 5.82594 26.5576 5.63193C27.0085 5.535 27.4865 5.62551 27.8701 5.88877C28.2536 6.15204 28.5228 6.56054 28.6104 7.01767L29.7285 11.9435L31.1484 6.9415ZM29.1357 15.5821C28.907 15.5406 28.6714 15.5337 28.4561 15.5821C28.1263 15.6583 27.9173 15.8451 27.8096 16.2052C27.6655 16.6995 27.6796 17.0756 27.9883 17.377C28.0592 17.4056 28.116 17.4542 28.1562 17.5147C28.3687 17.6608 28.6682 17.789 29.0752 17.9034L31.8682 18.5479C32.3324 18.6588 32.1848 19.3718 31.7207 19.2823L31.6328 19.2677C31.2829 19.233 30.8858 19.261 30.5225 19.3995C29.8426 19.6628 29.4181 20.2663 29.3643 21.3888C29.3506 21.5964 29.1823 21.7482 28.9805 21.7413C28.7787 21.7273 28.6242 21.5545 28.6377 21.3468C28.6915 20.1067 29.1624 19.296 29.916 18.8595L28.9004 18.6173C28.5491 18.5193 28.2538 18.4009 28.0078 18.2686C27.8898 18.4597 27.7372 18.6264 27.5537 18.755L27.4727 18.8106C27.4262 18.8429 27.3784 18.8718 27.3301 18.8985C27.657 19.5272 27.5707 20.3218 27.0684 20.8614L26.9951 20.9376C26.3625 21.6027 25.3326 21.6169 24.6797 20.9727L24.1357 20.4151C24.5716 22.6174 26.451 24.1033 28.6699 24.1563C28.6836 24.1548 28.6978 24.1534 28.7119 24.1534C32.3598 24.1879 33.894 22.0807 34.1699 18.6856C34.2506 17.7159 34.0893 17.1273 33.8066 16.8155C33.7328 16.7395 33.659 16.6841 33.5918 16.6563L33.5107 16.628L29.2705 15.6095C29.2503 15.6025 29.203 15.596 29.1357 15.5821ZM24.0225 16.545C23.6942 16.3062 23.2369 16.3392 22.9561 16.6417L22.8887 16.7179C22.5387 17.092 22.6132 17.799 23.1719 18.3741L25.1904 20.4317C25.5472 20.792 26.1197 20.7853 26.4697 20.4181L26.5371 20.3419C26.8647 19.9981 26.8791 19.4606 26.5869 19.0977C26.0552 19.1066 25.5299 18.8487 25.2051 18.3604L24.0225 16.545ZM25.79 14.3897C25.3258 13.6904 24.8752 13.4483 24.3369 13.7667L24.2627 13.8224C23.8454 14.1203 23.7909 14.8269 24.2217 15.506L25.8105 17.9376C26.0932 18.3672 26.6589 18.4786 27.0762 18.1876L27.1572 18.1388C27.2698 18.0629 27.3594 17.9563 27.4258 17.836C27.0299 17.4165 26.9315 16.9004 27.04 16.3097L26.2305 15.0665C26.2082 15.041 26.1895 15.0126 26.1748 14.9815L25.79 14.3897ZM33.1475 6.3458C32.5822 6.20048 32.0034 6.55381 31.8486 7.14267L30.0381 13.5313C29.9841 13.7321 29.782 13.8426 29.5869 13.7872C29.4358 13.7442 29.3379 13.6099 29.3262 13.4581L27.8965 7.17002C27.8426 6.89993 27.6878 6.66419 27.4658 6.51181C27.2437 6.35953 26.9675 6.3109 26.7051 6.3663C26.2341 6.47048 25.8841 7.12231 26.0254 7.7042L26.0322 7.74521L26.8477 14.669L27.3604 15.4571C27.5844 15.1367 27.9081 14.9377 28.2939 14.8477C28.617 14.7785 28.9473 14.7855 29.2637 14.8409C29.3578 14.8548 29.4252 14.875 29.4521 14.8819L32.2656 15.5558L33.8271 7.54404C33.9347 7.01755 33.632 6.4982 33.1475 6.3458Z" fill="white"/>
</svg>
