<svg width="58" height="40" viewBox="0 0 58 40" fill="none" xmlns="http://www.w3.org/2000/svg">
<rect x="0.5" y="0.5" width="57" height="39" rx="3.5" fill="white"/>
<rect x="0.5" y="0.5" width="57" height="39" rx="3.5" stroke="#E5E7EB"/>
<path d="M36.4336 14.9009C38.4405 14.9009 40.3331 16.7612 40.3447 20.1763C40.3447 23.9095 38.4747 25.606 36.4219 25.606C35.413 25.6059 34.8054 25.1699 34.3926 24.8638L34.3809 28.1968L31.5137 28.8208V15.0894H34.0371L34.1855 15.8188C34.587 15.442 35.3098 14.9009 36.4336 14.9009ZM11.9717 14.9009C12.9235 14.9009 13.8645 15.0542 14.8164 15.4429V18.2095C13.9448 17.7266 12.8433 17.4565 11.9717 17.4565C11.364 17.4566 10.9971 17.6331 10.9971 18.0923C10.9974 19.4111 15.3664 18.7871 15.3779 22.2964C15.3779 24.4044 13.7379 25.6177 11.3525 25.6177C10.3663 25.6177 9.28819 25.4169 8.22168 24.9458V22.1431C9.18498 22.6848 10.4007 23.0854 11.3525 23.0854C11.9948 23.0854 12.4541 22.9084 12.4541 22.3667C12.4533 20.9658 8.09607 21.4835 8.0957 18.2339C8.0957 16.1495 9.64376 14.901 11.9717 14.9009ZM18.7373 15.1011H20.917V17.6089H18.7373V21.7896C18.7373 23.5325 20.55 22.9915 20.917 22.8384V25.229C20.5386 25.441 19.8504 25.6176 18.9102 25.6177C17.213 25.6177 15.9397 24.334 15.9395 22.5913L15.9512 13.1577L18.749 12.5454L18.7373 15.1011ZM45.2412 14.9009C47.9592 14.9009 49.3818 17.2796 49.3818 20.2944C49.3818 20.577 49.3584 21.1888 49.3584 21.3423H43.75C43.8762 22.7319 44.8632 23.1323 45.9756 23.1323C47.1108 23.1323 48.0054 22.8852 48.7852 22.4849V24.8403C48.0053 25.2878 46.9731 25.6059 45.6084 25.606C42.8102 25.606 40.8604 23.8157 40.8604 20.271C40.8604 17.2798 42.5118 14.9009 45.2412 14.9009ZM24.4834 15.9722C25.16 14.7003 26.5021 14.9597 26.8691 15.1011V17.8091C26.5133 17.6796 25.3669 17.5158 24.6904 18.4224V25.4058H21.8232V15.1011H24.3008L24.4834 15.9722ZM30.4473 25.4058H27.5684V15.1011H30.4473V25.4058ZM35.7451 17.5151C35.0916 17.5152 34.679 17.7508 34.3809 18.0923L34.3926 22.4614C34.6678 22.7674 35.0689 23.0151 35.7451 23.0151C36.8001 23.0151 37.5116 21.8372 37.5117 20.2593C37.5117 18.7165 36.7887 17.5151 35.7451 17.5151ZM45.2295 17.2915C44.5071 17.2917 43.7159 17.8449 43.7158 19.1753H46.6748C46.6747 17.8447 45.929 17.2915 45.2295 17.2915ZM30.4473 13.5698L27.5684 14.2056V11.8032L30.4473 11.1792V13.5698Z" fill="#6461FC"/>
</svg>
