<svg width="40" height="25" viewBox="0 0 40 25" fill="none" xmlns="http://www.w3.org/2000/svg">
<g clip-path="url(#clip0_10001_1504)">
<path fill-rule="evenodd" clip-rule="evenodd" d="M25.3759 13.3239L24.8443 15.5787H25.028L24.9156 16.043H24.7319L24.698 16.1878H24.0433L24.0771 16.043H22.748L22.8515 15.614L22.9871 15.6122L23.5295 13.3239L23.6365 12.863H24.3055L24.252 13.0979C24.252 13.0979 24.4215 12.969 24.5838 12.9284C24.7515 12.8824 25.7184 12.8683 25.7184 12.8683L25.6078 13.3239L25.3759 13.3239ZM24.1985 13.3239L24.0647 13.9013C24.0647 13.9013 24.2538 13.813 24.3608 13.783C24.4678 13.7547 24.632 13.7442 24.632 13.7442L24.7319 13.3239L24.1985 13.3239ZM23.9933 14.1873L23.8524 14.7859C23.8524 14.7859 24.0468 14.6817 24.1556 14.6552C24.2609 14.6252 24.425 14.6076 24.425 14.6076L24.5249 14.1873H23.9933ZM23.665 15.584H24.1967L24.3162 15.0772H23.7828L23.665 15.584Z" fill="white"/>
<path fill-rule="evenodd" clip-rule="evenodd" d="M25.7432 12.8677H26.455L26.4639 13.129C26.4586 13.1714 26.4978 13.1943 26.5799 13.1961H26.7012L26.5941 13.6287H26.207C25.8752 13.6534 25.7485 13.5104 25.7574 13.3515L25.7432 12.8677Z" fill="white"/>
<path fill-rule="evenodd" clip-rule="evenodd" d="M25.8676 14.9251H25.1878L25.2788 14.5385H26.0549L26.1387 14.1853H25.3734L25.4769 13.751H27.6088L27.5035 14.1853H26.7899L26.7043 14.5385H27.4197L27.3287 14.9251H26.5544L26.4242 15.0876H26.74L26.8506 15.5767C26.8612 15.6244 26.8666 15.6544 26.8827 15.6756C26.8969 15.6932 26.9933 15.7021 27.0486 15.7021H27.1449L27.0308 16.177H26.7899C26.7525 16.177 26.6971 16.177 26.6186 16.1664C26.5473 16.1628 26.492 16.1205 26.4402 16.0958C26.3939 16.0764 26.3243 16.0216 26.3011 15.9316L26.1923 15.446L25.8765 15.9263C25.7712 16.0746 25.6285 16.1894 25.3716 16.1894H24.8774L24.9773 15.7674H25.1665C25.22 15.7674 25.2699 15.7479 25.302 15.7303C25.3377 15.7126 25.368 15.695 25.4037 15.6438L25.8676 14.9251Z" fill="white"/>
<path fill-rule="evenodd" clip-rule="evenodd" d="M18.3593 13.8674H20.1594L20.0559 14.293H19.3316L19.2459 14.6549H19.9774L19.8704 15.0946H19.1371L18.9962 15.6825C18.9783 15.7479 19.1746 15.7567 19.2459 15.7567L19.6099 15.7073L19.4921 16.1911H18.6644C18.5966 16.1911 18.5484 16.1822 18.4752 16.1646C18.4039 16.1487 18.37 16.1169 18.3343 16.071C18.304 16.0233 18.254 15.9845 18.279 15.8821L18.4681 15.1017H18.0596L18.1666 14.6549H18.5787L18.6644 14.293H18.2558L18.3593 13.8674Z" fill="white"/>
<path fill-rule="evenodd" clip-rule="evenodd" d="M19.5291 13.1045H20.2677L20.1606 13.5477H19.1527L19.0492 13.6413C19.0064 13.6872 18.9885 13.6695 18.9297 13.6995C18.8744 13.7278 18.7584 13.7861 18.6014 13.7861H18.2803L18.3837 13.3588H18.4783C18.5621 13.3588 18.6175 13.3517 18.6442 13.334C18.6745 13.3128 18.7084 13.2687 18.7441 13.1963L18.91 12.8608H19.6433L19.5291 13.1045Z" fill="white"/>
<path fill-rule="evenodd" clip-rule="evenodd" d="M20.5699 12.8648H21.2015L21.1265 13.1791C21.1265 13.1791 21.3139 13.0219 21.453 12.969C21.5868 12.916 21.899 12.8701 21.899 12.8701L22.9159 12.863L22.6394 14.0072C22.593 14.2032 22.5341 14.3285 22.4931 14.3886C22.4574 14.4433 22.4182 14.4963 22.3308 14.5422C22.2487 14.5881 22.1702 14.6128 22.0988 14.6234C22.0328 14.627 21.9294 14.6287 21.7866 14.6305H20.809L20.5896 15.5345C20.5664 15.6245 20.5592 15.6669 20.5771 15.6899C20.5913 15.7128 20.627 15.7375 20.6734 15.7375L21.1016 15.6952L20.9874 16.1913H20.5004C20.3487 16.1913 20.2346 16.1895 20.1596 16.1825C20.0829 16.1772 20.0026 16.1825 19.9491 16.1419C19.9027 16.1031 19.8314 16.0536 19.8296 16.0007C19.8314 15.9495 19.8475 15.8665 19.8706 15.757L20.5699 12.8648ZM21.9757 14.0195H20.9481L20.8982 14.2244H21.7902C21.8937 14.2138 21.9169 14.2296 21.9222 14.2244L21.9757 14.0195ZM20.991 13.8341C20.991 13.8341 21.1801 13.654 21.5226 13.594C21.5993 13.5781 22.0935 13.5835 22.0935 13.5835L22.1488 13.3398H21.1123L20.991 13.8341Z" fill="white"/>
<path fill-rule="evenodd" clip-rule="evenodd" d="M22.5127 14.7114L22.4735 14.9869C22.4503 15.0699 22.4342 15.1352 22.3754 15.1917C22.3076 15.2482 22.2308 15.3082 22.0417 15.3082L21.6956 15.3223L21.7099 15.6331C21.7135 15.7214 21.7349 15.7125 21.751 15.7249C21.7688 15.7408 21.7813 15.7479 21.7973 15.7531L21.9097 15.7479L22.238 15.7285L22.1309 16.1822H21.751C21.4816 16.1822 21.28 16.1769 21.214 16.1275C21.1462 16.0833 21.1355 16.0321 21.1319 15.9492L21.0784 14.7361H21.6903L21.6974 14.9869H21.8437C21.8954 14.9869 21.9276 14.9798 21.949 14.9657C21.965 14.9534 21.9757 14.9339 21.9864 14.9021L22.031 14.7114L22.5127 14.7114Z" fill="white"/>
<path d="M13.7894 8.64805C13.7662 8.74693 13.3755 10.5338 13.3737 10.5338C13.2899 10.8975 13.2257 11.1553 13.0223 11.323C12.8992 11.4166 12.7618 11.4643 12.6048 11.4643C12.3479 11.4643 12.1963 11.3389 12.1695 11.097L12.1624 11.0158C12.1624 11.0158 12.2427 10.532 12.2427 10.5303C12.2427 10.5303 12.6548 8.89878 12.7297 8.68336C12.7316 8.67281 12.7334 8.66569 12.7369 8.65863C11.9358 8.66746 11.7931 8.66044 11.7842 8.64453C11.7788 8.66221 11.7574 8.7646 11.7574 8.7646L11.3382 10.6027L11.2989 10.758L11.2329 11.2683C11.2329 11.4166 11.2614 11.5438 11.3221 11.6444C11.513 11.9781 12.0607 12.0276 12.3676 12.0276C12.7654 12.0276 13.1365 11.941 13.3898 11.791C13.8269 11.5349 13.9428 11.1324 14.0427 10.7775L14.0891 10.5974C14.0891 10.5974 14.5155 8.90408 14.5869 8.68338C14.5887 8.67282 14.5922 8.6657 14.594 8.65865C14.0142 8.6657 13.8447 8.65861 13.7894 8.64805Z" fill="white"/>
<path d="M16.1267 12.0103C15.843 12.0051 15.7431 12.0051 15.4131 12.0209L15.397 11.9979C15.4273 11.8708 15.4594 11.749 15.488 11.6218L15.5272 11.4523C15.5896 11.184 15.6521 10.8767 15.6557 10.7814C15.6628 10.7267 15.6806 10.5836 15.5183 10.5836C15.4505 10.5836 15.3773 10.6172 15.3042 10.6507C15.2668 10.792 15.1829 11.1875 15.1454 11.3694C15.0634 11.7525 15.0562 11.7949 15.0205 11.982L14.9955 12.0103C14.703 12.005 14.6031 12.005 14.2677 12.0208L14.2534 11.9944C14.3069 11.7666 14.364 11.5388 14.4158 11.3111C14.5585 10.6984 14.5924 10.4618 14.6298 10.151L14.6566 10.128C14.9867 10.0875 15.0652 10.0751 15.422 10.0027L15.4505 10.0362L15.3952 10.234C15.4559 10.1969 15.5165 10.1616 15.5772 10.1281C15.7431 10.0504 15.9304 10.0257 16.0339 10.0257C16.1873 10.0257 16.3568 10.068 16.4282 10.2464C16.4995 10.4053 16.4513 10.5995 16.3621 10.9862L16.3193 11.1822C16.2248 11.6112 16.2123 11.6924 16.1606 11.982L16.1267 12.0103Z" fill="white"/>
<path d="M17.2863 12.01C17.115 12.0064 17.0062 12.0048 16.8992 12.0064C16.7921 12.01 16.6869 12.0117 16.5281 12.0205L16.5192 12.0064L16.5103 11.9941C16.553 11.8299 16.5763 11.7734 16.5977 11.7169C16.6191 11.6586 16.6405 11.6003 16.678 11.4344C16.7261 11.2207 16.7582 11.0706 16.7796 10.9382C16.8028 10.8111 16.8153 10.7034 16.8314 10.5763L16.8475 10.5674L16.8581 10.5569C17.0294 10.5321 17.1364 10.5163 17.2488 10.4986C17.3576 10.4809 17.4718 10.4615 17.6484 10.428L17.6538 10.4439L17.6609 10.458C17.6252 10.5922 17.5949 10.7264 17.561 10.8623C17.5289 10.993 17.4986 11.129 17.4682 11.2614C17.4004 11.5456 17.379 11.6516 17.363 11.724C17.3487 11.7981 17.3451 11.837 17.3202 11.9818L17.3041 11.9959L17.2863 12.01Z" fill="white"/>
<path d="M19.8317 11.0405C19.9316 10.608 19.8567 10.4067 19.7585 10.2831C19.6087 10.0959 19.35 10.0359 19.077 10.0359C18.9147 10.0359 18.5293 10.0536 18.2261 10.329C18.0102 10.5285 17.9049 10.7986 17.8461 11.06C17.7854 11.3231 17.714 11.8033 18.1547 11.9764C18.2921 12.0329 18.4883 12.0505 18.6132 12.0505C18.9397 12.0505 19.2715 11.9622 19.5195 11.6974C19.7139 11.4873 19.8014 11.173 19.8317 11.0405ZM19.0913 11.0088C19.0753 11.0812 19.011 11.3566 18.9218 11.4696C18.863 11.5544 18.7898 11.6056 18.7131 11.6056C18.6899 11.6056 18.549 11.6056 18.5454 11.3972C18.5454 11.2966 18.5633 11.1924 18.59 11.0776C18.665 10.751 18.7541 10.4791 18.9772 10.4791C19.1556 10.4791 19.1662 10.6803 19.0913 11.0088Z" fill="white"/>
<path d="M26.0959 11.5037C26.0388 11.5867 25.8996 11.6361 25.8229 11.6361C25.7997 11.6361 25.6606 11.6361 25.657 11.4331C25.6552 11.3324 25.6749 11.2283 25.7016 11.1135C25.7747 10.7939 25.8639 10.5202 26.0905 10.5202C26.235 10.5202 26.3064 10.6615 26.2868 10.8928C26.2743 10.944 26.2671 10.9917 26.2529 11.0535C26.2279 11.1523 26.1994 11.253 26.1744 11.3536C26.153 11.4119 26.128 11.4666 26.0959 11.5037ZM27.2234 10.0576C26.8666 10.1229 26.772 10.1353 26.4331 10.1812L26.4045 10.2042C26.4027 10.2324 26.3974 10.2589 26.3938 10.2854C26.3421 10.1989 26.269 10.1247 26.1476 10.0806C25.9942 10.0206 25.6392 10.0983 25.3359 10.3737C25.1183 10.5697 25.0184 10.8398 24.9541 11.0958C24.8953 11.3589 24.8239 11.8357 25.2645 12.0052C25.4037 12.0634 25.5321 12.0811 25.657 12.074C25.7962 12.067 25.9175 11.9963 26.0352 11.901C26.0228 11.9416 26.0138 11.9822 26.0031 12.0228L26.0228 12.0493C26.3403 12.0334 26.4385 12.0334 26.781 12.0387L26.8131 12.0122C26.8613 11.7227 26.9112 11.4402 27.0397 10.8822C27.1021 10.6156 27.1663 10.3525 27.2324 10.0876L27.2234 10.0576Z" fill="white"/>
<path d="M21.7685 12.0103C21.483 12.0051 21.3885 12.0051 21.0531 12.0209L21.0406 11.9979C21.071 11.8708 21.1031 11.749 21.1316 11.6218L21.1726 11.4523C21.2315 11.184 21.2939 10.8767 21.3011 10.7814C21.3047 10.7267 21.3225 10.5836 21.1601 10.5836C21.0941 10.5836 21.0192 10.6172 20.9461 10.6507C20.9086 10.792 20.8265 11.1875 20.7873 11.3694C20.7088 11.7525 20.7016 11.7949 20.666 11.982L20.6392 12.0103C20.3484 12.005 20.2485 12.005 19.9113 12.0208L19.8953 11.9944C19.9524 11.7666 20.0077 11.5388 20.0594 11.3111C20.2021 10.6984 20.2342 10.4618 20.2753 10.151L20.302 10.128C20.6303 10.0875 20.7088 10.0751 21.0656 10.0027L21.0941 10.0362L21.0406 10.234C21.0977 10.1969 21.1584 10.1616 21.219 10.1281C21.3867 10.0504 21.5723 10.0257 21.6739 10.0257C21.8292 10.0257 22.0004 10.068 22.0718 10.2464C22.1396 10.4053 22.095 10.5995 22.0058 10.9862L21.9612 11.1822C21.8684 11.6112 21.8541 11.6924 21.8024 11.982L21.7685 12.0103Z" fill="white"/>
<path d="M24.5429 9.6935C24.4911 9.91597 24.3466 10.1067 24.1575 10.1967C24.0005 10.2744 23.8132 10.2815 23.6152 10.2815H23.4867L23.4974 10.2303C23.4974 10.2303 23.7311 9.22383 23.7311 9.22736L23.7364 9.17792L23.7418 9.13557L23.8363 9.1444C23.8363 9.1444 24.318 9.18856 24.3287 9.1903C24.5178 9.26093 24.5982 9.4516 24.5429 9.6935ZM24.2342 8.64295L23.9987 8.64823C23.385 8.65528 23.1405 8.65184 23.0371 8.6394C23.0282 8.68357 23.0121 8.763 23.0121 8.763C23.0121 8.763 22.7944 9.77121 22.7944 9.77298C22.7944 9.77298 22.2681 11.9183 22.2432 12.0171C22.7766 12.0119 22.9978 12.0101 23.0888 12.0208C23.1102 11.9219 23.2351 11.3215 23.2369 11.3215C23.2369 11.3215 23.3421 10.8819 23.3493 10.866C23.3493 10.866 23.3796 10.8201 23.4153 10.8024H23.4652C23.9255 10.8024 24.4482 10.8024 24.8585 10.504C25.1351 10.301 25.3242 10.0008 25.4116 9.63357C25.4312 9.54351 25.449 9.43581 25.449 9.3281C25.449 9.19038 25.4205 9.04912 25.3384 8.93966C25.1315 8.65185 24.7158 8.64824 24.2342 8.64295Z" fill="white"/>
<path d="M17.593 10.2828C17.7803 10.1575 17.8053 9.97559 17.6465 9.88378C17.486 9.79019 17.2059 9.82021 17.0168 9.94734C16.8259 10.078 16.8062 10.2563 16.965 10.3499C17.1238 10.4417 17.4039 10.4135 17.593 10.2828Z" fill="white"/>
<path fill-rule="evenodd" clip-rule="evenodd" d="M29.5839 10.0538L29.5536 10.022C29.2039 10.0926 29.1414 10.105 28.8185 10.1456L28.7935 10.1685C28.7935 10.1756 28.7935 10.1791 28.7917 10.1844L28.7899 10.1792C28.549 10.7283 28.558 10.61 28.3635 11.0408C28.3617 11.0214 28.3617 11.0073 28.3617 10.9878L28.3119 10.0538L28.2815 10.022C27.9158 10.0926 27.9051 10.105 27.5679 10.1456L27.5411 10.1685C27.5375 10.1809 27.5358 10.1933 27.534 10.2056L27.5377 10.2109C27.5787 10.4245 27.5698 10.3786 27.6126 10.7158C27.6305 10.8818 27.6572 11.0496 27.6768 11.2155C27.7107 11.4857 27.7303 11.6234 27.7696 12.0401C27.5412 12.4162 27.4877 12.5574 27.2683 12.8859V12.8877L27.1131 13.1296C27.0952 13.1578 27.0792 13.1755 27.056 13.1808C27.0328 13.1931 26.9989 13.1967 26.9543 13.1967H26.8366L26.7349 13.6363L27.1773 13.6293C27.4342 13.6275 27.5983 13.5039 27.6858 13.345L27.9587 12.8771L29.5839 10.0538Z" fill="white"/>
<path d="M13.1189 5.5H18.7636C19.5521 5.5 20.0409 6.13564 19.8572 6.91783L17.2293 18.0839C17.0438 18.8644 16.257 19.5 15.4703 19.5H9.82382C9.03707 19.5 8.54646 18.8644 8.73022 18.0839L11.3599 6.91783C11.5436 6.13564 12.3304 5.5 13.1189 5.5Z" fill="#E31435"/>
<path d="M18.2913 5.5H23.9359C24.7227 5.5 25.2151 6.13564 25.0278 6.91783L22.4017 18.0839C22.2161 18.8644 21.4276 19.5 20.6373 19.5H14.9944C14.2059 19.5 13.7171 18.8644 13.9026 18.0839L16.5287 6.91783C16.7124 6.13564 17.5028 5.5 18.2913 5.5Z" fill="#0F3F75"/>
<path d="M24.5345 5.5H30.1738C30.9623 5.5 31.4547 6.13564 31.2692 6.91783L28.6413 18.0839C28.4575 18.8644 27.669 19.5 26.8805 19.5H21.2341C20.4473 19.5 19.9549 18.8644 20.1404 18.0839L22.7683 6.91783C22.9521 6.13564 23.7424 5.5 24.5345 5.5Z" fill="#00737F"/>
<path fill-rule="evenodd" clip-rule="evenodd" d="M25.3759 13.7438L24.8443 15.9951H25.028L24.9156 16.463H24.7319L24.698 16.606H24.0433L24.0771 16.463H22.748L22.8515 16.0322L22.9871 16.0303L23.5295 13.7438L23.6365 13.283H24.3055L24.252 13.516C24.252 13.516 24.4215 13.3871 24.5838 13.3448C24.7515 13.3024 25.7184 13.2847 25.7184 13.2847L25.6078 13.7438L25.3759 13.7438ZM24.1985 13.7438L24.0647 14.3195C24.0647 14.3195 24.2538 14.2312 24.3608 14.2029C24.4678 14.1747 24.632 14.1606 24.632 14.1606L24.7319 13.7439L24.1985 13.7438ZM23.9933 14.6073L23.8524 15.2023C23.8524 15.2023 24.0468 15.1016 24.1556 15.0716C24.2609 15.0434 24.425 15.0257 24.425 15.0257L24.5249 14.6073H23.9933ZM23.665 16.0021H24.1967L24.3162 15.4954H23.7828L23.665 16.0021Z" fill="white"/>
<path fill-rule="evenodd" clip-rule="evenodd" d="M25.7432 13.2869H26.455L26.4639 13.5482C26.4586 13.5923 26.4978 13.6117 26.5799 13.6135H26.7012L26.5941 14.0479H26.207C25.8752 14.0708 25.7485 13.9296 25.7574 13.7707L25.7432 13.2869Z" fill="white"/>
<path fill-rule="evenodd" clip-rule="evenodd" d="M25.8676 15.3438H25.1878L25.2788 14.9589H26.0549L26.1387 14.6058H25.3734L25.4769 14.1697H27.6088L27.5035 14.6058H26.7899L26.7043 14.9589H27.4197L27.3287 15.3438H26.5544L26.4242 15.5081H26.7399L26.8506 15.9954C26.8612 16.0413 26.8666 16.0731 26.8827 16.0943C26.8969 16.1102 26.9933 16.119 27.0486 16.119H27.1449L27.0307 16.5957H26.7899C26.7525 16.5957 26.6971 16.5939 26.6186 16.5869C26.5473 16.5833 26.492 16.5375 26.4402 16.5163C26.3938 16.4951 26.3243 16.4421 26.3011 16.3503L26.1923 15.8647L25.8765 16.3432C25.7712 16.4951 25.6285 16.6081 25.3716 16.6081H24.8774L24.9773 16.1878H25.1665C25.22 16.1878 25.2699 16.1649 25.302 16.1473C25.3377 16.1313 25.368 16.1137 25.4037 16.0643L25.8676 15.3438Z" fill="white"/>
<path fill-rule="evenodd" clip-rule="evenodd" d="M18.3593 14.2879H20.1594L20.0559 14.7116H19.3316L19.2459 15.0753H19.9774L19.8704 15.5132H19.1371L18.9962 16.0994C18.9783 16.1648 19.1746 16.1771 19.2459 16.1771L19.6099 16.1259L19.4921 16.6079H18.6644C18.5966 16.6079 18.5484 16.6027 18.4752 16.585C18.4039 16.5673 18.37 16.5356 18.3343 16.4896C18.304 16.4437 18.254 16.4014 18.279 16.3007L18.4681 15.5203H18.0596L18.1666 15.0753H18.5787L18.6644 14.7116H18.2558L18.3593 14.2879Z" fill="white"/>
<path fill-rule="evenodd" clip-rule="evenodd" d="M19.5291 13.5229H20.2677L20.1606 13.9661H19.1527L19.0492 14.0614C19.0064 14.1056 18.9885 14.0879 18.9297 14.1179C18.8744 14.1479 18.7584 14.2027 18.6014 14.2027H18.2803L18.3837 13.7771H18.4783C18.5621 13.7771 18.6175 13.7683 18.6442 13.7507C18.6745 13.733 18.7084 13.6871 18.7441 13.613L18.91 13.281H19.6433L19.5291 13.5229Z" fill="white"/>
<path fill-rule="evenodd" clip-rule="evenodd" d="M20.5699 13.283H21.2015L21.1265 13.599C21.1265 13.599 21.3139 13.4401 21.453 13.3871C21.5868 13.3342 21.899 13.2883 21.899 13.2883L22.9159 13.283L22.6394 14.4254C22.593 14.6231 22.5341 14.7485 22.4931 14.805C22.4574 14.8633 22.4182 14.9127 22.3308 14.9621C22.2487 15.0063 22.1702 15.0328 22.0988 15.0398C22.0328 15.0469 21.9294 15.0469 21.7866 15.0486H20.809L20.5896 15.9527C20.5664 16.0427 20.5592 16.0851 20.5771 16.1098C20.5913 16.1292 20.627 16.154 20.6734 16.154L21.1016 16.1134L20.9874 16.6113H20.5004C20.3487 16.6113 20.2346 16.6077 20.1596 16.6007C20.0829 16.5955 20.0026 16.6007 19.9491 16.5602C19.9027 16.5196 19.8314 16.4701 19.8296 16.4171C19.8314 16.3677 19.8475 16.2865 19.8706 16.177L20.5699 13.283ZM21.9757 14.4395H20.9481L20.8982 14.6443H21.7902C21.8937 14.6337 21.9169 14.6461 21.9222 14.6425L21.9757 14.4395ZM20.991 14.2541C20.991 14.2541 21.1801 14.0705 21.5226 14.0104C21.5993 13.9981 22.0935 14.0016 22.0935 14.0016L22.1488 13.7579H21.1123L20.991 14.2541Z" fill="white"/>
<path fill-rule="evenodd" clip-rule="evenodd" d="M22.5127 15.1282L22.4735 15.4036C22.4503 15.4884 22.4342 15.5537 22.3754 15.612C22.3076 15.6685 22.2308 15.7285 22.0417 15.7285L21.6956 15.7408L21.7099 16.0498C21.7135 16.1416 21.7349 16.131 21.751 16.1452C21.7688 16.1611 21.7813 16.1664 21.7973 16.1717L21.9097 16.1664L22.238 16.147L22.1309 16.6025H21.751C21.4816 16.6025 21.28 16.5937 21.214 16.5443C21.1462 16.5001 21.1355 16.4524 21.1319 16.3677L21.0784 15.1564H21.6903L21.6974 15.4036H21.8437C21.8954 15.4036 21.9276 15.4 21.949 15.386C21.965 15.3718 21.9757 15.3524 21.9864 15.3224L22.031 15.1282H22.5127Z" fill="white"/>
<path d="M13.7894 9.06494C13.7662 9.16735 13.3755 10.9524 13.3737 10.9542C13.2899 11.3144 13.2257 11.574 13.0223 11.7399C12.8992 11.837 12.7618 11.883 12.6048 11.883C12.3479 11.883 12.1963 11.7576 12.1695 11.5175L12.1624 11.4345C12.1624 11.4345 12.2427 10.9524 12.2427 10.9507C12.2427 10.9507 12.6548 9.3192 12.7297 9.10202C12.7316 9.08969 12.7334 9.08261 12.7369 9.07556C11.9358 9.08612 11.7931 9.07916 11.7842 9.06495C11.7788 9.08264 11.7574 9.18502 11.7574 9.18502L11.3382 11.0213L11.2989 11.1767L11.2329 11.6852C11.2329 11.8371 11.2614 11.9607 11.3221 12.0648C11.513 12.395 12.0607 12.4444 12.3676 12.4444C12.7654 12.4444 13.1365 12.3597 13.3898 12.2096C13.8269 11.9518 13.9428 11.551 14.0427 11.1979L14.0891 11.0143C14.0891 11.0143 14.5155 9.32098 14.5869 9.10203C14.5887 9.0897 14.5922 9.08259 14.594 9.07554C14.0142 9.08436 13.8447 9.07912 13.7894 9.06494Z" fill="white"/>
<path d="M16.1267 12.4263C15.843 12.4227 15.7431 12.4227 15.4131 12.4368L15.397 12.4157C15.4273 12.2885 15.4594 12.1649 15.488 12.0396L15.5272 11.8701C15.5896 11.6035 15.6521 11.2962 15.6557 11.2009C15.6628 11.1444 15.6806 11.0031 15.5183 11.0031C15.4505 11.0031 15.3773 11.0349 15.3042 11.0685C15.2668 11.2079 15.1829 11.607 15.1454 11.7871C15.0634 12.1702 15.0562 12.2144 15.0205 12.4015L14.9955 12.4263C14.703 12.4227 14.6031 12.4227 14.2677 12.4368L14.2534 12.4121C14.3069 12.1826 14.364 11.9566 14.4158 11.7288C14.5585 11.1143 14.5924 10.8813 14.6298 10.5687L14.6566 10.5475C14.9867 10.5034 15.0652 10.4928 15.422 10.4204L15.4505 10.4522L15.3952 10.6517C15.4559 10.6164 15.5165 10.5811 15.5772 10.5475C15.7431 10.4681 15.9304 10.4416 16.0339 10.4416C16.1873 10.4416 16.3568 10.4858 16.4282 10.6623C16.4995 10.8212 16.4513 11.0172 16.3621 11.4039L16.3193 11.5981C16.2248 12.0289 16.2123 12.1084 16.1606 12.4015L16.1267 12.4263Z" fill="white"/>
<path d="M17.2863 12.4266C17.115 12.4229 17.0062 12.4229 16.8992 12.4266C16.7921 12.4266 16.6869 12.4302 16.5281 12.4371L16.5192 12.423L16.5103 12.4125C16.553 12.25 16.5763 12.1918 16.5977 12.1353C16.6191 12.077 16.6405 12.0205 16.678 11.8545C16.7261 11.6409 16.7582 11.4872 16.7796 11.3584C16.8028 11.2277 16.8153 11.1218 16.8314 10.9964L16.8475 10.9858L16.8581 10.9735C17.0294 10.9523 17.1364 10.9364 17.2488 10.917C17.3576 10.9011 17.4718 10.8817 17.6484 10.8481L17.6538 10.8622L17.6609 10.8764C17.6252 11.0105 17.5949 11.1447 17.561 11.2789C17.5289 11.4131 17.4986 11.5473 17.4682 11.6797C17.4004 11.9622 17.379 12.0699 17.363 12.1441C17.3487 12.2165 17.3451 12.2536 17.3202 12.4019L17.3041 12.416L17.2863 12.4266Z" fill="white"/>
<path d="M19.8317 11.4591C19.9316 11.0265 19.8567 10.8234 19.7585 10.7034C19.6087 10.5144 19.35 10.4526 19.077 10.4526C18.9147 10.4526 18.5293 10.4703 18.2261 10.7493C18.0102 10.947 17.9049 11.2189 17.8461 11.4767C17.7854 11.7416 17.714 12.2218 18.1547 12.3949C18.2921 12.4531 18.4883 12.4708 18.6132 12.4708C18.9397 12.4708 19.2715 12.3807 19.5195 12.1159C19.7139 11.9075 19.8014 11.5897 19.8317 11.4591ZM19.0913 11.4291C19.0753 11.4997 19.011 11.7734 18.9218 11.8881C18.863 11.9711 18.7898 12.0223 18.7131 12.0223C18.6899 12.0223 18.549 12.0223 18.5454 11.8175C18.5454 11.7151 18.5633 11.6109 18.59 11.4979C18.665 11.173 18.7541 10.8976 18.9772 10.8976C19.1556 10.8976 19.1662 11.0989 19.0913 11.4291Z" fill="white"/>
<path d="M26.0959 11.9232C26.0388 12.0044 25.8996 12.0556 25.8229 12.0556C25.7997 12.0556 25.6606 12.0556 25.657 11.8526C25.6552 11.7502 25.6749 11.646 25.7016 11.533C25.7747 11.2099 25.8639 10.9379 26.0905 10.9379C26.235 10.9379 26.3064 11.0792 26.2868 11.3105C26.2743 11.3617 26.2671 11.4094 26.2529 11.4694C26.2279 11.5718 26.1994 11.6707 26.1744 11.7696C26.153 11.8296 26.128 11.8861 26.0959 11.9232ZM27.2234 10.4753C26.8666 10.5389 26.772 10.5548 26.4331 10.6007L26.4045 10.6219C26.4027 10.6501 26.3974 10.6749 26.3938 10.7049C26.3421 10.6184 26.269 10.5442 26.1476 10.4965C25.9942 10.44 25.6392 10.5142 25.3359 10.7914C25.1183 10.9892 25.0184 11.2558 24.9541 11.5153C24.8953 11.7749 24.8239 12.2534 25.2645 12.4229C25.4037 12.4812 25.5321 12.4988 25.657 12.4917C25.7962 12.4865 25.9175 12.4158 26.0352 12.3169C26.0228 12.3575 26.0138 12.3999 26.0031 12.4405L26.0228 12.4653C26.3403 12.4529 26.4385 12.4529 26.781 12.4565L26.8131 12.43C26.8613 12.1404 26.9112 11.8561 27.0397 11.2982C27.1021 11.0333 27.1663 10.7685 27.2324 10.5036L27.2234 10.4753Z" fill="white"/>
<path d="M21.7685 12.4263C21.483 12.4227 21.3885 12.4227 21.0531 12.4368L21.0406 12.4157C21.071 12.2885 21.1031 12.1649 21.1316 12.0396L21.1726 11.8701C21.2315 11.6035 21.2939 11.2962 21.3011 11.2009C21.3047 11.1444 21.3225 11.0031 21.1601 11.0031C21.0941 11.0031 21.0192 11.0349 20.9461 11.0685C20.9086 11.2079 20.8265 11.607 20.7873 11.7871C20.7088 12.1702 20.7016 12.2144 20.666 12.4015L20.6392 12.4263C20.3484 12.4227 20.2485 12.4227 19.9113 12.4368L19.8953 12.4121C19.9524 12.1826 20.0077 11.9566 20.0594 11.7288C20.2021 11.1143 20.2342 10.8813 20.2753 10.5687L20.302 10.5475C20.6303 10.5034 20.7088 10.4928 21.0656 10.4204L21.0941 10.4522L21.0406 10.6517C21.0977 10.6164 21.1584 10.5811 21.219 10.5475C21.3867 10.4681 21.5723 10.4416 21.6739 10.4416C21.8292 10.4416 22.0004 10.4858 22.0718 10.6623C22.1396 10.8212 22.095 11.0172 22.0058 11.4039L21.9612 11.5981C21.8684 12.0289 21.8541 12.1084 21.8024 12.4015L21.7685 12.4263Z" fill="white"/>
<path d="M24.5429 10.1137C24.4911 10.3362 24.3466 10.5234 24.1575 10.6169C24.0005 10.6929 23.8132 10.6999 23.6152 10.6999H23.4867L23.4974 10.6505C23.4974 10.6505 23.7311 9.64407 23.7311 9.64584L23.7364 9.59463L23.7418 9.5558L23.8363 9.56285C23.8363 9.56285 24.318 9.60521 24.3287 9.60876C24.5178 9.68116 24.5982 9.8683 24.5429 10.1137ZM24.2342 9.0614L23.9987 9.06668C23.385 9.07373 23.1405 9.07196 23.0371 9.05786C23.0282 9.10202 23.0121 9.18146 23.0121 9.18146L22.7944 10.1914C22.7944 10.1914 22.2681 12.3349 22.2432 12.4374C22.7766 12.4285 22.9978 12.4285 23.0888 12.4392C23.1102 12.3385 23.2351 11.74 23.2369 11.7382C23.2369 11.7382 23.3421 11.2985 23.3493 11.2862C23.3493 11.2862 23.3796 11.2385 23.4153 11.2209H23.4652C23.9255 11.2209 24.4482 11.2208 24.8585 10.9207C25.1351 10.7212 25.3242 10.4175 25.4116 10.052C25.4312 9.96193 25.449 9.85599 25.449 9.74652C25.449 9.60879 25.4205 9.46931 25.3384 9.3563C25.1315 9.0685 24.7158 9.0667 24.2342 9.0614Z" fill="white"/>
<path d="M17.593 10.7035C17.7803 10.5746 17.8053 10.3963 17.6465 10.301C17.486 10.2109 17.2059 10.2392 17.0168 10.3681C16.8259 10.4952 16.8062 10.6753 16.965 10.7689C17.1238 10.8624 17.4039 10.8324 17.593 10.7035Z" fill="white"/>
<path fill-rule="evenodd" clip-rule="evenodd" d="M29.584 10.4743L29.5537 10.4408C29.204 10.5131 29.1416 10.5237 28.8187 10.5661L28.7937 10.5873C28.7937 10.5926 28.7937 10.5996 28.7918 10.6032L28.79 10.5996C28.5492 11.1487 28.5581 11.0287 28.3636 11.4595C28.3618 11.44 28.3618 11.4242 28.3618 11.4065L28.3119 10.4742L28.2815 10.4407C27.9158 10.5131 27.9051 10.5237 27.5679 10.566L27.5411 10.5872C27.5375 10.6013 27.5358 10.612 27.534 10.6261L27.5377 10.6297C27.5787 10.8451 27.5698 10.7974 27.6126 11.1346C27.6305 11.2989 27.6572 11.4684 27.6768 11.6326C27.7107 11.9062 27.7303 12.0422 27.7696 12.4571C27.5412 12.835 27.4877 12.9762 27.2683 13.3047L27.1131 13.5501C27.0952 13.5766 27.0792 13.5924 27.056 13.6013C27.0328 13.6119 26.9989 13.6172 26.9543 13.6172H26.8366L26.7349 14.0551L27.1773 14.048C27.4342 14.0462 27.5983 13.9209 27.6858 13.762L27.9587 13.2941L29.584 10.4743Z" fill="white"/>
</g>
<defs>
<clipPath id="clip0_10001_1504">
<rect width="40" height="24" fill="white" transform="translate(0 0.5)"/>
</clipPath>
</defs>
</svg>
