<svg width="58" height="40" viewBox="0 0 58 40" fill="none" xmlns="http://www.w3.org/2000/svg">
<rect x="0.5" y="0.5" width="57" height="39" rx="3.5" fill="white"/>
<rect x="0.5" y="0.5" width="57" height="39" rx="3.5" stroke="#E5E7EB"/>
<path fill-rule="evenodd" clip-rule="evenodd" d="M24.3154 17.1754H26.1598L26.4563 15.657H24.6116L24.3154 17.1754ZM24.1244 18.1519H25.9692L24.7973 24.1469C24.7118 24.1772 24.4478 24.2838 24.0831 24.2838C23.591 24.2838 23.1396 24.0889 23.1396 23.3979C23.1396 23.2679 23.1543 23.1199 23.1872 22.9517C23.5537 21.081 24.1244 18.1519 24.1244 18.1519ZM42.4415 18.015C41.2137 18.015 40.7257 18.7456 40.4965 19.1904H40.4748L40.5456 18.1532H38.7226C38.7107 18.3813 38.6318 19.1002 38.5149 19.7203C38.5149 19.7203 38.0939 21.8963 38.0143 22.313C37.9536 22.6312 37.8426 23.1018 37.8426 23.3748C37.8426 23.9562 38.1329 24.284 38.7805 24.284C39.1438 24.284 39.4057 24.183 39.501 24.1469L40.1106 21.0248C40.2797 20.1627 40.8933 19.5985 41.6229 19.5985C42.2116 19.5985 42.493 20.0348 42.493 20.3914C42.493 20.7018 42.4164 21.0458 42.3571 21.35L42.0949 22.687C42.0637 22.8475 41.9969 23.1558 41.9969 23.3976C41.9969 23.9886 42.3249 24.284 42.9479 24.284C43.288 24.284 43.5036 24.1976 43.6564 24.1469L44.2035 21.3481C44.3221 20.7155 44.3658 20.3824 44.3658 19.9798C44.3658 18.8208 43.6988 18.015 42.4415 18.015ZM34.2477 19.4646C33.2166 19.4646 32.6455 20.5357 32.6455 21.4904C32.6455 22.2956 33.0035 22.8348 33.8171 22.8348C34.7369 22.8348 35.4567 22.0396 35.4567 20.6822C35.4567 20.0612 35.1313 19.4646 34.2477 19.4646ZM33.7034 24.2841C31.7283 24.2841 30.7832 23.0806 30.7832 21.5465C30.7832 19.4415 32.2056 18.015 34.4038 18.015C36.3111 18.015 37.3238 19.1884 37.3238 20.6953C37.3238 22.9534 35.8045 24.2841 33.7034 24.2841ZM26.7965 22.8407C26.7544 23.0564 26.7279 23.2076 26.7279 23.3933C26.7279 24.0805 27.1799 24.284 27.659 24.284C28.0421 24.284 28.2792 24.1775 28.3659 24.1469L29.2528 19.6027L30.6871 19.6025L30.9702 18.1519L29.5361 18.1521L29.6058 17.7948C29.7356 17.1248 30.0459 16.8303 30.5827 16.8303C30.9412 16.8303 31.2312 16.895 31.3319 16.9217L31.6019 15.5424C31.4868 15.5128 30.9569 15.381 30.1724 15.381C28.9225 15.381 28.1036 16.1524 27.8614 17.3947L27.7132 18.1519H26.7794L26.4961 19.6025H27.4305C27.4305 19.6025 27.0619 21.4814 26.7965 22.8407ZM22.5498 18.0151C21.624 18.0151 21.1148 18.6684 20.9156 19.1895H20.8944L20.9656 18.1519H19.1419C19.1257 18.5116 19.0517 19.1196 18.8659 20.0757C18.6776 21.0445 18.4941 22.011 18.3047 22.9515C18.2722 23.1123 18.2578 23.2696 18.2578 23.4028C18.2578 23.8954 18.4973 24.2835 19.2052 24.2835C19.5559 24.2835 19.7995 24.1909 19.9164 24.1469L20.4589 21.3677C20.6544 20.3044 21.0094 19.6014 22.0394 19.6014C22.5079 19.6014 22.953 19.7029 23.0463 19.7307L23.3585 18.1317C23.2911 18.108 23.0207 18.0151 22.5498 18.0151ZM49.3054 20.5818C49.4042 20.0321 49.0895 19.4646 48.3783 19.4646C47.5099 19.4646 47.1285 20.0675 46.9582 20.5818H49.3054ZM50.128 22.8126C50.128 23.6464 49.3335 24.2857 47.9266 24.2857C45.9821 24.2857 45.0312 23.0548 45.0312 21.5481C45.0312 20.0523 46.0083 18.0166 48.3932 18.0166C49.9656 18.0166 51.1414 18.8104 51.1414 20.6277C51.1414 21.0747 51.0435 21.5605 51.0014 21.7551H46.8216C46.8146 22.1912 47.1763 22.947 48.6292 22.947C49.2767 22.947 50.0099 22.7145 50.128 22.6552C50.128 22.7006 50.128 22.7826 50.128 22.8126ZM15.9752 20.5818C16.0738 20.0321 15.7591 19.4646 15.0479 19.4646C14.1795 19.4646 13.7983 20.0675 13.6278 20.5818H15.9752ZM16.7988 22.8126C16.7988 23.6464 16.0043 24.2857 14.5975 24.2857C12.6528 24.2857 11.7021 23.0548 11.7021 21.5481C11.7021 20.0523 12.6791 18.0166 15.0641 18.0166C16.6365 18.0166 17.8123 18.8104 17.8123 20.6277C17.8123 21.0747 17.7144 21.5605 17.6721 21.7551H13.4925C13.4855 22.1912 13.8471 22.947 15.2999 22.947C15.9474 22.947 16.6806 22.7145 16.7988 22.6552C16.7988 22.7006 16.7988 22.7826 16.7988 22.8126ZM5.71387 16.1121H7.56958V22.0728C7.56958 22.9691 8.0086 23.4267 8.71338 23.4267C8.78525 23.4267 8.82763 23.4173 8.8416 23.4139C8.53268 23.889 8.13216 24.2786 7.21253 24.2786C6.2395 24.2786 5.71387 23.5922 5.71387 22.5621V16.1121Z" fill="#1A1919"/>
<path fill-rule="evenodd" clip-rule="evenodd" d="M8.24092 21.2127C8.1403 21.3724 8.08691 21.5572 8.08691 21.7459V22.0827C8.08691 22.687 8.4081 22.9036 8.75878 22.9036C9.11723 22.9036 9.3091 22.6565 9.48514 22.3757C9.7801 21.9055 13.3844 16.1121 13.3844 16.1121H11.4556L8.24092 21.2127Z" fill="#00A3DA"/>
</svg>
