<svg width="40" height="25" viewBox="0 0 40 25" fill="none" xmlns="http://www.w3.org/2000/svg">
<g clip-path="url(#clip0_10001_1482)">
<path d="M16.2441 16.4086L17.5387 8.65844H19.6094L18.3138 16.4086H16.2441ZM25.7952 8.82551C25.3851 8.6685 24.7422 8.5 23.9394 8.5C21.8932 8.5 20.4519 9.55116 20.4396 11.0577C20.4281 12.1713 21.4686 12.7926 22.254 13.1633C23.0601 13.5433 23.3311 13.7855 23.3272 14.1247C23.322 14.6442 22.6835 14.8814 22.0882 14.8814C21.2595 14.8814 20.8192 14.764 20.1391 14.4747L19.8722 14.3516L19.5816 16.0865C20.0653 16.3029 20.9596 16.4903 21.8883 16.5C24.0651 16.5 25.4782 15.4608 25.4942 13.852C25.502 12.9703 24.9503 12.2995 23.7556 11.7463C23.0318 11.3878 22.5885 11.1485 22.5932 10.7855C22.5932 10.4633 22.9684 10.1188 23.7792 10.1188C24.4563 10.1081 24.9469 10.2588 25.3291 10.4158L25.5146 10.5052L25.7952 8.82551ZM31.124 8.65832H29.524C29.0283 8.65832 28.6573 8.79633 28.4397 9.30103L25.3643 16.4035H27.5388C27.5388 16.4035 27.8942 15.4486 27.9746 15.2389C28.2122 15.2389 30.3247 15.2422 30.6266 15.2422C30.6886 15.5135 30.8786 16.4035 30.8786 16.4035H32.8001L31.124 8.65808V8.65832ZM28.5853 13.6629C28.7566 13.2164 29.4104 11.4964 29.4104 11.4964C29.3982 11.517 29.5804 11.0477 29.6849 10.7567L29.8248 11.4249C29.8248 11.4249 30.2214 13.2749 30.3042 13.6628H28.5853V13.6629ZM14.4862 8.65832L12.4588 13.9436L12.2429 12.8696C11.8654 11.6314 10.6896 10.29 9.375 9.61842L11.2288 16.3963L13.4197 16.3938L16.6798 8.65824L14.4862 8.6582" fill="#0E4595"/>
<path d="M10.5654 8.6582H7.22618L7.19971 8.81945C9.79762 9.46097 11.5166 11.0113 12.2303 12.8743L11.5042 9.31275C11.3789 8.82199 11.0153 8.6755 10.5655 8.6584" fill="#F2AE14"/>
</g>
<defs>
<clipPath id="clip0_10001_1482">
<rect width="40" height="24" fill="white" transform="translate(0 0.5)"/>
</clipPath>
</defs>
</svg>
