<svg width="58" height="40" viewBox="0 0 58 40" fill="none" xmlns="http://www.w3.org/2000/svg">
<rect x="0.5" y="0.5" width="57" height="39" rx="3.5" fill="white"/>
<rect x="0.5" y="0.5" width="57" height="39" rx="3.5" stroke="#E5E7EB"/>
<path d="M46.5615 29.8232H46.6123L47.5889 26.7558H48.5059L46.9551 30.9238C46.5268 32.0739 46.0045 32.6736 45.0205 32.6738V31.9911C45.6026 31.991 45.9622 31.5403 46.168 30.9238L44.5234 26.7558H45.4658L46.5615 29.8232ZM17.5059 26.6142C18.5757 26.6144 19.2352 27.2894 19.2354 28.6474V28.956H16.4434C16.4434 29.9561 16.8631 30.3983 17.7451 30.3984C18.2075 30.3984 18.6355 30.2398 19.1064 29.9648V30.5986C18.7212 30.8155 18.2074 30.9824 17.5908 30.9824C16.1523 30.9823 15.5615 30.115 15.5615 28.7978C15.5615 27.531 16.2214 26.6142 17.5059 26.6142ZM20.9053 26.9228C21.1621 26.7894 21.599 26.6142 22.0615 26.6142C23.1232 26.6142 23.6973 27.331 23.6973 28.665C23.6973 30.2234 22.9263 30.9824 21.6846 30.9824C21.2305 30.9823 20.5285 30.8403 20.0146 30.5732V24.7548L20.9053 24.5468V26.9228ZM33.4248 26.6142C34.5553 26.6142 35.3779 27.339 35.3779 28.7978C35.3779 30.2234 34.5981 30.9824 33.4248 30.9824C32.2515 30.9823 31.4727 30.2233 31.4727 28.7978C31.4727 27.3391 32.2946 26.6142 33.4248 26.6142ZM42.5273 26.6142C43.5979 26.6142 44.2577 27.2892 44.2578 28.6474V28.956H41.4658C41.4658 29.9561 41.8857 30.3984 42.7676 30.3984C43.23 30.3984 43.6583 30.2399 44.1289 29.9648V30.5986C43.7438 30.8156 43.2301 30.9823 42.6133 30.9824C41.1749 30.9824 40.584 30.115 40.584 28.7978C40.584 27.5311 41.2432 26.6144 42.5273 26.6142ZM10.251 29.3818H10.3115L11.4248 24.9716H12.1865L13.377 29.3818H13.4365L14.3105 24.9716H15.3125L13.9248 30.8818H13L11.8359 26.7226H11.7754L10.6445 30.8818H9.7207L8.33301 24.9716H9.29199L10.251 29.3818ZM27.5928 29.6318H27.6357L29.4688 24.9716H30.5303V30.8818H29.6055V26.5976H29.5283L27.7812 30.8818H27.2334L25.4863 26.6972H25.4092V30.8818H24.6387V24.9716H25.6748L27.5928 29.6318ZM38.374 26.6142C39.402 26.6142 39.7871 27.0058 39.7871 27.8642V30.8818H38.8965V28.0566C38.8965 27.398 38.5626 27.2812 38.126 27.2812C37.7832 27.2812 37.3464 27.4312 37.0811 27.581V30.8818H36.1904V27.2304C36.5758 27.0053 37.3899 26.6142 38.374 26.6142ZM21.8301 27.2646C21.4874 27.2646 21.239 27.3557 20.8965 27.539V30.2646C21.1703 30.3813 21.4704 30.3984 21.6846 30.3984C22.3181 30.3983 22.7978 30.0147 22.7979 28.665C22.7979 27.6061 22.4037 27.2647 21.8301 27.2646ZM33.4258 27.1972C32.8606 27.1972 32.3721 27.6727 32.3721 28.7978C32.3721 29.9402 32.818 30.3984 33.4258 30.3984C34.0335 30.3981 34.4785 29.9399 34.4785 28.7978C34.4785 27.673 34.0077 27.1975 33.4258 27.1972ZM17.4795 27.1728C16.957 27.1729 16.5549 27.5644 16.4609 28.3974H18.4219C18.3794 27.5223 17.9418 27.1728 17.4795 27.1728ZM42.502 27.1728C41.9796 27.1728 41.5778 27.5643 41.4834 28.3974H43.4443C43.4017 27.5223 42.9643 27.1728 42.502 27.1728Z" fill="#0068A3"/>
<path d="M27.8457 7.5C29.024 7.50007 30.1399 7.76703 31.1338 8.24121C31.2899 8.31328 31.4455 8.39293 31.6016 8.48047L30.9111 9.08203L29.873 8.03711L28.1211 9.55859L27.0801 8.45312L23.8164 11.3164L25.9092 13.5615L25.0869 14.2646L27.1475 16.5127L26.3301 17.2158L29.2744 20.4062L31.0225 18.8398L32.5342 20.5186C32.2337 20.7459 31.9064 20.9595 31.5459 21.1572C30.4531 21.7638 29.1897 22.1112 27.8457 22.1113C23.7119 22.1113 20.3398 18.829 20.3398 14.8057C20.34 10.7816 23.712 7.5 27.8457 7.5ZM34.5752 18.6699L33.2363 19.8428L32.0312 18.541L33.3691 17.3672L34.5752 18.6699ZM31.1387 17.5195L29.3535 19.084L27.7461 17.3457L29.5312 15.7822L31.1387 17.5195ZM33.3975 16.0391L32.0596 17.2119L30.8535 15.9092L32.1924 14.7354L33.3975 16.0391ZM29.8691 14.5176L28.085 16.0811L26.4775 14.3438L28.2617 12.7793L29.8691 14.5176ZM35.4072 15.1758L34.5146 15.958L33.7109 15.0898L34.6035 14.3076L35.4072 15.1758ZM32.2529 13.2852L30.9141 14.458L29.709 13.1553L31.0479 11.9824L32.2529 13.2852ZM34.2666 12.5957L33.374 13.377L32.5703 12.5088L33.4629 11.7266L34.2666 12.5957ZM28.5918 11.5508L26.8066 13.1143L25.2002 11.377L26.9854 9.81348L28.5918 11.5508ZM31.0195 10.665L29.6807 11.8389L28.4756 10.5352L29.8145 9.3623L31.0195 10.665ZM33.127 10.0146L32.2344 10.7969L31.4307 9.92773L32.3232 9.14551L33.127 10.0146Z" fill="#0068A3"/>
</svg>
