<svg width="56" height="57" viewBox="0 0 56 57" fill="none" xmlns="http://www.w3.org/2000/svg">
<rect y="0.5" width="56" height="56" rx="4" fill="#F3F4F6"/>
<path fill-rule="evenodd" clip-rule="evenodd" d="M10.5 32.875C10.5 32.3918 10.8918 32 11.375 32H44.625C45.1082 32 45.5 32.3918 45.5 32.875V45.125C45.5 45.6082 45.1082 46 44.625 46H11.375C10.8918 46 10.5 45.6082 10.5 45.125V32.875ZM23.1875 39C23.1875 38.5168 23.5793 38.125 24.0625 38.125H36.3125C36.7957 38.125 37.1875 38.5168 37.1875 39C37.1875 39.4832 36.7957 39.875 36.3125 39.875H24.0625C23.5793 39.875 23.1875 39.4832 23.1875 39ZM19.6875 38.125C19.2043 38.125 18.8125 38.5168 18.8125 39C18.8125 39.4832 19.2043 39.875 19.6875 39.875H20.5625C21.0457 39.875 21.4375 39.4832 21.4375 39C21.4375 38.5168 21.0457 38.125 20.5625 38.125H19.6875Z" fill="#99C2F1"/>
<path d="M45.5 11.875C45.5 11.3918 45.1082 11 44.625 11H36.75C36.2668 11 35.875 11.3918 35.875 11.875V19.3344C35.875 19.5665 35.7828 19.789 35.6187 19.9531L35.2031 20.3687C35.039 20.5328 34.8165 20.625 34.5844 20.625H11.375C10.8918 20.625 10.5 21.0168 10.5 21.5V29.375C10.5 29.8582 10.8918 30.25 11.375 30.25H35C35.4832 30.25 35.875 29.8582 35.875 29.375V21.9155C35.875 21.6834 35.9672 21.4608 36.1313 21.2967L36.5467 20.8813C36.7108 20.7172 36.9334 20.625 37.1655 20.625H44.625C45.1082 20.625 45.5 20.2332 45.5 19.75V11.875Z" fill="#99C2F1"/>
</svg>
